<?xml version="1.0" encoding="UTF-8" standalone="no"?>
<!-- Created with Inkscape (http://www.inkscape.org/) -->

<svg
   width="210mm"
   height="297mm"
   viewBox="0 0 210 297"
   version="1.1"
   id="svg1"
   inkscape:version="1.4.2 (ebf0e940, 2025-05-08)"
   sodipodi:docname="branch.svg"
   xmlns:inkscape="http://www.inkscape.org/namespaces/inkscape"
   xmlns:sodipodi="http://sodipodi.sourceforge.net/DTD/sodipodi-0.dtd"
   xmlns="http://www.w3.org/2000/svg"
   xmlns:svg="http://www.w3.org/2000/svg">
  <sodipodi:namedview
     id="namedview1"
     pagecolor="#ffffff"
     bordercolor="#666666"
     borderopacity="1.0"
     inkscape:showpageshadow="2"
     inkscape:pageopacity="0.0"
     inkscape:pagecheckerboard="0"
     inkscape:deskcolor="#d1d1d1"
     inkscape:document-units="mm"
     inkscape:zoom="1.8369388"
     inkscape:cx="389.7789"
     inkscape:cy="562.89299"
     inkscape:window-width="2560"
     inkscape:window-height="1387"
     inkscape:window-x="0"
     inkscape:window-y="25"
     inkscape:window-maximized="1"
     inkscape:current-layer="layer1" />
  <defs
     id="defs1" />
  <g
     inkscape:label="Layer 1"
     inkscape:groupmode="layer"
     id="layer1">
    <path
       style="fill:#010101;stroke:none"
       d="m 51.38346,120.96426 c 0,-13.3484 -7.115716,-24.918647 -18.256251,-32.190977 -2.943446,-1.92143 -6.210563,-3.21477 -9.525001,-4.36562 -1.619576,-0.56236 -3.619978,-1.03216 -4.806599,0.57326 -1.115779,1.50959 -1.4986,3.23799 -1.896177,5.02709 -0.75113,3.38007 -1.499307,6.5245 -1.499307,10.054157 0,2.69067 -0.260187,5.52588 0,8.20209 0.554314,5.70149 2.976788,10.7349 5.820833,15.61041 1.736458,2.97679 3.646144,5.6712 6.35,7.84931 3.65023,2.94047 7.415625,5.25091 11.641668,7.18785 1.331257,0.61016 2.823616,1.02446 4.233333,1.4552 0.673175,0.2057 1.352154,0.27571 1.719792,0.97014 0.271277,0.51241 0.132292,1.29292 0.132292,1.85208 0,1.72399 -0.364198,3.33022 -0.529167,5.02709 -0.397352,4.08705 0.137047,8.40214 0.529167,12.43541 0.353838,3.63949 1.242882,7.41102 2.293053,10.84792 0.312658,1.02326 0.375493,2.14551 0.661458,3.175 0.467252,1.68212 1.319332,3.37123 1.94028,5.02708 2.064999,5.50666 4.568722,10.82473 8.15799,15.61042 12.082333,16.10977 30.988863,25.86373 50.711816,27.78125 3.22611,0.31364 7.09262,0.31364 10.31875,0 1.60156,-0.15571 5.83564,-0.85506 7.42715,-1.0098 8.72705,-1.77069 14.86336,-4.11881 21.9416,-9.13256 3.38514,-2.39781 6.50362,-5.58938 9.26041,-8.64306 4.01179,-4.44383 7.59219,-9.08435 10.09827,-14.55208 3.23466,-6.11776 4.33019,-12.84858 5.36811,-19.58507 0.43168,-2.79022 0.8523,-7.40474 -1.06147,-7.52585 -2.35549,-0.011 -1.99115,6.52771 -2.16208,8.35211 -2.18498,22.46279 -21.55417,45.90923 -49.81369,48.65673 -2.15825,0.20984 -4.58872,0.50412 -6.75861,0.50412 -2.0831,0 -4.13409,-0.30268 -6.20597,-0.50412 -2.45212,-0.23841 -5.06714,-0.81646 -7.40833,-1.49931 -4.549063,-1.32681 -9.164683,-2.32133 -13.493763,-4.36563 -11.40945,-5.3878 -21.279091,-13.66124 -28.222223,-24.29756 -3.872455,-5.9323 -5.637891,-12.63974 -7.584728,-19.31459 -1.138836,-3.90457 -1.635051,-7.85961 -2.02847,-11.90625 -1.257021,-12.92943 0.542344,-26.1319 6.394095,-37.83541 1.379486,-2.75897 3.219095,-5.43413 5.027083,-7.9375 0.610961,-0.84594 1.105271,-2.27344 2.072573,-2.77812 0.631922,-0.3297 1.68814,-0.1323 2.38125,-0.1323 1.954871,0 4.16642,0.28495 6.08542,-0.0882 7.24715,-1.40915 14.81688,-3.80721 20.90208,-8.20208 9.386873,-6.779407 14.984673,-15.984777 18.168073,-26.899307 0.55691,-1.9094 0.42575,-4.11465 0.61735,-6.08542 0.25611,-2.63414 0.3017,-5.266245 0.26459,-7.937497 -0.0142,-1.024711 -0.13233,-2.685124 -1.05834,-3.307292 -1.42628,-0.958291 -3.67148,-0.661458 -5.29166,-0.661458 -4.907673,0 -9.376373,1.049678 -14.022933,2.469439 -11.63681,3.555662 -21.957313,12.022298 -26.722914,23.459728 -1.391646,3.33995 -2.089682,6.90005 -3.086803,10.31875 -1.001158,3.43253 -0.881947,7.280979 -0.881947,10.847917 0,1.3305 0.457708,3.59266 0,4.8066 -0.878443,2.3298 -3.25832,4.12906 -4.497917,6.3059 -1.048813,1.84181 -1.932182,5.20341 -3.704166,6.35 m 48.94793,-61.603815 4.23333,-0.0441 1.05833,0.79375 -2.38125,2.910416 -7.320133,7.408332 -3.26321,3.43959 -1.32291,0.92604 -0.52917,-2.77813 v -6.614582 l 0.0882,-3.175 2.55765,-1.411105 6.879163,-1.455209 m 7.93751,1.543398 c 0.79794,1.895168 -0.041,4.165702 -0.44098,6.085418 -0.14731,0.70706 -0.0192,1.40668 -0.0882,2.11667 -0.28774,2.95957 -0.95453,6.23424 -2.02848,8.99583 -0.53453,1.37448 -0.75292,3.82606 -2.20485,4.63021 -0.87888,0.48676 -2.71546,0.13229 -3.704173,0.13229 h -8.73126 c -0.71362,0 -3.49051,0.41117 -3.66008,-0.52917 -0.21502,-1.19238 2.34167,-2.73042 3.13091,-3.43958 3.46216,-3.11091 6.73229,-6.3354 10.010073,-9.61319 1.84017,-1.84017 3.62446,-3.77685 5.33578,-5.732645 0.91062,-1.040715 0.89758,-2.333482 2.38125,-2.645833 m -21.166653,1.896186 c 0.51237,-0.120972 1.08222,-0.06006 1.27882,0.485064 0.32941,0.913365 -0.13282,2.00863 -0.22049,2.910418 -0.14268,1.46759 0,3.02238 0,4.49792 0,1.2151 -0.1175,2.49556 0,3.70416 0.0672,0.69082 0.49411,1.4166 0.39687,2.11667 -0.39162,2.81972 -3.4114,4.60345 -5.11528,6.61458 -0.83824,0.98941 -1.7681,1.73683 -2.68992,2.64584 -0.42844,0.42248 -0.95009,1.1757 -1.5875,1.27881 -0.93586,0.15138 -1.03243,-1.45069 -1.05834,-2.07256 -0.10249,-2.45969 0,-4.94623 0,-7.40834 v -6.61458 c 0,-0.82185 -0.25623,-2.16574 0.13229,-2.91042 0.4241,-0.81285 1.5042,-1.2309 2.24896,-1.67569 1.95591,-1.168111 4.37308,-3.042625 6.61459,-3.571872 m 0.52916,36.997561 c -0.0513,1.950768 -3.41828,2.726918 -5.02708,3.263188 -2.93066,0.9769 -5.69764,2.36662 -8.73125,2.99862 -1.54919,0.32275 -3.20558,0.13824 -4.7625,0.44096 -1.542744,0.29999 -2.917248,0.44098 -4.497917,0.44098 -0.621789,0 -1.33498,0.11518 -1.852084,-0.30868 -0.64849,-0.53154 -0.529166,-1.32471 -0.529166,-2.07257 0,-1.60954 0.264583,-3.16487 0.264583,-4.762498 0,-1.51683 0.387032,-2.7714 0.529167,-4.233329 0.628958,-6.46934 2.665115,-12.62192 6.394095,-17.99167 1.229162,-1.77 2.129992,-3.71787 3.660072,-5.29166 0.45315,-0.46611 1.07676,-1.51944 1.85208,-1.27882 0.73211,0.22722 0.52917,1.21296 0.52917,1.80798 v 5.29167 8.46667 c 0,1.11407 0.27448,2.65817 -0.13229,3.70416 -1.2428,3.19579 -4.36154,5.5853 -6.746877,7.937499 -1.427796,1.40796 -2.891224,2.723458 -4.233334,4.233338 -0.432394,0.48645 -1.115629,1.38481 -0.661458,2.07256 0.473582,0.71714 1.246751,0.12304 1.719792,-0.26458 1.239621,-1.0158 2.109537,-2.39328 3.351386,-3.39548 1.681361,-1.356898 3.876301,-1.058338 5.909031,-1.058338 h 12.96458 M 101.91888,85.774673 c -1.05055,3.32673 -3.673433,6.05468 -6.085413,8.46666 -1.16562,1.16563 -2.30057,2.44927 -3.96876,2.866319 -1.03691,0.25922 -2.37103,0.0441 -3.43959,0.0441 h -6.87916 -6.08542 c -0.53216,0 -1.63819,0.21583 -1.98438,-0.30869 -0.48203,-0.730349 0.49398,-1.400959 0.92605,-1.807979 1.54091,-1.45159 3.0009,-3.0009 4.49791,-4.49792 1.48468,-1.48468 2.86005,-3.76718 4.7625,-4.71839 1.32362,-0.66182 3.3118,-0.30869 4.7625,-0.30869 h 8.99585 c 1.42366,0 3.203263,-0.28052 4.497913,0.26458 M 31.010542,103.76633 c -1.704426,-0.18427 -1.825922,-2.88463 -2.425349,-4.233328 -1.623855,-3.653669 -3.091466,-8.915219 -6.570485,-11.112499 -0.757903,2.61822 1.263542,5.35649 2.293057,7.67291 1.733668,3.900769 3.510845,7.815437 5.423959,11.641667 0.661773,1.32355 1.764774,2.50673 2.072568,3.96875 -1.212156,-0.0319 -2.082851,-0.53025 -3.175,-0.97014 -2.251058,-0.90668 -4.593236,-1.70746 -6.879167,-2.46944 -1.025862,-0.34195 -3.031445,-0.5667 -3.571875,-1.5875 -0.391098,-0.73875 -0.132292,-2.09299 -0.132292,-2.91042 0,-1.64914 -0.159474,-3.38679 0,-5.027078 0.08667,-0.89153 0.442488,-1.7543 0.529167,-2.645839 0.242879,-2.49816 0.320571,-4.76466 1.278818,-7.14375 0.281632,-0.69923 0.510922,-1.80405 1.190625,-2.24895 0.919574,-0.6019 2.51309,0.27724 3.35139,0.66145 2.340127,1.07257 4.547809,2.31524 6.879167,3.3514 1.141718,0.50743 2.489779,1.06494 2.645834,2.46944 0.125969,1.13368 -0.411555,2.11662 -0.705553,3.175 -0.264559,0.952429 -0.38159,1.977379 -0.705561,2.910409 -0.503644,1.450498 -1.376652,2.944368 -1.499303,4.497918 m 6.614584,14.02292 c -1.337532,-0.79529 -1.77968,-2.60146 -2.425345,-3.96875 -1.091826,-2.31212 -2.898721,-5.26467 -2.601739,-7.9375 0.197291,-1.7756 1.355368,-3.60713 1.940281,-5.29167 0.458579,-1.320698 0.807072,-2.662378 1.278814,-3.968747 0.163103,-0.45167 0.213173,-1.12051 0.749655,-1.27881 0.660877,-0.19502 1.157431,0.34347 1.5875,0.74964 0.968659,0.914859 1.767714,1.922549 2.645834,2.910419 0.904152,1.017168 2.03589,2.250188 2.116666,3.704168 0.0946,1.70282 -1.495362,3.69234 -2.028469,5.29166 -0.429875,1.28962 -1.009556,2.64159 -1.322917,3.96875 -0.469278,1.98753 -0.729857,4.11728 -1.94028,5.82084 m 8.995833,19.31459 -1.675697,-3.175 -2.116667,-4.7625 -2.601731,-5.55625 -1.014238,-2.64583 0.573261,-1.5875 2.248958,-6.08542 2.469448,-7.67292 c 2.013653,0.43538 2.332084,3.5893 2.73403,5.29167 0.1913,0.81021 0.545881,1.56005 0.705553,2.38125 0.684261,3.51909 1.675972,7.48102 1.322917,11.1125 -0.250478,2.57639 -0.970476,5.13454 -1.499303,7.67291 -0.342962,1.64623 -0.386758,3.50756 -1.146531,5.02709 m -27.252084,-26.9434 c 0.639447,-0.15724 1.562114,0.36319 2.116667,0.61736 1.229535,0.56353 2.501615,1.01362 3.704166,1.6316 2.373939,1.21995 5.514001,1.11983 7.672917,2.77813 1.282028,0.98474 1.977415,2.77376 2.645834,4.18923 0.959195,2.03122 2.054146,3.99696 2.866322,6.08541 0.211882,0.54485 0.701403,1.86098 -0.220489,2.07256 -1.211021,0.27794 -3.398678,-1.34996 -4.497917,-1.80798 -2.004956,-0.83539 -3.997442,-1.44849 -6.085417,-2.02847 -1.261361,-0.35038 -2.886516,-0.47256 -3.96875,-1.23471 -1.021397,-0.7193 -1.565154,-1.97485 -2.028473,-3.08681 -0.93775,-2.25061 -2.130822,-4.44109 -2.469444,-6.87917 -0.08657,-0.62326 -0.712747,-2.09682 0.264584,-2.33715 m 24.606251,27.20798 -0.264583,0.26458 c -3.536493,-0.65145 -6.768168,-2.82788 -9.789584,-4.6743 -1.635668,-0.99957 -3.272548,-1.89508 -4.718402,-3.17501 -1.237279,-1.0953 -2.743885,-2.15072 -3.219099,-3.79235 l 0.264584,-0.26459 9.260417,3.3514 5.027083,1.71979 1.631595,2.86631 1.807989,3.70417"
       id="path2"
       inkscape:export-filename="simplified_logo.svg"
       inkscape:export-xdpi="100"
       inkscape:export-ydpi="100"
       sodipodi:nodetypes="csssssssssssssssssssscsssssssssssssssssscssscssssssssccccccccccccccscssssscssccsssccssssssssccsscssssssssscssssssssccssscsssssssccscsscsssssssscssssccssssscsssscccccccccssssccssssssssssscccsscccccc" />
  </g>
</svg>
