<?xml version="1.0" encoding="UTF-8" standalone="no"?>
<!-- Created with Inkscape (http://www.inkscape.org/) -->

<svg
   width="640.95557mm"
   height="93.444717mm"
   viewBox="0 0 640.95557 93.444717"
   version="1.1"
   id="svg1"
   xml:space="preserve"
   xmlns:inkscape="http://www.inkscape.org/namespaces/inkscape"
   xmlns:sodipodi="http://sodipodi.sourceforge.net/DTD/sodipodi-0.dtd"
   xmlns="http://www.w3.org/2000/svg"
   xmlns:svg="http://www.w3.org/2000/svg"><sodipodi:namedview
     id="namedview1"
     pagecolor="#ffffff"
     bordercolor="#666666"
     borderopacity="1.0"
     inkscape:showpageshadow="2"
     inkscape:pageopacity="0.0"
     inkscape:pagecheckerboard="0"
     inkscape:deskcolor="#d1d1d1"
     inkscape:document-units="mm"><inkscape:page
       x="0"
       y="0"
       width="640.95557"
       height="93.444717"
       id="page2"
       margin="0"
       bleed="0" /></sodipodi:namedview><defs
     id="defs1" /><g
     inkscape:label="Layer 1"
     inkscape:groupmode="layer"
     id="layer1"
     transform="translate(208.51517,-250.27766)"><path
       style="fill:#000000"
       d="m -208.23713,343.18273 c -0.33093,-0.61836 -0.38687,-92.03996 -0.0566,-92.56011 0.16714,-0.26326 5.06565,-0.31815 23.61001,-0.26458 l 23.39912,0.0676 0.0695,9.45885 0.0695,9.45886 h -13.10021 c -12.74744,0 -13.11447,0.0142 -13.62939,0.52916 -0.50483,0.50484 -0.52916,0.88195 -0.52916,8.20209 0,7.32014 0.0243,7.69724 0.52916,8.20208 0.50902,0.50901 0.88195,0.52917 9.79289,0.52917 h 9.26371 l -0.0694,9.59114 -0.0694,9.59115 -9.38293,0.0696 c -6.03042,0.0447 -9.48095,0.16759 -9.65729,0.34386 -0.18159,0.18153 -0.31909,6.50969 -0.40665,18.71582 l -0.1323,18.44156 -9.71239,0.0694 c -9.39005,0.0671 -9.72153,0.0523 -9.98802,-0.44563 z m 70.35607,0.24296 c -1.09803,-0.10536 -2.22913,-0.32616 -2.51354,-0.49067 -0.28441,-0.16451 -1.23149,-0.55594 -2.10461,-0.86983 -1.23271,-0.44317 -1.94915,-0.94354 -3.20568,-2.23889 -1.36243,-1.40453 -1.78059,-2.07771 -2.64583,-4.25942 l -1.02766,-2.59125 v -41.275 -41.275 h 9.92187 9.92188 l 0.13229,36.43693 c 0.12532,34.51601 0.15718,36.46184 0.60441,36.90938 0.4299,0.43018 1.22134,0.47933 8.84861,0.54947 7.68597,0.0707 8.87865,0.002 9.92353,-0.57215 0.0341,-0.0187 0.12338,-16.5242 0.19844,-36.67884 l 0.13647,-36.64479 h 9.789577 9.789585 l 0.07428,40.48125 c 0.05196,28.31789 -0.01239,40.99799 -0.214161,42.20104 -0.5881,3.50645 -3.488239,7.83055 -5.836215,8.7018 -0.49669,0.1843 -1.43885,0.57728 -2.0937,0.8733 -0.72207,0.3264 -2.179786,0.62698 -3.704156,0.76378 -3.00798,0.26995 -33.14609,0.25227 -35.99539,-0.0211 z m 277.94804,-0.0619 c -0.0699,-0.1837 -0.0965,-21.16993 -0.0591,-46.63608 l 0.0679,-46.30208 9.85646,-0.0694 9.85647,-0.0694 -0.0669,46.63604 -0.0669,46.63603 -9.73048,0.0694 c -7.64282,0.0545 -9.75774,-0.002 -9.85749,-0.26459 z m 37.50027,0.01 c -0.46182,-0.46181 -0.46182,-92.3011 0,-92.76291 0.42111,-0.42112 44.98156,-0.4543 47.57208,-0.0354 2.53966,0.41065 5.32612,1.90765 6.86224,3.68668 1.50152,1.73895 2.82476,4.36009 3.19053,6.31996 0.35805,1.91854 0.35721,35.98926 -9.4e-4,37.87778 -0.38603,2.03553 -1.88438,4.96275 -3.24404,6.33767 -2.28215,2.30776 -3.3161,2.83496 -6.76884,3.45134 -1.53599,0.27421 -1.99965,0.46632 -2.20309,0.91282 -0.33644,0.7384 -0.31987,0.77273 9.39023,19.44834 2.09964,4.03829 3.28933,6.36997 3.7917,7.43138 0.16619,0.35113 1.02939,2.057 1.91823,3.79084 0.88883,1.73383 1.61606,3.31141 1.61606,3.50573 0,0.28917 -2.02907,0.35257 -11.17864,0.34925 -6.14826,-0.002 -11.31452,-0.0915 -11.48058,-0.19843 -0.16606,-0.10692 -0.9222,-1.50408 -1.68032,-3.10481 -0.75812,-1.60073 -2.18558,-4.57729 -3.17214,-6.61458 -2.4037,-4.96373 -3.85906,-8.0078 -4.36415,-9.12813 -0.22962,-0.50932 -0.56313,-1.17965 -0.74114,-1.48961 -0.17801,-0.30997 -0.85943,-1.72133 -1.51428,-3.13637 -2.47839,-5.35551 -5.4408,-11.0791 -5.87302,-11.34711 -0.30297,-0.18788 -0.69029,-0.19363 -1.19062,-0.0177 l -0.74157,0.26077 -0.0681,17.03453 c -0.0482,12.047 -0.15448,17.13861 -0.36313,17.39 -0.40682,0.4902 -19.268,0.52646 -19.75647,0.038 z m 33.84378,-53.92459 c 1.74898,-0.32778 2.58802,-0.90729 3.27726,-2.26352 0.48729,-0.95886 0.52916,-1.56474 0.52916,-7.65585 0,-6.52638 -0.009,-6.63222 -0.66145,-7.9375 -1.0337,-2.06739 -1.18631,-2.10439 -9.05603,-2.1953 -4.52426,-0.0523 -6.98653,0.0174 -7.34219,0.20774 -0.52185,0.27929 -0.53512,0.52196 -0.53512,9.78708 v 9.50069 l 0.58804,0.41188 c 0.4872,0.34125 1.54721,0.41187 6.1816,0.41187 3.07645,0 6.23488,-0.12019 7.01873,-0.26709 z m -284.12713,7.47841 0.06688,-46.50194 9.904239,-0.0694 c 7.747671,-0.0543 9.950406,0.003 10.116261,0.26459 0.116612,0.1837 0.215668,16.70509 0.220125,36.7142 0.005,22.4457 0.104149,36.53222 0.258859,36.77709 0.215543,0.34114 2.100634,0.41545 13.423553,0.52916 l 13.172796,0.1323 v 9.26041 9.26042 l -23.6148,0.0676 -23.614799,0.0676 z m 58.654459,46.16979 c -0.02571,-0.48429 -0.02968,-91.5028 -0.004,-92.21189 l 0.02165,-0.5985 9.9880215,0.0693 9.9880209,0.0693 0.1322917,36.67031 c 0.1098404,30.447 0.1935724,36.74415 0.4933822,37.10537 0.3247297,0.39123 1.6835106,0.44195 13.4937497,0.50364 l 13.13266,0.0686 v 9.26041 9.26042 l -23.6140627,0.0676 c -18.7972239,0.0538 -23.6176603,-1.9e-4 -23.6316953,-0.26459 z m 91.034299,0.13564 c -0.363802,-0.0669 -0.78052,-0.21911 -0.926041,-0.33827 -0.145521,-0.11917 -1.055641,-0.51439 -2.022488,-0.87829 -2.123107,-0.79907 -3.70294,-2.24301 -5.108144,-4.66874 -1.959504,-3.3826 -1.865202,-1.35565 -1.865202,-40.09082 0,-27.99558 0.06889,-35.04199 0.358262,-36.64479 0.402288,-2.22823 1.818341,-5.05231 3.352857,-6.68671 1.352648,-1.44069 4.481485,-2.99907 6.718115,-3.3461 2.537551,-0.39371 34.840063,-0.38941 37.381973,0.005 2.22974,0.34596 5.32379,1.89623 6.71662,3.36537 1.15349,1.21667 2.86923,4.5808 3.25598,6.38416 0.17155,0.79994 0.29224,4.25277 0.29224,8.36111 v 6.99844 h -9.6193 -9.61929 l -0.14438,-2.82888 c -0.11757,-2.30374 -0.23225,-2.89312 -0.61773,-3.175 -0.60161,-0.4399 -16.511988,-0.50624 -17.322949,-0.0722 -0.500861,0.26805 -0.511772,0.85172 -0.511772,27.37507 0,26.52334 0.01091,27.10701 0.511772,27.37506 0.823897,0.44094 16.722289,0.36698 17.334449,-0.0806 0.38202,-0.27934 0.519,-0.85452 0.64588,-2.71198 l 0.16103,-2.35744 h 9.525 9.525 l 0.0792,6.2177 c 0.0921,7.22602 -0.0883,8.54211 -1.57727,11.50868 -1.66669,3.32067 -4.09038,5.17114 -8.15923,6.22949 -0.91926,0.23911 -37.082722,0.2955 -38.364592,0.0598 z m 184.282292,0.0129 c -0.29104,-0.0694 -1.46779,-0.49527 -2.61499,-0.94634 -1.70254,-0.66944 -2.4089,-1.13958 -3.84396,-2.55849 -1.25487,-1.24075 -1.89308,-2.11701 -2.2296,-3.06125 -0.25931,-0.72761 -0.65035,-1.72955 -0.86897,-2.22655 -0.21862,-0.497 -0.5082,-1.86621 -0.6435,-3.04271 -0.32494,-2.82551 -0.31779,-65.99875 0.008,-68.94637 0.22298,-2.01863 0.99595,-4.43132 2.13574,-6.66632 0.5689,-1.11554 3.04492,-3.24461 4.76847,-4.10029 0.93583,-0.4646 2.47541,-0.96971 3.4213,-1.12248 2.32803,-0.37598 35.24279,-0.37598 37.57083,0 3.74364,0.60461 7.51617,3.46418 8.88168,6.73231 0.3725,0.89151 0.94864,3.16897 1.43842,5.68595 0.26289,1.35097 0.34814,11.11255 0.10263,11.75232 -0.14241,0.37113 -1.26245,0.41851 -9.89356,0.41851 -8.63112,0 -9.75115,-0.0474 -9.89357,-0.41851 -0.0883,-0.23019 -0.1606,-1.41662 -0.1606,-2.63653 0,-1.92209 -0.0683,-2.25455 -0.51177,-2.4919 -0.69458,-0.37173 -16.27355,-0.37173 -16.96812,0 -0.50087,0.26805 -0.51178,0.85172 -0.51178,27.37507 0,26.52334 0.0109,27.10701 0.51178,27.37506 0.32029,0.17142 3.49453,0.27389 8.48406,0.27389 4.98952,0 8.16376,-0.10247 8.48406,-0.27389 0.44701,-0.23923 0.51177,-0.57131 0.51177,-2.62419 0,-1.29267 0.0723,-2.53864 0.1606,-2.76882 0.14243,-0.37116 1.2645,-0.41851 9.91683,-0.41851 h 9.75624 l 0.16378,0.65257 c 0.0901,0.35891 0.11093,3.18664 0.0463,6.28385 -0.0969,4.64563 -0.21636,6.00484 -0.68251,7.76553 -0.8242,3.11311 -1.29057,4.31777 -1.96245,5.06914 -2.24444,2.50998 -2.88771,3.02115 -4.99453,3.96883 l -2.21782,0.99761 -18.91771,0.0394 c -10.40474,0.0216 -19.15583,-0.0174 -19.44688,-0.0868 z m 62.63937,-46.31831 0.0669,-46.50194 h 9.92188 9.92187 l 0.1323,36.6703 c 0.1102,30.54819 0.19291,36.74335 0.49541,37.10782 0.3288,0.39614 1.59794,0.4375 13.42257,0.4375 h 13.05943 l 0.1451,0.59532 c 0.0798,0.32742 0.11184,4.52437 0.0712,9.32656 l -0.0739,8.73125 -23.6148,0.0676 -23.6148,0.0676 z m 59.00209,-6e-5 0.0669,-46.50188 h 23.8125 23.8125 l 0.0695,9.45885 0.0695,9.45886 h -13.49709 c -13.14431,0 -13.51092,0.0138 -14.02626,0.52916 -0.50467,0.50468 -0.52916,0.88195 -0.52916,8.15152 0,6.16297 0.0718,7.72068 0.3753,8.13593 0.35616,0.48739 0.85903,0.52034 9.85573,0.64589 l 9.48043,0.13229 0.0696,9.37497 c 0.0544,7.32418 -0.004,9.42137 -0.26458,9.58709 -0.1838,0.11667 -4.52694,0.21395 -9.65142,0.21618 -8.9387,0.004 -9.32839,0.0248 -9.59115,0.51582 -0.17188,0.32116 -0.27389,3.56223 -0.27389,8.70194 0,7.41021 0.0441,8.24355 0.46302,8.75077 0.46011,0.55708 0.55365,0.56101 14.88281,0.62463 l 14.41979,0.064 v 9.26041 9.26042 l -24.80542,0.0675 -24.80543,0.0675 z"
       id="path1" /></g></svg>
