<?xml version="1.0" encoding="UTF-8" standalone="no"?>
<!-- Created with Inkscape (http://www.inkscape.org/) -->

<svg
   width="567.08191mm"
   height="80.268257mm"
   viewBox="0 0 567.08191 80.268257"
   version="1.1"
   id="svg1"
   xmlns="http://www.w3.org/2000/svg"
   xmlns:svg="http://www.w3.org/2000/svg">
  <defs
     id="defs1" />
  <g
     id="layer1"
     transform="translate(253.59475,-68.444719)">
    <g
       id="g1">
      <path
         style="fill:#040404;stroke:none"
         d="m -147.07777,68.8819 h -19.31458 v 46.30209 11.64166 l -0.0136,4.37123 -5.27803,0.12669 h -12.17084 l 0.0495,-21.41162 c 0.28781,-4.58081 0.46364,-41.13364 0.16682,-41.12789 -1.3695,0.0266 -17.77172,0.0497 -19.02516,0 0,0 -0.24121,13.20958 -0.24121,19.41243 v 35.18958 c 0,5.97406 -0.8978,12.85889 1.33027,18.52083 1.51082,3.83927 5.58608,5.93662 9.51765,6.32795 6.45597,0.64261 13.08208,0.28664 19.57917,0.28664 4.2076,0 8.81541,0.52023 12.96458,-0.16169 4.45211,-0.73172 8.52889,-1.28007 11.00225,-5.65915 1.56031,-2.76251 1.43317,-5.9443 1.43317,-8.99583 V 120.74024 68.8819 m 252.14792,50.27084 c 1.27686,0.005 -0.31922,-0.0447 1.20648,2.2e-4 0.44147,0.013 3.48133,5.55366 4.14397,6.87894 2.23196,4.46394 4.76944,8.77752 7.02619,13.22917 0.85666,1.68985 1.78651,3.33971 2.64583,5.02708 0.58666,1.15199 1.82101,4.14173 2.2756,4.15439 1.51077,0.0421 3.79774,0.079 5.19151,0.079 h 10.58334 c 1.98883,0 4.4753,0.17443 6.48509,-0.0248 l -5.09603,-8.97106 -11.44323,-20.37291 c 2.94065,-0.3089 6.22721,-1.14421 8.46667,-3.19705 2.57956,-2.36461 3.13537,-5.43087 3.46164,-8.7092 0.64121,-6.44236 0.24252,-13.09326 0.24252,-19.57917 0,-5.91681 0.45046,-13.51621 -5.55625,-16.86719 -4.09493,-2.28445 -9.33074,-2.22009 -13.87138,-2.20085 l -23.43487,0.0993 c -1.98428,-0.0687 -11.587051,-0.0924 -11.587051,-0.0924 0,0 -0.05461,8.73409 -0.05461,12.71114 v 33.60208 24.34167 c 0.145098,2.44515 0.07802,9.3033 0.07802,9.3033 0.720241,0.0509 6.728331,-0.0429 9.976141,-0.0429 C 97.75613,148.5305 105,148.5 105,148.5 c 0,0 0.0701,-5.16744 0.0701,-7.38682 v -21.96041 m 100.80625,2.11666 c -6.39092,0.0136 -12.54581,0.0337 -18.78541,-0.002 v 6.35233 l 0.0429,3.8986 -4.54082,0.0702 H 170.95135 V 85.81565 h 11.64167 l 4.4843,0.0419 0.0136,3.39769 0.0565,4.57437 c 0.69217,-0.0559 18.48399,-0.0193 18.72889,-0.0765 V 83.69894 c 0,-3.67151 -0.10671,-7.64854 -2.66789,-10.58333 -2.71753,-3.11397 -5.94196,-3.83634 -9.76752,-4.02755 -5.26264,-0.26303 -10.67032,-0.20579 -15.875,-0.20579 -4.20766,0 -8.92844,-0.068 -12.96459,0.1617 -3.82162,0.21752 -7.52205,0.55202 -10.25997,3.80705 -4.15921,4.94478 -2.96919,12.52849 -2.96919,18.52084 0,14.70901 -0.40844,29.48289 0,44.18541 0.13329,4.79779 1.96706,9.52072 6.61458,11.57552 3.38897,1.49837 7.49037,1.38907 11.1125,1.38907 h 15.875 c 5.26405,0 11.89985,0.76776 16.40417,-2.5062 4.40596,-3.20248 4.49791,-8.45462 4.49791,-13.3688 V 121.26943 M 105.07009,102.21938 V 85.81522 h 9.525 c 1.45673,0 3.17946,-0.25125 4.49792,0.50712 0.87129,0.50116 1.43689,1.41152 1.56544,2.40329 0.37565,2.89821 0.0221,6.07193 0.0221,8.99584 0,1.48032 -0.066,2.84388 -1.34498,3.8438 -1.22557,0.95816 -3.02349,0.65411 -4.47586,0.65411 z M -82.228197,69.13535 h 19.31459 z M 63.496649,148.33562 H 53.253034 c 9.45e-4,-13.35532 0.01646,-26.79946 0.01646,-40.15478 l -0.03601,-39.538184 9.759446,0.0071 9.741442,0.0056 -0.018,39.705504 -0.108026,39.97469 z m 174.245861,-0.21971 -22.03428,0.0677 -0.1264,-0.33225 -0.1264,-0.33225 0.068,-39.42292 0.068,-39.42292 h 9.6573 9.65729 l 0.0672,31.28698 0.0672,31.28698 h 12.43805 12.43805 l -0.0699,8.40052 -0.0699,8.40052 z m 52.51976,2e-4 -23.22494,0.0676 -0.12637,-0.33218 -0.12637,-0.33217 0.068,-39.42292 0.068,-39.42292 22.55945,-0.0676 22.55945,-0.0676 -0.0699,8.40201 -0.0699,8.40201 -12.76615,0.0687 -12.76615,0.0687 v 6.8731 6.87311 l 8.92969,0.0697 8.92969,0.0697 v 8.59896 8.59896 l -8.92969,0.0697 -8.92969,0.0697 v 7.27012 7.27012 l 13.5599,0.0685 13.5599,0.0685 v 8.33438 8.33437 z m -534.06076,0.26638 -9.77805,-0.0105 c 0.0254,-0.55264 -0.0454,-26.66542 -0.006,-40.01106 l 0.068,-39.42293 22.15886,-0.0677 22.15885,-0.0677 v 8.46818 8.46818 h -12.43541 -12.43542 v 6.87565 6.87566 l 8.92969,0.0697 8.92969,0.0697 v 8.59896 8.59896 l -8.9276,0.0697 -8.92759,0.0697 -0.0682,15.67305 -0.0682,15.67304 z"
         id="path1349" />
      <path
         d="m -111.90425,148.64526 -22.16657,0.0677 -0.12639,-0.33224 -0.1264,-0.33224 0.068,-39.42292 0.068,-39.42292 9.72343,-0.0694 9.72344,-0.0694 v 31.3538 31.35379 l 12.5015,0.0687 12.501503,0.0687 v 8.33438 8.33437 z m 51.990513,1e-5 -22.03428,0.0677 -0.1264,-0.33225 -0.1264,-0.33225 0.068,-39.42292 0.068,-39.42292 h 9.6573 9.65729 l 0.0672,31.28698 0.0672,31.28698 h 12.43805 12.438048 l -0.0699,8.40052 -0.0699,8.40052 z"
         style="fill:#000000"
         id="path1" />
      <path
         d="m 43.422241,121.00493 c -6.39092,0.0136 -12.54581,0.0337 -18.78541,-0.002 v 6.35233 l 0.0429,3.8986 -4.54082,0.0702 H 8.497238 V 85.551177 h 11.641673 l 4.4843,0.0419 0.0136,3.39769 0.0565,4.57437 c 0.69217,-0.0559 18.48399,-0.0193 18.72889,-0.0765 v -10.05417 c 0,-3.67151 -0.10671,-7.64854 -2.66789,-10.58333 -2.71753,-3.11397 -5.384801,-3.95316 -9.207968,-4.18742 -5.14959,-0.31554 -11.173349,-0.12909 -16.378029,-0.12909 -4.207662,0 -9.211057,-0.2023 -13.36026,0 -3.823262,0.18641 -7.182913,0.79689 -9.920832,4.05192 -4.159208,4.94478 -2.969189,12.52849 -2.969189,18.52084 0,14.708983 -0.408439,29.482863 0,44.185383 0.13329,4.79779 1.967059,9.52072 6.614578,11.57552 3.388971,1.49837 7.490374,1.38907 11.112506,1.38907 h 15.875004 c 5.26405,0 11.89985,0.76776 16.40417,-2.5062 4.40596,-3.20248 4.49791,-8.45462 4.49791,-13.3688 v -11.37743"
         style="fill:#040404;stroke:none"
         id="path1-4" />
    </g>
  </g>
</svg>
