<?xml version="1.0" encoding="UTF-8" standalone="no"?>
<!-- Created with Inkscape (http://www.inkscape.org/) -->

<svg
   width="210mm"
   height="297mm"
   viewBox="0 0 210 297"
   version="1.1"
   id="svg1"
   inkscape:version="1.4.2 (ebf0e940, 2025-05-08)"
   sodipodi:docname="fun_leaves.svg"
   xmlns:inkscape="http://www.inkscape.org/namespaces/inkscape"
   xmlns:sodipodi="http://sodipodi.sourceforge.net/DTD/sodipodi-0.dtd"
   xmlns:xlink="http://www.w3.org/1999/xlink"
   xmlns="http://www.w3.org/2000/svg"
   xmlns:svg="http://www.w3.org/2000/svg">
  <sodipodi:namedview
     id="namedview1"
     pagecolor="#ffffff"
     bordercolor="#666666"
     borderopacity="1.0"
     inkscape:showpageshadow="2"
     inkscape:pageopacity="0.0"
     inkscape:pagecheckerboard="0"
     inkscape:deskcolor="#d1d1d1"
     inkscape:document-units="mm"
     inkscape:zoom="1.2989119"
     inkscape:cx="244.05042"
     inkscape:cy="282.54418"
     inkscape:window-width="2560"
     inkscape:window-height="1387"
     inkscape:window-x="0"
     inkscape:window-y="25"
     inkscape:window-maximized="1"
     inkscape:current-layer="layer1" />
  <defs
     id="defs1">
    <linearGradient
       id="linearGradient25"
       inkscape:collect="always">
      <stop
         style="stop-color:#6c5129;stop-opacity:1;"
         offset="0"
         id="stop25" />
      <stop
         style="stop-color:#42aa72;stop-opacity:1;"
         offset="1"
         id="stop26" />
    </linearGradient>
    <linearGradient
       id="linearGradient19"
       inkscape:collect="always">
      <stop
         style="stop-color:#84e5e0;stop-opacity:1;"
         offset="0"
         id="stop19" />
      <stop
         style="stop-color:#84e5e0;stop-opacity:0;"
         offset="1"
         id="stop20" />
    </linearGradient>
    <linearGradient
       id="linearGradient17"
       inkscape:collect="always">
      <stop
         style="stop-color:#56c7cc;stop-opacity:1;"
         offset="0"
         id="stop17" />
      <stop
         style="stop-color:#56c7cc;stop-opacity:0;"
         offset="1"
         id="stop18" />
    </linearGradient>
    <linearGradient
       id="linearGradient14"
       inkscape:collect="always">
      <stop
         style="stop-color:#e2f9e1;stop-opacity:0.96851575;"
         offset="0"
         id="stop15" />
      <stop
         style="stop-color:#428dbc;stop-opacity:0.79460269;"
         offset="1"
         id="stop16" />
    </linearGradient>
    <linearGradient
       id="linearGradient13"
       inkscape:collect="always">
      <stop
         style="stop-color:#83ea83;stop-opacity:1;"
         offset="0"
         id="stop13" />
      <stop
         style="stop-color:#b3d8f2;stop-opacity:0.994003;"
         offset="1"
         id="stop14" />
    </linearGradient>
    <linearGradient
       id="linearGradient10"
       inkscape:collect="always">
      <stop
         style="stop-color:#afe0cc;stop-opacity:1;"
         offset="0"
         id="stop11" />
      <stop
         style="stop-color:#a5d5ea;stop-opacity:0.92803597;"
         offset="1"
         id="stop12" />
    </linearGradient>
    <linearGradient
       id="linearGradient9"
       inkscape:collect="always">
      <stop
         style="stop-color:#31b963;stop-opacity:1;"
         offset="0"
         id="stop9" />
      <stop
         style="stop-color:#2b5895;stop-opacity:0.69415295;"
         offset="1"
         id="stop10" />
    </linearGradient>
    <radialGradient
       inkscape:collect="always"
       xlink:href="#linearGradient9"
       id="radialGradient10"
       cx="129.42676"
       cy="75.126823"
       fx="129.42676"
       fy="75.126823"
       r="15.45616"
       gradientTransform="matrix(1.2023541,-0.17251221,0.05703889,0.39754254,-31.376964,68.679386)"
       gradientUnits="userSpaceOnUse" />
    <linearGradient
       inkscape:collect="always"
       xlink:href="#linearGradient10"
       id="linearGradient12"
       x1="126.38061"
       y1="60.810837"
       x2="137.31694"
       y2="47.672436"
       gradientUnits="userSpaceOnUse" />
    <radialGradient
       inkscape:collect="always"
       xlink:href="#linearGradient13"
       id="radialGradient14"
       cx="142.71924"
       cy="56.356873"
       fx="142.71924"
       fy="56.356873"
       r="17.633324"
       gradientTransform="matrix(1.3334371,-0.38082962,0.13049036,0.45689903,-55.410256,91.825368)"
       gradientUnits="userSpaceOnUse" />
    <linearGradient
       inkscape:collect="always"
       xlink:href="#linearGradient14"
       id="linearGradient16"
       x1="137.31694"
       y1="40.614004"
       x2="150.33616"
       y2="40.614004"
       gradientUnits="userSpaceOnUse" />
    <linearGradient
       inkscape:collect="always"
       xlink:href="#linearGradient17"
       id="linearGradient18"
       x1="148.88758"
       y1="36.961496"
       x2="175.05748"
       y2="36.961496"
       gradientUnits="userSpaceOnUse" />
    <linearGradient
       inkscape:collect="always"
       xlink:href="#linearGradient19"
       id="linearGradient20"
       x1="153.09425"
       y1="30.924833"
       x2="171.38176"
       y2="30.924833"
       gradientUnits="userSpaceOnUse" />
    <radialGradient
       inkscape:collect="always"
       xlink:href="#linearGradient9"
       id="radialGradient10-0"
       cx="129.42676"
       cy="75.126823"
       fx="129.42676"
       fy="75.126823"
       r="15.45616"
       gradientTransform="matrix(1.2193787,-0.19622494,0.05784653,0.45218691,-107.74492,97.116395)"
       gradientUnits="userSpaceOnUse" />
    <radialGradient
       inkscape:collect="always"
       xlink:href="#linearGradient13"
       id="radialGradient14-8"
       cx="142.71924"
       cy="56.356873"
       fx="142.71924"
       fy="56.356873"
       r="17.633324"
       gradientTransform="matrix(1.3334371,-0.38082962,0.13049036,0.45689903,-129.2217,120.61749)"
       gradientUnits="userSpaceOnUse" />
    <linearGradient
       inkscape:collect="always"
       xlink:href="#linearGradient10"
       id="linearGradient21"
       gradientUnits="userSpaceOnUse"
       x1="126.38061"
       y1="60.810837"
       x2="137.31694"
       y2="47.672436"
       gradientTransform="translate(-73.811448,28.79212)" />
    <linearGradient
       inkscape:collect="always"
       xlink:href="#linearGradient14"
       id="linearGradient22"
       gradientUnits="userSpaceOnUse"
       x1="137.31694"
       y1="40.614004"
       x2="150.33616"
       y2="40.614004"
       gradientTransform="translate(-73.811448,28.79212)" />
    <linearGradient
       inkscape:collect="always"
       xlink:href="#linearGradient17"
       id="linearGradient23"
       gradientUnits="userSpaceOnUse"
       x1="148.88758"
       y1="36.961496"
       x2="175.05748"
       y2="36.961496"
       gradientTransform="translate(-73.811448,28.79212)" />
    <linearGradient
       inkscape:collect="always"
       xlink:href="#linearGradient19"
       id="linearGradient24"
       gradientUnits="userSpaceOnUse"
       x1="153.09425"
       y1="30.924833"
       x2="171.38176"
       y2="30.924833"
       gradientTransform="translate(-73.811448,28.79212)" />
    <radialGradient
       inkscape:collect="always"
       xlink:href="#linearGradient25"
       id="radialGradient26"
       cx="69.492933"
       cy="86.060062"
       fx="69.492933"
       fy="86.060062"
       r="34.296051"
       gradientTransform="matrix(1,0,0,1.1529274,0,-13.160944)"
       gradientUnits="userSpaceOnUse" />
  </defs>
  <g
     inkscape:label="Layer 1"
     inkscape:groupmode="layer"
     id="layer1">
    <path
       style="fill:#010101;stroke:none;stroke-width:1"
       d="m 57.352719,273.81408 c 0,-16.47528 -8.78259,-30.75588 -22.5328,-39.73177 -3.63296,-2.37152 -7.66541,-3.96783 -11.75626,-5.38827 -1.99896,-0.69409 -4.467959,-1.27394 -5.932539,0.70755 -1.37716,1.86321 -1.84965,3.99649 -2.34037,6.20469 -0.92708,4.17186 -1.85052,8.05288 -1.85052,12.40936 0,3.32097 -0.32114,6.82033 0,10.12345 0.68417,7.03707 3.67411,13.24956 7.184379,19.26717 2.14321,3.67411 4.50025,6.99969 7.83748,9.68802 4.50532,3.62928 9.15276,6.48095 14.36875,8.87162 1.64311,0.75309 3.48506,1.26444 5.22501,1.79608 0.83086,0.25389 1.66889,0.3403 2.12265,1.19739 0.33483,0.63245 0.16328,1.59579 0.16328,2.28594 0,2.12784 -0.44951,4.11034 -0.65313,6.2047 -0.49043,5.04445 0.16916,10.37036 0.65313,15.34843 0.43673,4.49204 1.53403,9.14706 2.8302,13.38906 0.3859,1.26296 0.46347,2.6481 0.81641,3.91874 0.57671,2.07616 1.62839,4.16095 2.3948,6.20468 2.54872,6.79661 5.63895,13.36045 10.06901,19.26719 14.91263,19.88351 38.248061,31.92235 62.591131,34.28905 3.98183,0.38711 8.75408,0.38711 12.73593,0 1.97673,-0.19218 3.9138,-0.7887 5.87813,-0.97968 10.5936,-1.02994 21.63397,-5.35031 30.3703,-11.53854 4.17812,-2.9595 8.0271,-6.8987 11.42968,-10.66771 4.95155,-5.48481 9.37069,-11.21236 12.4638,-17.96093 3.97481,-8.6722 5.27428,-13.22504 6.46358,-23.63495 0.18999,-1.66291 0.38959,-5.34363 0.25485,-7.00897 -0.0706,-0.8728 0.13547,-3.18868 -1.90641,-3.2189 -1.99536,-0.0295 -1.40626,2.72244 -1.4894,3.57746 -0.28308,2.91154 -0.48147,5.1411 -0.76454,8.05264 -0.11874,1.22066 -0.62209,3.07782 -0.87084,4.27179 -0.9719,4.66512 -2.08758,9.36407 -4.08203,13.71562 -6.55401,14.29966 -17.61891,26.51749 -31.62213,33.90805 -7.46058,3.93755 -16.45227,6.42539 -24.81874,7.23882 -2.66382,0.25899 -5.48587,0 -8.16406,0 -2.57107,0 -5.28027,0.24862 -7.83749,0 -3.02654,-0.29426 -6.25413,-1.00772 -9.14375,-1.85053 -5.61468,-1.63762 -11.31151,-2.86511 -16.65468,-5.38829 -14.082131,-6.6499 -26.263761,-16.8614 -34.833331,-29.9893 -4.77958,-7.32195 -6.95858,-15.60062 -9.36147,-23.83906 -1.4056,-4.81922 -2.01806,-9.70073 -2.50364,-14.69531 -1.55148,-15.95817 0.6694,-32.25334 7.89193,-46.69842 1.70262,-3.40526 3.97317,-6.70708 6.20468,-9.79687 0.75408,-1.0441 1.36418,-2.80599 2.55807,-3.4289 0.77996,-0.40693 2.08359,-0.16329 2.93906,-0.16329 2.41282,0 5.14241,0.3517 7.51094,-0.10886 8.94481,-1.73924 18.28777,-4.69905 25.798441,-10.12343 11.58575,-8.3675 18.49484,-19.72924 22.42396,-33.20052 0.68737,-2.35668 0.52548,-5.07851 0.76196,-7.51094 0.31611,-3.25119 0.37238,-6.49987 0.32657,-9.79686 -0.0175,-1.26476 -0.16332,-3.31412 -1.30625,-4.08203 -1.76039,-1.18278 -4.53153,-0.81641 -6.53124,-0.81641 -6.0573,0 -11.5728,1.29557 -17.30781,3.04791 -14.362771,4.38858 -27.100861,14.83854 -32.982811,28.95521 -1.71765,4.12233 -2.57919,8.51639 -3.80989,12.73593 -1.23568,4.2366 -1.08855,8.98656 -1.08855,13.38906 0,1.64217 0.56493,4.43425 0,5.93256 -1.08421,2.87556 -4.02158,5.09629 -5.55156,7.78306 -1.2945,2.27326 -2.3848,6.42232 -4.57187,7.8375 m 60.414051,-76.03461 5.225,-0.0544 1.30624,0.97969 -2.93906,3.59218 -9.03488,9.14375 -4.02761,4.24532 -1.63281,1.14296 -0.65313,-3.42891 v -8.16406 l 0.10887,-3.91874 3.15677,-1.74166 8.49061,-1.7961 m 9.79689,1.90494 c 0.98485,2.33912 -0.0506,5.14153 -0.54428,7.51094 -0.18182,0.87269 -0.0237,1.7362 -0.10887,2.6125 -0.35514,3.65286 -1.17813,7.69462 -2.50365,11.10312 -0.65975,1.69645 -0.92929,4.72232 -2.72134,5.71484 -1.08476,0.60079 -3.35156,0.16328 -4.57188,0.16328 h -10.77656 c -0.88078,0 -4.30816,0.50749 -4.51746,-0.65313 -0.26539,-1.47169 2.89021,-3.37002 3.86433,-4.2453 4.27317,-3.83965 8.30933,-7.81948 12.35494,-11.8651 2.27123,-2.27123 4.47349,-4.66158 6.58569,-7.07552 1.12394,-1.28451 1.10784,-2.88011 2.93906,-3.26563 m -26.12499,2.34037 c 0.63239,-0.14931 1.33573,-0.0741 1.57838,0.5987 0.40658,1.12732 -0.16393,2.47915 -0.27214,3.59218 -0.1761,1.81138 0,3.73038 0,5.55157 0,1.49974 -0.14502,3.08015 0,4.57186 0.0829,0.85265 0.60986,1.74844 0.48984,2.61251 -0.48336,3.48024 -4.210531,5.68181 -6.313541,8.16405 -1.03461,1.22118 -2.1823,2.14369 -3.32005,3.26563 -0.52881,0.52145 -1.17265,1.45111 -1.95938,1.57838 -1.15508,0.18684 -1.27426,-1.79052 -1.30624,-2.55806 -0.1265,-3.03588 0,-6.1049 0,-9.14376 v -4.08203 -4.08202 c 0,-1.01437 -0.31627,-2.67307 0.16328,-3.59219 0.52343,-1.00327 1.85654,-1.51924 2.77578,-2.06823 2.41407,-1.44174 5.39748,-3.75536 8.164071,-4.40859 m 0.65311,45.6643 c -0.0633,2.40774 -4.219011,3.36571 -6.204691,4.0276 -3.61717,1.20574 -7.03232,2.92101 -10.77656,3.70105 -1.91208,0.39836 -3.95648,0.17063 -5.87812,0.54426 -1.90413,0.37026 -3.60061,0.54428 -5.55156,0.54428 -0.76744,0 -1.6477,0.14216 -2.28594,-0.38099 -0.8004,-0.65605 -0.65312,-1.63503 -0.65312,-2.55807 0,-1.98658 0.32656,-3.90625 0.32656,-5.87813 0,-1.87215 0.47769,-3.4206 0.65313,-5.22499 0.77628,-7.98479 3.28942,-15.57863 7.89192,-22.20625 1.5171,-2.18462 2.62895,-4.58879 4.51744,-6.53124 0.55932,-0.5753 1.329,-1.87537 2.28595,-1.57838 0.90361,0.28044 0.65311,1.49709 0.65311,2.2315 v 6.53125 10.45 c 0,1.37504 0.33879,3.28085 -0.16327,4.57187 -1.53393,3.94441 -5.38324,6.89366 -8.32734,9.79687 -1.76226,1.73778 -3.5685,3.36143 -5.22501,5.22501 -0.53367,0.6004 -1.37696,1.7092 -0.8164,2.55806 0.58452,0.88513 1.53881,0.15186 2.12266,-0.32656 1.53,-1.25375 2.60369,-2.95391 4.13645,-4.19088 2.07522,-1.67475 4.78434,-1.30626 7.29323,-1.30626 h 16.001561 m 17.63437,-17.3078 c -1.29664,4.10603 -4.53393,7.473 -7.51092,10.44999 -1.43867,1.43868 -2.83949,3.02302 -4.89844,3.53776 -1.27981,0.31995 -2.92645,0.0544 -4.24532,0.0544 h -8.490631 -7.51094 c -0.65681,0 -2.02193,0.26639 -2.44921,-0.381 -0.59496,-0.90143 0.6097,-1.72913 1.14297,-2.2315 1.90188,-1.79163 3.70388,-3.70387 5.55156,-5.55157 1.83247,-1.83246 3.53003,-4.64964 5.87813,-5.82368 1.63368,-0.81685 4.087591,-0.381 5.878121,-0.381 h 11.10313 c 1.75716,0 3.95363,-0.34623 5.55155,0.32656 m -87.518721,22.20625 c -2.10369,-0.22744 -2.25364,-3.56036 -2.99349,-5.225 -2.00425,-4.50954 -3.81565,-11.00362 -8.10962,-13.71562 -0.93546,3.23155 1.55952,6.61126 2.8302,9.47031 2.13978,4.81453 4.33327,9.64621 6.69453,14.36874 0.81679,1.6336 2.17817,3.09394 2.55807,4.89844 -1.49611,-0.0394 -2.57076,-0.65446 -3.91875,-1.1974 -2.77837,-1.11907 -5.66921,-2.10743 -8.49062,-3.04791 -1.266169,-0.42205 -3.741559,-0.69945 -4.408589,-1.95937 -0.48272,-0.9118 -0.16328,-2.58328 -0.16328,-3.59219 0,-2.03546 -0.19684,-4.18015 0,-6.20468 0.10701,-1.10038 0.54613,-2.16525 0.65312,-3.26564 0.29977,-3.08335 0.39566,-5.88078 1.57838,-8.81718 0.3476,-0.86303 0.63061,-2.22665 1.469529,-2.77577 1.13499,-0.7429 3.10179,0.34218 4.13647,0.8164 2.88829,1.32382 5.61313,2.85758 8.49061,4.13647 1.40917,0.62629 3.07302,1.3144 3.26563,3.04791 0.15548,1.39924 -0.50796,2.61244 -0.87083,3.91875 -0.32654,1.17553 -0.47098,2.44058 -0.87084,3.59217 -0.62162,1.79029 -1.69914,3.6341 -1.85052,5.55157 m 8.16406,17.30781 c -1.65085,-0.98159 -2.19657,-3.21086 -2.99348,-4.89844 -1.34759,-2.85373 -3.57775,-6.49792 -3.2112,-9.79687 0.2435,-2.19154 1.67287,-4.4521 2.39479,-6.53125 0.566,-1.63008 0.99613,-3.28605 1.57837,-4.89844 0.20132,-0.55747 0.26312,-1.38299 0.92527,-1.57837 0.8157,-0.2407 1.42856,0.42393 1.95938,0.92525 1.19557,1.12916 2.1818,2.37291 3.26562,3.59219 1.11596,1.25544 2.5128,2.7773 2.6125,4.57187 0.11676,2.10171 -1.84565,4.55728 -2.50364,6.53124 -0.53057,1.59172 -1.24605,3.26039 -1.63282,4.89844 -0.57921,2.45311 -0.90082,5.08176 -2.39479,7.18438 M 144.21833,245.512 c -4.04198,0.95435 -6.3027,3.58134 -9.14376,6.42239 l -10.12343,10.12345 C 113.43272,273.57625 101.8028,285.17371 90.662089,297 c -3.58327,3.80378 -7.40773,7.40774 -11.10313,11.10313 -1.68824,1.68824 -4.07799,3.43402 -5.225,5.55156 -0.68686,1.26805 -0.21689,2.49612 0.54427,3.59219 1.52546,2.19666 4.51636,4.91646 7.29323,5.225 2.09088,0.23232 3.2234,-1.26401 4.57188,-2.61251 2.76603,-2.76603 5.45881,-5.62209 8.21849,-8.38176 11.931261,-11.93126 24.213441,-23.83885 35.867431,-36.03073 3.64643,-3.81471 7.52196,-7.51794 11.10312,-11.42967 1.17287,-1.28114 2.82613,-3.84441 4.89844,-3.21119 1.47686,0.45127 2.84797,2.46697 3.91875,3.53775 2.92599,2.92599 5.74628,6.04483 8.81718,8.81718 12.41235,11.20557 23.32923,24.14684 35.81302,35.26875 3.30208,2.94184 6.42237,6.31913 9.47031,9.52473 1.79821,1.89121 3.04332,4.4505 5.98698,3.75547 1.33759,-0.31583 2.30154,-0.88643 3.26562,-1.85053 1.52662,-1.52662 3.16784,-3.89397 2.55807,-6.20468 -0.50444,-1.91148 -2.76398,-3.4813 -4.19088,-4.68072 -1.8133,-1.52423 -3.52918,-3.42034 -5.225,-5.11615 -14.69962,-14.69964 -29.9351,-28.86236 -44.41249,-43.75936 -3.53103,-3.63339 -7.18558,-7.18556 -10.77656,-10.77656 -2.33445,-2.33445 -4.21402,-4.66543 -7.83749,-3.8099 m -92.743731,48.22238 -2.06824,-3.91875 -2.6125,-5.87812 -3.21119,-6.85781 -1.25183,-3.26562 0.70755,-1.95937 2.77578,-7.51094 3.04793,-9.47032 c 2.48535,0.53737 2.87837,4.4301 3.37448,6.53126 0.23611,1 0.67375,1.92549 0.87082,2.93906 0.84455,4.34344 2.06858,9.23346 1.63282,13.71562 -0.30916,3.17991 -1.19782,6.33731 -1.85051,9.4703 -0.4233,2.03186 -0.47736,4.32921 -1.41511,6.20469 M 17.83866,260.47945 c 0.78925,-0.19407 1.92805,0.44827 2.612509,0.76198 1.51755,0.69554 3.08761,1.25106 4.57187,2.0138 2.93003,1.50573 6.80567,1.38216 9.47031,3.42891 1.58234,1.21542 2.44063,3.42352 3.26563,5.17057 1.18388,2.50703 2.53532,4.93325 3.53776,7.51092 0.26151,0.67249 0.8657,2.29692 -0.27214,2.55806 -1.49471,0.34305 -4.19483,-1.66619 -5.55157,-2.2315 -2.47461,-1.03108 -4.93384,-1.7878 -7.51094,-2.50364 -1.55683,-0.43246 -3.56268,-0.58326 -4.89843,-1.52394 -1.26065,-0.8878 -1.93179,-2.43746 -2.50364,-3.8099 -1.157419,-2.77782 -2.629969,-5.48142 -3.047909,-8.49063 -0.10689,-0.76926 -0.87972,-2.588 0.32655,-2.88463 m 127.4682,4.35417 c -1.69644,1.05295 -3.25618,3.31061 -4.68072,4.73514 -3.40916,3.40917 -6.9195,6.7449 -10.12344,10.34115 -0.99806,1.12028 -2.23768,1.97251 -3.26563,3.04791 -7.16838,7.49923 -14.52936,14.85594 -21.87967,22.20625 -3.02396,3.02395 -5.832711,6.26764 -8.926051,9.19817 -2.05566,1.94748 -4.51607,3.99958 -5.33384,6.80339 -0.39895,1.36781 -0.10886,3.15458 -0.10886,4.57187 v 9.14375 30.04373 10.12344 c 0,1.46871 -0.34537,3.31477 0.54426,4.57187 1.35646,1.91673 3.68956,2.82382 5.66043,3.91875 4.315241,2.39736 8.997031,4.22973 13.715621,5.60599 5.82367,1.69858 11.53736,3.27155 17.63437,3.86432 15.2948,1.48699 30.85807,-3.0013 43.75935,-10.88541 3.52127,-2.15189 6.21219,-5.01992 9.25261,-7.72864 6.79801,-6.05639 11.52366,-13.95497 15.07629,-22.20625 1.93927,-4.50406 3.86367,-9.46429 4.4086,-14.36874 0.10751,-0.96805 0.50036,-3.92328 0.59465,-4.89292 0.50747,-5.21946 0.89991,-10.46589 -0.54683,-13.26991 -1.35364,-2.62355 -4.72112,-5.97523 -6.79678,-7.90774 -5.19458,-4.83633 -10.10556,-10.05114 -15.13073,-15.0763 -8.35183,-8.35183 -16.57971,-16.74972 -25.14529,-24.81873 -2.01862,-1.9016 -3.90775,-3.93512 -5.87813,-5.87813 -0.69361,-0.68398 -1.73376,-1.82352 -2.83021,-1.14296 m -97.097891,29.22732 -0.32656,0.32656 c -4.36492,-0.80405 -8.35363,-3.49032 -12.08281,-5.76926 -2.01882,-1.23372 -4.03915,-2.33901 -5.8237,-3.91876 -1.52712,-1.35188 -3.38664,-2.65453 -3.97317,-4.68072 l 0.32656,-0.32657 11.42969,4.13647 6.20468,2.12265 2.01379,3.53775 2.23152,4.57188 m 61.393751,27.48568 c 1.89668,-0.61363 4.85855,-0.0544 6.85781,-0.0544 h 15.67498 c 1.7297,0 6.07575,-0.80598 7.02109,0.97969 0.37269,0.70397 0.16329,1.84135 0.16329,2.6125 v 5.55155 20.24687 19.9203 c 0,1.68883 0.77272,5.7668 -0.97969,6.69454 -1.51677,0.80299 -4.82358,0.16328 -6.53125,0.16328 h -16.32811 -4.89844 c -0.5689,0 -1.41003,0.15521 -1.79609,-0.38099 -0.414,-0.57499 -0.16328,-1.88432 -0.16328,-2.55808 v -6.20468 -24.16562 -17.3078 c 0,-1.39717 -0.67593,-4.9615 0.97969,-5.49713 m 55.18904,5.82369 v 11.10312 H 154.0152 v -11.10312 h 10.77656 m 13.38905,0 v 11.10312 h -11.10312 v -11.10312 h 11.10312 m 0,13.38906 v 11.10309 h -11.10312 v -7.51094 l -0.0982,-3.83379 11.20132,0.24161 m -13.38905,0 v 11.10312 H 154.0152 v -11.10312 h 10.77656 m -50.94374,5.98699 c -3.44941,0.81445 -4.6552,6.49384 -1.57838,8.54504 0.99085,0.66057 2.74096,0.66181 3.86432,0.38098 3.46919,-0.86727 4.99805,-5.93546 1.95937,-8.27289 -1.12766,-0.86746 -2.89373,-0.97226 -4.24531,-0.65313 z"
       id="path2-2"
       sodipodi:nodetypes="csscssssssssssssssssscssssssscssssssssssssssscssscsscsssssccccccccccccccscssssscssccsssccssssscsssccsscsssscsssscssssscssccssscsssscssccccsscsssssssccssssccssssccsssscccssssssscsssscsssssscsscccccccccscssccsssssssssssccsscssssccssssssssccssssscccsscccccccssssccssscsssccsccccccccccccccccccccccsssss"
       inkscape:export-filename="complete_logo.png"
       inkscape:export-xdpi="100"
       inkscape:export-ydpi="100" />
    <path
       style="fill:url(#radialGradient14);stroke:none;stroke-width:1;fill-opacity:1"
       d="m 166.80988,54.029127 c -1.29664,4.106022 -4.53393,7.472999 -7.51092,10.449989 -1.43867,1.438681 -2.8395,3.023015 -4.89845,3.53776 -1.27981,0.319943 -2.92645,0.05443 -4.24532,0.05443 h -8.49063 -7.51094 c -0.65681,0 -2.02193,0.266388 -2.44921,-0.381001 -0.59496,-0.901436 0.6097,-1.729137 1.14297,-2.231502 1.90188,-1.791628 3.70388,-3.703866 5.55156,-5.551565 1.83247,-1.832469 3.53003,-4.649648 5.87813,-5.823681 1.63368,-0.816853 4.08759,-0.381002 5.87812,-0.381002 h 11.10314 c 1.75716,0 3.95363,-0.346232 5.55155,0.326559"
       id="path6" />
    <path
       d="m 118.26307,79.666455 c 0.39884,0.449692 1.14223,0.487826 2.50165,0.487826 1.95095,0 3.64747,-0.17441 5.5516,-0.54467 1.92164,-0.37363 3.9656,-0.145793 5.87768,-0.544153 3.74424,-0.78004 7.15943,-2.495326 10.7766,-3.701066 1.98568,-0.66189 6.14149,-1.619931 6.20479,-4.027661 h -16.00161 c -2.50889,0 -5.37025,-0.541327 -7.29309,1.30638 -4.39132,4.219735 -6.72963,6.381932 -7.61762,7.023344 z"
       style="fill:url(#radialGradient10);fill-opacity:1"
       id="path9" />
    <path
       d="m 133.23631,35.752856 c -0.83523,-0.01626 -1.5147,1.100244 -2.02158,1.621607 -1.88849,1.942453 -3.00045,4.346759 -4.51755,6.531384 -4.6025,6.627623 -7.11575,14.221087 -7.89203,22.20588 -0.17544,1.804389 -0.65319,3.35285 -0.65319,5.225004 0,1.97187 -0.32659,3.891614 -0.32659,5.878194 0,1.030152 0.0499,1.700447 0.24029,2.135787 0.85357,-1.357012 3.9827,-5.213375 7.59747,-9.973035 2.50075,-3.292806 6.79321,-5.852409 8.32714,-9.796818 0.50206,-1.291015 0.1633,-3.196771 0.1633,-4.571814 V 44.559037 38.027653 c 0,-0.734404 0.25042,-1.950942 -0.65319,-2.231388 -0.0897,-0.02784 -0.17766,-0.04173 -0.26407,-0.04341 z"
       style="fill:url(#linearGradient12)"
       id="path7"
       sodipodi:nodetypes="sssssscssscssss" />
    <path
       style="fill:url(#linearGradient16);stroke:none;stroke-width:1"
       d="m 148.52239,25.672627 c 0.63239,-0.14931 1.33573,-0.07413 1.57838,0.598691 0.40658,1.127322 -0.16393,2.479155 -0.27214,3.592188 -0.1761,1.811375 0,3.730377 0,5.551565 0,1.499738 -0.14502,3.080148 0,4.571864 0.0829,0.852646 0.60986,1.748441 0.48984,2.612504 -0.48336,3.480244 -4.21053,5.681816 -6.31354,8.164056 -1.03461,1.221181 -2.1823,2.143685 -3.32005,3.265632 -0.52881,0.521447 -1.17265,1.45111 -1.95938,1.578373 -1.15508,0.186841 -1.27426,-1.790515 -1.30624,-2.558059 -0.1265,-3.035877 0,-6.104894 0,-9.143757 v -4.082027 -4.082028 c 0,-1.014369 -0.31627,-2.673068 0.16328,-3.59219 0.52343,-1.003262 1.85654,-1.519241 2.77578,-2.068223 2.41407,-1.441743 5.39748,-3.755365 8.16407,-4.408589"
       id="path4" />
    <path
       style="fill:url(#linearGradient18);stroke:none;stroke-width:1;fill-opacity:1"
       d="m 174.64741,23.332256 c 0.98485,2.339114 -0.0506,5.141525 -0.54428,7.510937 -0.18182,0.87269 -0.0237,1.736197 -0.10887,2.612504 -0.35514,3.652854 -1.17813,7.694619 -2.50365,11.103116 -0.65975,1.696454 -0.92929,4.722321 -2.72134,5.714844 -1.08476,0.600785 -3.35156,0.163279 -4.57188,0.163279 h -10.77657 c -0.88078,0 -4.30816,0.507488 -4.51746,-0.653129 -0.26539,-1.471696 2.89021,-3.370025 3.86433,-4.245307 4.27318,-3.839645 8.30934,-7.819477 12.35495,-11.865094 2.27123,-2.271233 4.47349,-4.661583 6.58569,-7.075526 1.12394,-1.284504 1.10784,-2.880104 2.93906,-3.265624"
       id="path3" />
    <path
       style="fill:url(#linearGradient20);stroke:none;stroke-width:1;fill-opacity:1"
       d="m 164.85052,21.427312 5.225,-0.05443 1.30624,0.979687 -2.93906,3.592186 -9.03488,9.143745 -4.02762,4.24532 -1.63281,1.142966 -0.65313,-3.428911 v -8.164059 l 0.10887,-3.918748 3.15677,-1.741659 8.49062,-1.796094"
       id="path2" />
    <path
       style="fill:#010101;stroke:none;stroke-width:1"
       d="m 101.62785,169.63017 c 1.70262,-3.40526 3.97317,-6.70708 6.20468,-9.79687 0.75408,-1.0441 1.36418,-2.80599 2.55807,-3.4289 0.77996,-0.40693 2.08359,-0.16329 2.93906,-0.16329 2.41282,0 5.14241,0.3517 7.51094,-0.10886 8.94481,-1.73924 18.28777,-4.69905 25.79844,-10.12343 11.58576,-8.3675 18.49485,-19.72924 22.42397,-33.20052 0.68737,-2.35668 0.52548,-5.07851 0.76196,-7.51094 0.31611,-3.25119 0.37238,-6.499866 0.32657,-9.796863 -0.0175,-1.264752 -0.16332,-3.314119 -1.30625,-4.082031 -1.76039,-1.182772 -4.53153,-0.816405 -6.53124,-0.816405 -6.0573,0 -11.5728,1.295566 -17.30782,3.047909 -14.36277,4.388581 -27.10086,14.83854 -32.98281,28.95521 -1.71765,4.12233 -2.57919,8.51639 -3.80989,12.73593 -1.23568,4.23661 -1.08855,8.98656 -1.08855,13.38906 0,1.64217 0.97384,4.66145 0,5.93256 -5.05517,6.59834 -4.06699,5.13887 -5.55156,7.78306"
       id="path1-6" />
    <path
       style="fill:url(#radialGradient14-8);fill-opacity:1;stroke:none;stroke-width:1"
       d="m 92.998432,82.821247 c -1.29664,4.106022 -4.53393,7.472999 -7.51092,10.449989 -1.43867,1.438681 -2.8395,3.023015 -4.89845,3.53776 -1.27981,0.319943 -2.92645,0.05443 -4.24532,0.05443 h -8.49063 -7.51094 c -0.65681,0 -2.02193,0.266388 -2.44921,-0.381001 -0.59496,-0.901436 0.6097,-1.729137 1.14297,-2.231502 1.90188,-1.791628 3.70388,-3.703866 5.55156,-5.551565 1.83247,-1.832469 3.53003,-4.649648 5.87813,-5.823681 1.63368,-0.816853 4.08759,-0.381002 5.87812,-0.381002 h 11.10314 c 1.75716,0 3.95363,-0.346232 5.55155,0.326559"
       id="path6-7" />
    <path
       d="m 44.013922,109.61369 c 0.404487,0.51151 1.158403,0.55488 2.537072,0.55488 1.978574,0 3.699116,-0.19838 5.630207,-0.61953 1.948849,-0.42499 4.021751,-0.16583 5.960905,-0.61895 3.797256,-0.88726 7.260803,-2.83833 10.92919,-4.2098 2.013796,-0.75287 6.22845,-1.8426 6.292646,-4.58128 H 59.135759 c -2.544415,0 -5.44629,-0.615739 -7.396356,1.48594 -4.453499,4.79977 -6.824918,7.25916 -7.725481,7.98874 z"
       style="fill:url(#radialGradient10-0);fill-opacity:1;stroke-width:1"
       id="path9-3" />
    <path
       d="m 59.424862,64.544976 c -0.83523,-0.01626 -1.5147,1.100244 -2.02158,1.621607 -1.88849,1.942453 -3.00045,4.346759 -4.51755,6.531384 -4.6025,6.627623 -7.11575,14.221087 -7.89203,22.20588 -0.17544,1.804389 -0.65319,3.35285 -0.65319,5.225003 0,1.97187 -0.32659,3.89161 -0.32659,5.87819 0,1.03016 0.0499,1.70045 0.24029,2.13579 0.85357,-1.35701 3.253863,-5.86767 7.59735,-9.973158 3.27523,-3.095769 6.79341,-5.852463 8.32734,-9.796872 0.50206,-1.291015 0.16322,-3.196592 0.16322,-4.571635 V 73.351157 66.819773 c 0,-0.734404 0.25042,-1.950942 -0.65319,-2.231388 -0.0897,-0.02784 -0.17766,-0.04173 -0.26407,-0.04341 z"
       style="fill:url(#linearGradient21)"
       id="path7-3"
       sodipodi:nodetypes="sssssscssscsss" />
    <path
       style="fill:url(#linearGradient22);stroke:none;stroke-width:1"
       d="m 74.710942,54.464747 c 0.63239,-0.14931 1.33573,-0.07413 1.57838,0.598691 0.40658,1.127322 -0.16393,2.479155 -0.27214,3.592188 -0.1761,1.811375 0,3.730377 0,5.551565 0,1.499738 -0.14502,3.080148 0,4.571864 0.0829,0.852646 0.60986,1.748441 0.48984,2.612504 -0.48336,3.480244 -4.21053,5.681816 -6.31354,8.164056 -1.03461,1.221181 -2.1823,2.143685 -3.32005,3.265632 -0.52881,0.521447 -1.17265,1.45111 -1.95938,1.578373 -1.15508,0.186841 -1.27426,-1.790515 -1.30624,-2.558059 -0.1265,-3.035877 0,-6.104894 0,-9.143757 v -4.082027 -4.082028 c 0,-1.014369 -0.31627,-2.673068 0.16328,-3.59219 0.52343,-1.003262 1.85654,-1.519241 2.77578,-2.068223 2.41407,-1.441743 5.39748,-3.755365 8.16407,-4.408589"
       id="path4-2" />
    <path
       style="fill:url(#linearGradient23);fill-opacity:1;stroke:none;stroke-width:1"
       d="m 100.83596,52.124376 c 0.98485,2.339114 -0.0506,5.141525 -0.54428,7.510937 -0.18182,0.87269 -0.0237,1.736197 -0.10887,2.612504 -0.355138,3.652854 -1.178128,7.694619 -2.503648,11.103116 -0.65975,1.696454 -0.92929,4.722321 -2.72134,5.714844 -1.08476,0.600785 -3.35156,0.163279 -4.57188,0.163279 h -10.77657 c -0.88078,0 -4.30816,0.507488 -4.51746,-0.653129 -0.26539,-1.471696 2.89021,-3.370025 3.86433,-4.245307 4.27318,-3.839645 8.30934,-7.819477 12.35495,-11.865094 2.27123,-2.271233 4.47349,-4.661583 6.58569,-7.075526 1.12394,-1.284504 1.10784,-2.880104 2.939058,-3.265624"
       id="path3-1" />
    <path
       style="fill:url(#linearGradient24);fill-opacity:1;stroke:none;stroke-width:1"
       d="m 91.039072,50.219432 5.225,-0.05443 1.30624,0.979687 -2.93906,3.592186 -9.03488,9.143745 -4.02762,4.24532 -1.63281,1.142966 -0.65313,-3.428911 v -8.164059 l 0.10887,-3.918748 3.15677,-1.741659 8.49062,-1.796094"
       id="path2-4" />
    <path
       d="m 35.251312,125.60092 c 1.70262,-3.40526 3.97317,-6.70708 6.20468,-9.79687 0.75408,-1.0441 1.36418,-2.80599 2.55807,-3.4289 0.77996,-0.40693 2.08359,-0.16329 2.93906,-0.16329 2.41282,0 5.14241,0.3517 7.51094,-0.10886 8.94481,-1.73924 18.28777,-4.69905 25.79844,-10.12343 11.585755,-8.367495 18.494845,-19.729237 22.423968,-33.200514 0.68737,-2.35668 0.52548,-5.078513 0.76196,-7.510939 0.31611,-3.251191 0.37238,-6.499871 0.32657,-9.796868 -0.0175,-1.264752 -0.16332,-3.314119 -1.30625,-4.082031 -1.76039,-1.182772 -4.531533,-0.816405 -6.531243,-0.816405 -6.0573,0 -11.5728,1.295566 -17.307815,3.047909 -14.36277,4.388581 -27.10086,14.83854 -32.98281,28.955206 -1.71765,4.122339 -2.57919,8.516398 -3.80989,12.735934 -1.23568,4.236606 -1.08855,8.986558 -1.08855,13.389058 0,1.64217 0.973835,4.66145 0,5.93256 -5.055176,6.59834 -4.066994,5.13887 -5.55156,7.78306 m 55.842185,-68.197108 5.225,-0.05443 1.30624,0.979687 -2.93906,3.592186 -9.03488,9.143745 -4.027615,4.24532 -1.63281,1.142966 -0.65313,-3.428911 v -8.164059 l 0.10887,-3.918748 3.15677,-1.741659 8.490615,-1.796094 m 9.796893,1.904941 c 0.98485,2.339114 -0.0506,5.141525 -0.54428,7.510937 -0.18182,0.87269 -0.0237,1.736197 -0.10887,2.612504 -0.355143,3.652854 -1.178133,7.694619 -2.503653,11.103116 -0.65975,1.696454 -0.92929,4.722321 -2.72134,5.714844 -1.08476,0.600785 -3.35156,0.163279 -4.57188,0.163279 H 79.609372 c -0.88078,0 -4.30816,0.507488 -4.51746,-0.653129 -0.26539,-1.471696 2.89021,-3.370025 3.86433,-4.245307 4.273175,-3.839645 8.309335,-7.819477 12.354945,-11.865094 2.27123,-2.271233 4.47349,-4.661583 6.58569,-7.075526 1.12394,-1.284504 1.10784,-2.880104 2.939063,-3.265624 m -26.124998,2.340371 c 0.63239,-0.14931 1.33573,-0.07413 1.57838,0.598691 0.40658,1.127322 -0.16393,2.479155 -0.27214,3.592188 -0.1761,1.811375 0,3.730377 0,5.551565 0,1.499738 -0.14502,3.080148 0,4.571864 0.0829,0.852646 0.60986,1.748441 0.48984,2.612504 -0.48336,3.480244 -4.21053,5.681816 -6.31354,8.164056 -1.03461,1.221181 -2.1823,2.143685 -3.32005,3.265632 -0.52881,0.521447 -1.17265,1.45111 -1.95938,1.578373 -1.15508,0.186841 -1.27426,-1.790515 -1.30624,-2.558059 -0.1265,-3.035877 0,-6.104894 0,-9.143757 v -4.082027 -4.082028 c 0,-1.014369 -0.31627,-2.673068 0.16328,-3.59219 0.52343,-1.003262 1.85654,-1.519241 2.77578,-2.068223 2.41407,-1.441743 5.39748,-3.755365 8.16407,-4.408589 m 0.65311,45.664303 c -0.0633,2.40773 -4.21901,3.3657 -6.20469,4.02759 -3.61717,1.20574 -7.03232,2.92101 -10.77656,3.70105 -1.91208,0.39836 -3.95648,0.17063 -5.87812,0.54426 -1.90413,0.37026 -3.60061,0.54428 -5.55156,0.54428 -0.76744,0 -1.6477,0.14216 -2.28594,-0.38099 -0.8004,-0.65605 -0.65312,-1.63503 -0.65312,-2.55807 0,-1.98658 0.32656,-3.90625 0.32656,-5.87812 0,-1.872154 0.47769,-3.420609 0.65313,-5.224998 0.77628,-7.984793 3.28942,-15.578625 7.89192,-22.206248 1.5171,-2.184625 2.62895,-4.588787 4.51744,-6.53124 0.55932,-0.575297 1.329,-1.87537 2.28595,-1.578384 0.90361,0.280446 0.65311,1.497097 0.65311,2.231501 v 6.531252 10.450001 c 0,1.375043 0.33879,3.280851 -0.16327,4.571866 -1.53393,3.944409 -5.38324,6.893665 -8.32734,9.796872 -1.76226,1.737777 -9.44661,10.600228 -11.10312,12.463808 -0.53367,0.6004 -1.693761,2.45462 -2.428823,3.1578 -1.855111,1.77468 2.591742,-0.58109 3.175592,-1.05951 1.53,-1.25375 9.041291,-10.0595 10.574051,-11.29647 2.07522,-1.674752 4.78434,-1.30625 7.29323,-1.30625 h 16.00156 M 92.998427,82.821247 c -1.29664,4.106022 -4.53393,7.472999 -7.51092,10.449989 -1.43867,1.438681 -2.839495,3.023015 -4.898445,3.53776 -1.27981,0.319943 -2.92645,0.05443 -4.24532,0.05443 h -8.49063 -7.51094 c -0.65681,0 -2.02193,0.266388 -2.44921,-0.381001 -0.59496,-0.901436 0.6097,-1.729137 1.14297,-2.231502 1.90188,-1.791628 3.70388,-3.703866 5.55156,-5.551565 1.83247,-1.832469 3.53003,-4.649648 5.87813,-5.823681 1.63368,-0.816853 4.08759,-0.381002 5.87812,-0.381002 h 11.103135 c 1.75716,0 3.95363,-0.346232 5.55155,0.326559"
       style="fill:url(#radialGradient26);stroke:none;stroke-width:1;fill-opacity:1"
       id="path1"
       sodipodi:nodetypes="cssscssccsssssssccccccccccccccscssssscssccsssscssssscsscccsscsssscsssscssssscssccssscsscscssc" />
  </g>
</svg>
