<?xml version="1.0" encoding="UTF-8" standalone="no"?>
<!-- Created with Inkscape (http://www.inkscape.org/) -->

<svg
   width="210mm"
   height="297mm"
   viewBox="0 0 210 297"
   version="1.1"
   id="svg1"
   sodipodi:docname="fun_leaves.svg"
   inkscape:version="1.4.2 (ebf0e940, 2025-05-08)"
   xmlns:inkscape="http://www.inkscape.org/namespaces/inkscape"
   xmlns:sodipodi="http://sodipodi.sourceforge.net/DTD/sodipodi-0.dtd"
   xmlns:xlink="http://www.w3.org/1999/xlink"
   xmlns="http://www.w3.org/2000/svg"
   xmlns:svg="http://www.w3.org/2000/svg">
  <sodipodi:namedview
     id="namedview1"
     pagecolor="#ffffff"
     bordercolor="#666666"
     borderopacity="1.0"
     inkscape:showpageshadow="2"
     inkscape:pageopacity="0.0"
     inkscape:pagecheckerboard="0"
     inkscape:deskcolor="#d1d1d1"
     inkscape:document-units="mm"
     inkscape:zoom="2.5978238"
     inkscape:cx="367.23045"
     inkscape:cy="490.41047"
     inkscape:window-width="2560"
     inkscape:window-height="1387"
     inkscape:window-x="0"
     inkscape:window-y="25"
     inkscape:window-maximized="0"
     inkscape:current-layer="layer1" />
  <defs
     id="defs1">
    <linearGradient
       id="linearGradient48"
       inkscape:collect="always">
      <stop
         style="stop-color:#010101;stop-opacity:1;"
         offset="0"
         id="stop48" />
      <stop
         style="stop-color:#5db36e;stop-opacity:0.98039216;"
         offset="1"
         id="stop49" />
    </linearGradient>
    <linearGradient
       id="linearGradient45"
       inkscape:collect="always">
      <stop
         style="stop-color:#010101;stop-opacity:1;"
         offset="0"
         id="stop46" />
      <stop
         style="stop-color:#010101;stop-opacity:0;"
         offset="1"
         id="stop47" />
    </linearGradient>
    <linearGradient
       id="linearGradient43"
       inkscape:collect="always">
      <stop
         style="stop-color:#010101;stop-opacity:1;"
         offset="0"
         id="stop44" />
      <stop
         style="stop-color:#010101;stop-opacity:0;"
         offset="1"
         id="stop45" />
    </linearGradient>
    <linearGradient
       id="linearGradient41"
       inkscape:collect="always">
      <stop
         style="stop-color:#010101;stop-opacity:1;"
         offset="0"
         id="stop42" />
      <stop
         style="stop-color:#010101;stop-opacity:0;"
         offset="1"
         id="stop43" />
    </linearGradient>
    <linearGradient
       id="linearGradient39"
       inkscape:collect="always">
      <stop
         style="stop-color:#010101;stop-opacity:1;"
         offset="0"
         id="stop40" />
      <stop
         style="stop-color:#010101;stop-opacity:0;"
         offset="1"
         id="stop41" />
    </linearGradient>
    <linearGradient
       id="linearGradient38"
       inkscape:collect="always">
      <stop
         style="stop-color:#88efbc;stop-opacity:1;"
         offset="0"
         id="stop38" />
      <stop
         style="stop-color:#88efbc;stop-opacity:0;"
         offset="1"
         id="stop39" />
    </linearGradient>
    <linearGradient
       id="linearGradient25"
       inkscape:collect="always">
      <stop
         style="stop-color:#6c5129;stop-opacity:1;"
         offset="0"
         id="stop25" />
      <stop
         style="stop-color:#42aa72;stop-opacity:1;"
         offset="1"
         id="stop26" />
    </linearGradient>
    <linearGradient
       id="linearGradient19"
       inkscape:collect="always">
      <stop
         style="stop-color:#84e5e0;stop-opacity:1;"
         offset="0"
         id="stop19" />
      <stop
         style="stop-color:#84e5e0;stop-opacity:0;"
         offset="1"
         id="stop20" />
    </linearGradient>
    <linearGradient
       id="linearGradient17"
       inkscape:collect="always">
      <stop
         style="stop-color:#56c7cc;stop-opacity:1;"
         offset="0"
         id="stop17" />
      <stop
         style="stop-color:#56c7cc;stop-opacity:0;"
         offset="1"
         id="stop18" />
    </linearGradient>
    <linearGradient
       id="linearGradient14"
       inkscape:collect="always">
      <stop
         style="stop-color:#e2f9e1;stop-opacity:0.96851575;"
         offset="0"
         id="stop15" />
      <stop
         style="stop-color:#428dbc;stop-opacity:0.79460269;"
         offset="1"
         id="stop16" />
    </linearGradient>
    <linearGradient
       id="linearGradient13"
       inkscape:collect="always">
      <stop
         style="stop-color:#83ea83;stop-opacity:1;"
         offset="0"
         id="stop13" />
      <stop
         style="stop-color:#b3d8f2;stop-opacity:0.994003;"
         offset="1"
         id="stop14" />
    </linearGradient>
    <linearGradient
       id="linearGradient10"
       inkscape:collect="always">
      <stop
         style="stop-color:#afe0cc;stop-opacity:1;"
         offset="0"
         id="stop11" />
      <stop
         style="stop-color:#a5d5ea;stop-opacity:0.92803597;"
         offset="1"
         id="stop12" />
    </linearGradient>
    <linearGradient
       id="linearGradient9"
       inkscape:collect="always">
      <stop
         style="stop-color:#31b963;stop-opacity:1;"
         offset="0"
         id="stop9" />
      <stop
         style="stop-color:#2b5895;stop-opacity:0.69415295;"
         offset="1"
         id="stop10" />
    </linearGradient>
    <radialGradient
       inkscape:collect="always"
       xlink:href="#linearGradient9"
       id="radialGradient10"
       cx="129.42676"
       cy="75.126823"
       fx="129.42676"
       fy="75.126823"
       r="15.45616"
       gradientTransform="matrix(1.2023541,-0.17251221,0.05703889,0.39754254,-16.624534,138.78424)"
       gradientUnits="userSpaceOnUse" />
    <linearGradient
       inkscape:collect="always"
       xlink:href="#linearGradient10"
       id="linearGradient12"
       x1="126.38061"
       y1="60.810837"
       x2="137.31694"
       y2="47.672436"
       gradientUnits="userSpaceOnUse"
       gradientTransform="translate(14.75243,70.104855)" />
    <radialGradient
       inkscape:collect="always"
       xlink:href="#linearGradient13"
       id="radialGradient14"
       cx="142.71924"
       cy="56.356873"
       fx="142.71924"
       fy="56.356873"
       r="17.633324"
       gradientTransform="matrix(1.3334371,-0.38082962,0.13049036,0.45689903,-40.657826,161.93022)"
       gradientUnits="userSpaceOnUse" />
    <linearGradient
       inkscape:collect="always"
       xlink:href="#linearGradient14"
       id="linearGradient16"
       x1="137.31694"
       y1="40.614004"
       x2="150.33616"
       y2="40.614004"
       gradientUnits="userSpaceOnUse"
       gradientTransform="translate(14.75243,70.104855)" />
    <linearGradient
       inkscape:collect="always"
       xlink:href="#linearGradient17"
       id="linearGradient18"
       x1="148.88758"
       y1="36.961496"
       x2="175.05748"
       y2="36.961496"
       gradientUnits="userSpaceOnUse"
       gradientTransform="translate(14.75243,70.104855)" />
    <linearGradient
       inkscape:collect="always"
       xlink:href="#linearGradient19"
       id="linearGradient20"
       x1="153.09425"
       y1="30.924833"
       x2="171.38176"
       y2="30.924833"
       gradientUnits="userSpaceOnUse"
       gradientTransform="translate(14.75243,70.104855)" />
    <radialGradient
       inkscape:collect="always"
       xlink:href="#linearGradient9"
       id="radialGradient10-0"
       cx="129.42676"
       cy="75.126823"
       fx="129.42676"
       fy="75.126823"
       r="15.45616"
       gradientTransform="matrix(1.2373226,-0.19622494,0.01649616,0.45218691,-108.86638,97.116395)"
       gradientUnits="userSpaceOnUse" />
    <radialGradient
       inkscape:collect="always"
       xlink:href="#linearGradient13"
       id="radialGradient14-8"
       cx="142.71924"
       cy="56.356873"
       fx="142.71924"
       fy="56.356873"
       r="17.633324"
       gradientTransform="matrix(1.3682622,-0.38082962,0.08870908,0.45689903,-132.49223,120.61749)"
       gradientUnits="userSpaceOnUse" />
    <linearGradient
       inkscape:collect="always"
       xlink:href="#linearGradient10"
       id="linearGradient21"
       gradientUnits="userSpaceOnUse"
       x1="126.38061"
       y1="60.810837"
       x2="137.31694"
       y2="47.672436"
       gradientTransform="matrix(1,0,-0.09144532,1,-68.684974,28.79212)" />
    <linearGradient
       inkscape:collect="always"
       xlink:href="#linearGradient14"
       id="linearGradient22"
       gradientUnits="userSpaceOnUse"
       x1="137.31694"
       y1="40.614004"
       x2="150.33616"
       y2="40.614004"
       gradientTransform="matrix(1,0,-0.09144532,1,-68.684974,28.79212)" />
    <linearGradient
       inkscape:collect="always"
       xlink:href="#linearGradient17"
       id="linearGradient23"
       gradientUnits="userSpaceOnUse"
       x1="155.46313"
       y1="39.277916"
       x2="180.33295"
       y2="30.947042"
       gradientTransform="matrix(1,0,-0.09144532,1,-68.684974,28.79212)" />
    <linearGradient
       inkscape:collect="always"
       xlink:href="#linearGradient19"
       id="linearGradient24"
       gradientUnits="userSpaceOnUse"
       x1="157.77072"
       y1="29.260126"
       x2="175.5929"
       y2="19.456848"
       gradientTransform="matrix(1.0423953,0,-0.09532217,1.0489116,-75.031825,26.812335)" />
    <radialGradient
       inkscape:collect="always"
       xlink:href="#linearGradient25"
       id="radialGradient26"
       cx="69.492933"
       cy="86.060062"
       fx="69.492933"
       fy="86.060062"
       r="34.296051"
       gradientTransform="matrix(1,0,-0.10542981,1.1529274,8.9628851,-13.160944)"
       gradientUnits="userSpaceOnUse" />
    <radialGradient
       inkscape:collect="always"
       xlink:href="#linearGradient38"
       id="radialGradient39"
       cx="113.87826"
       cy="108.84532"
       fx="113.87826"
       fy="108.84532"
       r="13.084945"
       gradientTransform="matrix(1,0,0,1.0415971,2.7578594,-2.4906919)"
       gradientUnits="userSpaceOnUse" />
    <radialGradient
       inkscape:collect="always"
       xlink:href="#linearGradient41"
       id="radialGradient43"
       cx="103.84015"
       cy="134.80131"
       fx="103.84015"
       fy="134.80131"
       r="17.633319"
       gradientTransform="matrix(1,0,0,0.41365788,0,79.039689)"
       gradientUnits="userSpaceOnUse" />
    <radialGradient
       inkscape:collect="always"
       xlink:href="#linearGradient43"
       id="radialGradient45"
       cx="98.490151"
       cy="114.53479"
       fx="98.490151"
       fy="114.53479"
       r="6.5096102"
       gradientTransform="matrix(1,0,0,2.3051888,0,-149.48953)"
       gradientUnits="userSpaceOnUse" />
    <radialGradient
       inkscape:collect="always"
       xlink:href="#linearGradient45"
       id="radialGradient47"
       cx="116.9016"
       cy="104.84562"
       fx="116.9016"
       fy="104.84562"
       r="9.143745"
       gradientTransform="matrix(1,0,0,1.0446431,0,-4.6806321)"
       gradientUnits="userSpaceOnUse" />
    <radialGradient
       inkscape:collect="always"
       xlink:href="#linearGradient39"
       id="radialGradient48"
       gradientUnits="userSpaceOnUse"
       gradientTransform="matrix(1,0,0,1.4163986,0,-54.915875)"
       cx="88.158775"
       cy="131.88293"
       fx="88.158775"
       fy="131.88293"
       r="15.680325" />
    <radialGradient
       inkscape:collect="always"
       xlink:href="#linearGradient48"
       id="radialGradient49"
       cx="160.82982"
       cy="122.47456"
       fx="160.82982"
       fy="122.47456"
       r="31.522989"
       gradientTransform="matrix(1,0,0,1.0989576,0,-12.119784)"
       gradientUnits="userSpaceOnUse" />
  </defs>
  <g
     inkscape:label="Layer 1"
     inkscape:groupmode="layer"
     id="layer1">
    <path
       style="fill:#010101;stroke:none;stroke-width:1"
       d="m 57.352719,273.81408 c 0,-16.47528 -8.78259,-30.75588 -22.5328,-39.73177 -3.63296,-2.37152 -7.66541,-3.96783 -11.75626,-5.38827 -1.99896,-0.69409 -4.467959,-1.27394 -5.932539,0.70755 -1.37716,1.86321 -1.84965,3.99649 -2.34037,6.20469 -0.92708,4.17186 -1.85052,8.05288 -1.85052,12.40936 0,3.32097 -0.32114,6.82033 0,10.12345 0.68417,7.03707 3.67411,13.24956 7.184379,19.26717 2.14321,3.67411 4.50025,6.99969 7.83748,9.68802 4.50532,3.62928 9.15276,6.48095 14.36875,8.87162 1.64311,0.75309 3.48506,1.26444 5.22501,1.79608 0.83086,0.25389 1.66889,0.3403 2.12265,1.19739 0.33483,0.63245 0.16328,1.59579 0.16328,2.28594 0,2.12784 -0.44951,4.11034 -0.65313,6.2047 -0.49043,5.04445 0.16916,10.37036 0.65313,15.34843 0.43673,4.49204 1.53403,9.14706 2.8302,13.38906 0.3859,1.26296 0.46347,2.6481 0.81641,3.91874 0.57671,2.07616 1.62839,4.16095 2.3948,6.20468 2.54872,6.79661 5.63895,13.36045 10.06901,19.26719 14.91263,19.88351 38.248061,31.92235 62.591131,34.28905 3.98183,0.38711 8.75408,0.38711 12.73593,0 1.97673,-0.19218 3.9138,-0.7887 5.87813,-0.97968 10.5936,-1.02994 21.63397,-5.35031 30.3703,-11.53854 4.17812,-2.9595 8.0271,-6.8987 11.42968,-10.66771 4.95155,-5.48481 9.37069,-11.21236 12.4638,-17.96093 3.97481,-8.6722 5.27428,-13.22504 6.46358,-23.63495 0.18999,-1.66291 0.38959,-5.34363 0.25485,-7.00897 -0.0706,-0.8728 0.13547,-3.18868 -1.90641,-3.2189 -1.99536,-0.0295 -1.40626,2.72244 -1.4894,3.57746 -0.28308,2.91154 -0.48147,5.1411 -0.76454,8.05264 -0.11874,1.22066 -0.62209,3.07782 -0.87084,4.27179 -0.9719,4.66512 -2.08758,9.36407 -4.08203,13.71562 -6.55401,14.29966 -17.61891,26.51749 -31.62213,33.90805 -7.46058,3.93755 -16.45227,6.42539 -24.81874,7.23882 -2.66382,0.25899 -5.48587,0 -8.16406,0 -2.57107,0 -5.28027,0.24862 -7.83749,0 -3.02654,-0.29426 -6.25413,-1.00772 -9.14375,-1.85053 -5.61468,-1.63762 -11.31151,-2.86511 -16.65468,-5.38829 -14.082131,-6.6499 -26.263761,-16.8614 -34.833331,-29.9893 -4.77958,-7.32195 -6.95858,-15.60062 -9.36147,-23.83906 -1.4056,-4.81922 -2.01806,-9.70073 -2.50364,-14.69531 -1.55148,-15.95817 0.6694,-32.25334 7.89193,-46.69842 1.70262,-3.40526 3.97317,-6.70708 6.20468,-9.79687 0.75408,-1.0441 1.36418,-2.80599 2.55807,-3.4289 0.77996,-0.40693 2.08359,-0.16329 2.93906,-0.16329 2.41282,0 5.14241,0.3517 7.51094,-0.10886 8.94481,-1.73924 18.28777,-4.69905 25.798441,-10.12343 11.58575,-8.3675 18.49484,-19.72924 22.42396,-33.20052 0.68737,-2.35668 0.52548,-5.07851 0.76196,-7.51094 0.31611,-3.25119 0.37238,-6.49987 0.32657,-9.79686 -0.0175,-1.26476 -0.16332,-3.31412 -1.30625,-4.08203 -1.76039,-1.18278 -4.53153,-0.81641 -6.53124,-0.81641 -6.0573,0 -11.5728,1.29557 -17.30781,3.04791 -14.362771,4.38858 -27.100861,14.83854 -32.982811,28.95521 -1.71765,4.12233 -2.57919,8.51639 -3.80989,12.73593 -1.23568,4.2366 -1.08855,8.98656 -1.08855,13.38906 0,1.64217 0.56493,4.43425 0,5.93256 -1.08421,2.87556 -4.02158,5.09629 -5.55156,7.78306 -1.2945,2.27326 -2.3848,6.42232 -4.57187,7.8375 m 60.414051,-76.03461 5.225,-0.0544 1.30624,0.97969 -2.93906,3.59218 -9.03488,9.14375 -4.02761,4.24532 -1.63281,1.14296 -0.65313,-3.42891 v -8.16406 l 0.10887,-3.91874 3.15677,-1.74166 8.49061,-1.7961 m 9.79689,1.90494 c 0.98485,2.33912 -0.0506,5.14153 -0.54428,7.51094 -0.18182,0.87269 -0.0237,1.7362 -0.10887,2.6125 -0.35514,3.65286 -1.17813,7.69462 -2.50365,11.10312 -0.65975,1.69645 -0.92929,4.72232 -2.72134,5.71484 -1.08476,0.60079 -3.35156,0.16328 -4.57188,0.16328 h -10.77656 c -0.88078,0 -4.30816,0.50749 -4.51746,-0.65313 -0.26539,-1.47169 2.89021,-3.37002 3.86433,-4.2453 4.27317,-3.83965 8.30933,-7.81948 12.35494,-11.8651 2.27123,-2.27123 4.47349,-4.66158 6.58569,-7.07552 1.12394,-1.28451 1.10784,-2.88011 2.93906,-3.26563 m -26.12499,2.34037 c 0.63239,-0.14931 1.33573,-0.0741 1.57838,0.5987 0.40658,1.12732 -0.16393,2.47915 -0.27214,3.59218 -0.1761,1.81138 0,3.73038 0,5.55157 0,1.49974 -0.14502,3.08015 0,4.57186 0.0829,0.85265 0.60986,1.74844 0.48984,2.61251 -0.48336,3.48024 -4.210531,5.68181 -6.313541,8.16405 -1.03461,1.22118 -2.1823,2.14369 -3.32005,3.26563 -0.52881,0.52145 -1.17265,1.45111 -1.95938,1.57838 -1.15508,0.18684 -1.27426,-1.79052 -1.30624,-2.55806 -0.1265,-3.03588 0,-6.1049 0,-9.14376 v -4.08203 -4.08202 c 0,-1.01437 -0.31627,-2.67307 0.16328,-3.59219 0.52343,-1.00327 1.85654,-1.51924 2.77578,-2.06823 2.41407,-1.44174 5.39748,-3.75536 8.164071,-4.40859 m 0.65311,45.6643 c -0.0633,2.40774 -4.219011,3.36571 -6.204691,4.0276 -3.61717,1.20574 -7.03232,2.92101 -10.77656,3.70105 -1.91208,0.39836 -3.95648,0.17063 -5.87812,0.54426 -1.90413,0.37026 -3.60061,0.54428 -5.55156,0.54428 -0.76744,0 -1.6477,0.14216 -2.28594,-0.38099 -0.8004,-0.65605 -0.65312,-1.63503 -0.65312,-2.55807 0,-1.98658 0.32656,-3.90625 0.32656,-5.87813 0,-1.87215 0.47769,-3.4206 0.65313,-5.22499 0.77628,-7.98479 3.28942,-15.57863 7.89192,-22.20625 1.5171,-2.18462 2.62895,-4.58879 4.51744,-6.53124 0.55932,-0.5753 1.329,-1.87537 2.28595,-1.57838 0.90361,0.28044 0.65311,1.49709 0.65311,2.2315 v 6.53125 10.45 c 0,1.37504 0.33879,3.28085 -0.16327,4.57187 -1.53393,3.94441 -5.38324,6.89366 -8.32734,9.79687 -1.76226,1.73778 -3.5685,3.36143 -5.22501,5.22501 -0.53367,0.6004 -1.37696,1.7092 -0.8164,2.55806 0.58452,0.88513 1.53881,0.15186 2.12266,-0.32656 1.53,-1.25375 2.60369,-2.95391 4.13645,-4.19088 2.07522,-1.67475 4.78434,-1.30626 7.29323,-1.30626 h 16.001561 m 17.63437,-17.3078 c -1.29664,4.10603 -4.53393,7.473 -7.51092,10.44999 -1.43867,1.43868 -2.83949,3.02302 -4.89844,3.53776 -1.27981,0.31995 -2.92645,0.0544 -4.24532,0.0544 h -8.490631 -7.51094 c -0.65681,0 -2.02193,0.26639 -2.44921,-0.381 -0.59496,-0.90143 0.6097,-1.72913 1.14297,-2.2315 1.90188,-1.79163 3.70388,-3.70387 5.55156,-5.55157 1.83247,-1.83246 3.53003,-4.64964 5.87813,-5.82368 1.63368,-0.81685 4.087591,-0.381 5.878121,-0.381 h 11.10313 c 1.75716,0 3.95363,-0.34623 5.55155,0.32656 m -87.518721,22.20625 c -2.10369,-0.22744 -2.25364,-3.56036 -2.99349,-5.225 -2.00425,-4.50954 -3.81565,-11.00362 -8.10962,-13.71562 -0.93546,3.23155 1.55952,6.61126 2.8302,9.47031 2.13978,4.81453 4.33327,9.64621 6.69453,14.36874 0.81679,1.6336 2.17817,3.09394 2.55807,4.89844 -1.49611,-0.0394 -2.57076,-0.65446 -3.91875,-1.1974 -2.77837,-1.11907 -5.66921,-2.10743 -8.49062,-3.04791 -1.266169,-0.42205 -3.741559,-0.69945 -4.408589,-1.95937 -0.48272,-0.9118 -0.16328,-2.58328 -0.16328,-3.59219 0,-2.03546 -0.19684,-4.18015 0,-6.20468 0.10701,-1.10038 0.54613,-2.16525 0.65312,-3.26564 0.29977,-3.08335 0.39566,-5.88078 1.57838,-8.81718 0.3476,-0.86303 0.63061,-2.22665 1.469529,-2.77577 1.13499,-0.7429 3.10179,0.34218 4.13647,0.8164 2.88829,1.32382 5.61313,2.85758 8.49061,4.13647 1.40917,0.62629 3.07302,1.3144 3.26563,3.04791 0.15548,1.39924 -0.50796,2.61244 -0.87083,3.91875 -0.32654,1.17553 -0.47098,2.44058 -0.87084,3.59217 -0.62162,1.79029 -1.69914,3.6341 -1.85052,5.55157 m 8.16406,17.30781 c -1.65085,-0.98159 -2.19657,-3.21086 -2.99348,-4.89844 -1.34759,-2.85373 -3.57775,-6.49792 -3.2112,-9.79687 0.2435,-2.19154 1.67287,-4.4521 2.39479,-6.53125 0.566,-1.63008 0.99613,-3.28605 1.57837,-4.89844 0.20132,-0.55747 0.26312,-1.38299 0.92527,-1.57837 0.8157,-0.2407 1.42856,0.42393 1.95938,0.92525 1.19557,1.12916 2.1818,2.37291 3.26562,3.59219 1.11596,1.25544 2.5128,2.7773 2.6125,4.57187 0.11676,2.10171 -1.84565,4.55728 -2.50364,6.53124 -0.53057,1.59172 -1.24605,3.26039 -1.63282,4.89844 -0.57921,2.45311 -0.90082,5.08176 -2.39479,7.18438 M 144.21833,245.512 c -4.04198,0.95435 -6.3027,3.58134 -9.14376,6.42239 l -10.12343,10.12345 C 113.43272,273.57625 101.8028,285.17371 90.662089,297 c -3.58327,3.80378 -7.40773,7.40774 -11.10313,11.10313 -1.68824,1.68824 -4.07799,3.43402 -5.225,5.55156 -0.68686,1.26805 -0.21689,2.49612 0.54427,3.59219 1.52546,2.19666 4.51636,4.91646 7.29323,5.225 2.09088,0.23232 3.2234,-1.26401 4.57188,-2.61251 2.76603,-2.76603 5.45881,-5.62209 8.21849,-8.38176 11.931261,-11.93126 24.213441,-23.83885 35.867431,-36.03073 3.64643,-3.81471 7.52196,-7.51794 11.10312,-11.42967 1.17287,-1.28114 2.82613,-3.84441 4.89844,-3.21119 1.47686,0.45127 2.84797,2.46697 3.91875,3.53775 2.92599,2.92599 5.74628,6.04483 8.81718,8.81718 12.41235,11.20557 23.32923,24.14684 35.81302,35.26875 3.30208,2.94184 6.42237,6.31913 9.47031,9.52473 1.79821,1.89121 3.04332,4.4505 5.98698,3.75547 1.33759,-0.31583 2.30154,-0.88643 3.26562,-1.85053 1.52662,-1.52662 3.16784,-3.89397 2.55807,-6.20468 -0.50444,-1.91148 -2.76398,-3.4813 -4.19088,-4.68072 -1.8133,-1.52423 -3.52918,-3.42034 -5.225,-5.11615 -14.69962,-14.69964 -29.9351,-28.86236 -44.41249,-43.75936 -3.53103,-3.63339 -7.18558,-7.18556 -10.77656,-10.77656 -2.33445,-2.33445 -4.21402,-4.66543 -7.83749,-3.8099 m -92.743731,48.22238 -2.06824,-3.91875 -2.6125,-5.87812 -3.21119,-6.85781 -1.25183,-3.26562 0.70755,-1.95937 2.77578,-7.51094 3.04793,-9.47032 c 2.48535,0.53737 2.87837,4.4301 3.37448,6.53126 0.23611,1 0.67375,1.92549 0.87082,2.93906 0.84455,4.34344 2.06858,9.23346 1.63282,13.71562 -0.30916,3.17991 -1.19782,6.33731 -1.85051,9.4703 -0.4233,2.03186 -0.47736,4.32921 -1.41511,6.20469 M 17.83866,260.47945 c 0.78925,-0.19407 1.92805,0.44827 2.612509,0.76198 1.51755,0.69554 3.08761,1.25106 4.57187,2.0138 2.93003,1.50573 6.80567,1.38216 9.47031,3.42891 1.58234,1.21542 2.44063,3.42352 3.26563,5.17057 1.18388,2.50703 2.53532,4.93325 3.53776,7.51092 0.26151,0.67249 0.8657,2.29692 -0.27214,2.55806 -1.49471,0.34305 -4.19483,-1.66619 -5.55157,-2.2315 -2.47461,-1.03108 -4.93384,-1.7878 -7.51094,-2.50364 -1.55683,-0.43246 -3.56268,-0.58326 -4.89843,-1.52394 -1.26065,-0.8878 -1.93179,-2.43746 -2.50364,-3.8099 -1.157419,-2.77782 -2.629969,-5.48142 -3.047909,-8.49063 -0.10689,-0.76926 -0.87972,-2.588 0.32655,-2.88463 m 127.4682,4.35417 c -1.69644,1.05295 -3.25618,3.31061 -4.68072,4.73514 -3.40916,3.40917 -6.9195,6.7449 -10.12344,10.34115 -0.99806,1.12028 -2.23768,1.97251 -3.26563,3.04791 -7.16838,7.49923 -14.52936,14.85594 -21.87967,22.20625 -3.02396,3.02395 -5.832711,6.26764 -8.926051,9.19817 -2.05566,1.94748 -4.51607,3.99958 -5.33384,6.80339 -0.39895,1.36781 -0.10886,3.15458 -0.10886,4.57187 v 9.14375 30.04373 10.12344 c 0,1.46871 -0.34537,3.31477 0.54426,4.57187 1.35646,1.91673 3.68956,2.82382 5.66043,3.91875 4.315241,2.39736 8.997031,4.22973 13.715621,5.60599 5.82367,1.69858 11.53736,3.27155 17.63437,3.86432 15.2948,1.48699 30.85807,-3.0013 43.75935,-10.88541 3.52127,-2.15189 6.21219,-5.01992 9.25261,-7.72864 6.79801,-6.05639 11.52366,-13.95497 15.07629,-22.20625 1.93927,-4.50406 3.86367,-9.46429 4.4086,-14.36874 0.10751,-0.96805 0.50036,-3.92328 0.59465,-4.89292 0.50747,-5.21946 0.89991,-10.46589 -0.54683,-13.26991 -1.35364,-2.62355 -4.72112,-5.97523 -6.79678,-7.90774 -5.19458,-4.83633 -10.10556,-10.05114 -15.13073,-15.0763 -8.35183,-8.35183 -16.57971,-16.74972 -25.14529,-24.81873 -2.01862,-1.9016 -3.90775,-3.93512 -5.87813,-5.87813 -0.69361,-0.68398 -1.73376,-1.82352 -2.83021,-1.14296 m -97.097891,29.22732 -0.32656,0.32656 c -4.36492,-0.80405 -8.35363,-3.49032 -12.08281,-5.76926 -2.01882,-1.23372 -4.03915,-2.33901 -5.8237,-3.91876 -1.52712,-1.35188 -3.38664,-2.65453 -3.97317,-4.68072 l 0.32656,-0.32657 11.42969,4.13647 6.20468,2.12265 2.01379,3.53775 2.23152,4.57188 m 61.393751,27.48568 c 1.89668,-0.61363 4.85855,-0.0544 6.85781,-0.0544 h 15.67498 c 1.7297,0 6.07575,-0.80598 7.02109,0.97969 0.37269,0.70397 0.16329,1.84135 0.16329,2.6125 v 5.55155 20.24687 19.9203 c 0,1.68883 0.77272,5.7668 -0.97969,6.69454 -1.51677,0.80299 -4.82358,0.16328 -6.53125,0.16328 h -16.32811 -4.89844 c -0.5689,0 -1.41003,0.15521 -1.79609,-0.38099 -0.414,-0.57499 -0.16328,-1.88432 -0.16328,-2.55808 v -6.20468 -24.16562 -17.3078 c 0,-1.39717 -0.67593,-4.9615 0.97969,-5.49713 m 55.18904,5.82369 v 11.10312 H 154.0152 v -11.10312 h 10.77656 m 13.38905,0 v 11.10312 h -11.10312 v -11.10312 h 11.10312 m 0,13.38906 v 11.10309 h -11.10312 v -7.51094 l -0.0982,-3.83379 11.20132,0.24161 m -13.38905,0 v 11.10312 H 154.0152 v -11.10312 h 10.77656 m -50.94374,5.98699 c -3.44941,0.81445 -4.6552,6.49384 -1.57838,8.54504 0.99085,0.66057 2.74096,0.66181 3.86432,0.38098 3.46919,-0.86727 4.99805,-5.93546 1.95937,-8.27289 -1.12766,-0.86746 -2.89373,-0.97226 -4.24531,-0.65313 z"
       id="path2-2"
       sodipodi:nodetypes="csscssssssssssssssssscssssssscssssssssssssssscssscsscsssssccccccccccccccscssssscssccsssccssssscsssccsscsssscsssscssssscssccssscsssscssccccsscsssssssccssssccssssccsssscccssssssscsssscsssssscsscccccccccscssccsssssssssssccsscssssccssssssssccssssscccsscccccccssssccssscsssccsccccccccccccccccccccccsssss"
       inkscape:export-filename="complete_logo.png"
       inkscape:export-xdpi="100"
       inkscape:export-ydpi="100" />
    <path
       style="fill:#010101;stroke:none;stroke-width:1"
       d="M 123.94062,157.58949"
       id="path38" />
    <path
       style="fill:url(#radialGradient43);stroke:none;stroke-width:1"
       d="m 121.47347,127.94991 c -1.29664,4.10603 -4.53393,7.473 -7.51092,10.44999 -1.43867,1.43868 -2.83949,3.02302 -4.89844,3.53776 -1.27981,0.31995 -2.92645,0.0544 -4.24532,0.0544 h -8.490631 -7.51094 c -0.65681,0 -2.02193,0.26639 -2.44921,-0.381 -0.59496,-0.90143 0.6097,-1.72913 1.14297,-2.2315 1.90188,-1.79163 3.70388,-3.70387 5.55156,-5.55157 1.83247,-1.83246 3.53003,-4.64964 5.87813,-5.82368 1.633681,-0.81685 4.087591,-0.381 5.878121,-0.381 h 11.10313 c 1.75716,0 3.95363,-0.34623 5.55155,0.32656"
       id="path37" />
    <path
       style="fill:url(#radialGradient48);stroke:none;stroke-width:1"
       d="m 103.8391,145.25771 c -0.0633,2.40774 -4.219011,3.36571 -6.204691,4.0276 -3.61717,1.20574 -7.03232,2.92101 -10.77656,3.70105 -1.91208,0.39836 -3.95648,0.17063 -5.878121,0.54426 -1.90413,0.37026 -3.60061,0.54428 -5.55156,0.54428 -0.76744,0 -1.6477,0.14216 -2.28594,-0.38099 -0.8004,-0.65605 -0.65312,-1.63503 -0.65312,-2.55807 0,-1.98658 0.32656,-3.90625 0.32656,-5.87813 0,-1.87215 0.47769,-3.4206 0.65313,-5.22499 0.77628,-7.98479 3.28942,-15.57863 7.891921,-22.20625 1.5171,-2.18462 2.62895,-4.58879 4.51744,-6.53124 0.55932,-0.5753 1.329,-1.87537 2.28595,-1.57838 0.90361,0.28044 0.65311,1.49709 0.65311,2.2315 v 6.53125 10.45 c 0,1.37504 0.33879,3.28085 -0.16327,4.57187 -1.53393,3.94441 -5.38324,6.89366 -8.327341,9.79687 -1.76226,1.73778 -3.5685,3.36143 -5.22501,5.22501 -0.53367,0.6004 -1.37696,1.7092 -0.8164,2.55806 0.58452,0.88513 1.53881,0.15186 2.12266,-0.32656 1.53,-1.25375 2.60369,-2.95391 4.13645,-4.19088 2.075221,-1.67475 4.784341,-1.30626 7.293231,-1.30626 H 103.8391"
       id="path36" />
    <path
       style="fill:url(#radialGradient45);stroke:none;stroke-width:1"
       d="m 103.18599,99.59341 c 0.63239,-0.14931 1.33573,-0.0741 1.57838,0.5987 0.40658,1.12732 -0.16393,2.47915 -0.27214,3.59218 -0.1761,1.81138 0,3.73038 0,5.55157 0,1.49974 -0.14502,3.08015 0,4.57186 0.0829,0.85265 0.60986,1.74844 0.48984,2.61251 -0.48336,3.48024 -4.21053,5.68181 -6.313541,8.16405 -1.03461,1.22118 -2.1823,2.14369 -3.32005,3.26563 -0.52881,0.52145 -1.17265,1.45111 -1.95938,1.57838 -1.15508,0.18684 -1.27426,-1.79052 -1.30624,-2.55806 -0.1265,-3.03588 0,-6.1049 0,-9.14376 v -4.08203 -4.08202 c 0,-1.01437 -0.31627,-2.67307 0.16328,-3.59219 0.52343,-1.00327 1.85654,-1.51924 2.77578,-2.06823 2.41407,-1.44174 5.397481,-3.75536 8.164071,-4.40859"
       id="path35" />
    <path
       style="fill:url(#radialGradient39);stroke:none;stroke-width:1"
       d="m 129.311,97.25304 c 0.98485,2.33912 -0.0506,5.14153 -0.54428,7.51094 -0.18182,0.87269 -0.0237,1.7362 -0.10887,2.6125 -0.35514,3.65286 -1.17813,7.69462 -2.50365,11.10312 -0.65975,1.69645 -0.92929,4.72232 -2.72134,5.71484 -1.08476,0.60079 -3.35156,0.16328 -4.57188,0.16328 h -10.77656 c -0.88078,0 -4.30816,0.50749 -4.51746,-0.65313 -0.26539,-1.47169 2.89021,-3.37002 3.86433,-4.2453 4.27317,-3.83965 8.30933,-7.81948 12.35494,-11.8651 2.27123,-2.27123 4.47349,-4.66158 6.58569,-7.07552 1.12394,-1.28451 1.10784,-2.88011 2.93906,-3.26563"
       id="path34" />
    <path
       style="fill:url(#radialGradient47);stroke:none;stroke-width:1"
       d="m 119.51411,95.34807 5.225,-0.0544 1.30624,0.97969 -2.93906,3.59218 -9.03488,9.14375 -4.02761,4.24532 -1.63281,1.14296 -0.65313,-3.42891 v -8.16406 l 0.10887,-3.91874 3.15677,-1.74166 8.49061,-1.7961"
       id="path33" />
    <path
       style="fill:url(#radialGradient14);stroke:none;stroke-width:1"
       d="m 181.56231,124.13398 c -1.29664,4.10602 -4.53393,7.473 -7.51092,10.44999 -1.43867,1.43868 -2.8395,3.02302 -4.89845,3.53776 -1.27981,0.31994 -2.92645,0.0544 -4.24532,0.0544 h -8.49063 -7.51094 c -0.65681,0 -2.02193,0.26639 -2.44921,-0.381 -0.59496,-0.90144 0.6097,-1.72914 1.14297,-2.2315 1.90188,-1.79163 3.70388,-3.70387 5.55156,-5.55157 1.83247,-1.83247 3.53003,-4.64964 5.87813,-5.82368 1.63368,-0.81685 4.08759,-0.381 5.87812,-0.381 h 11.10314 c 1.75716,0 3.95363,-0.34623 5.55155,0.32656"
       id="path6" />
    <path
       d="m 133.0155,149.77131 c 0.39884,0.44969 1.14223,0.48783 2.50165,0.48783 1.95095,0 3.64747,-0.17441 5.5516,-0.54467 1.92164,-0.37363 3.9656,-0.1458 5.87768,-0.54416 3.74424,-0.78004 7.15943,-2.49532 10.7766,-3.70106 1.98568,-0.66189 6.14149,-1.61993 6.20479,-4.02766 h -16.00161 c -2.50889,0 -5.37025,-0.54133 -7.29309,1.30638 -4.39132,4.21973 -6.72963,6.38193 -7.61762,7.02334 z"
       style="fill:url(#radialGradient10)"
       id="path9" />
    <path
       d="m 147.98874,105.85771 c -0.83523,-0.0163 -1.5147,1.10025 -2.02158,1.62161 -1.88849,1.94245 -3.00045,4.34676 -4.51755,6.53138 -4.6025,6.62763 -7.11575,14.22109 -7.89203,22.20588 -0.17544,1.80439 -0.65319,3.35285 -0.65319,5.22501 0,1.97187 -0.32659,3.89161 -0.32659,5.87819 0,1.03015 0.0499,1.70045 0.24029,2.13579 0.85357,-1.35701 3.9827,-5.21338 7.59747,-9.97304 2.50075,-3.2928 6.79321,-5.85241 8.32714,-9.79682 0.50206,-1.29101 0.1633,-3.19677 0.1633,-4.57181 v -10.45001 -6.53138 c 0,-0.73441 0.25042,-1.95094 -0.65319,-2.23139 -0.0897,-0.0278 -0.17766,-0.0417 -0.26407,-0.0434 z"
       style="fill:url(#linearGradient12)"
       id="path7"
       sodipodi:nodetypes="sssssscssscssss" />
    <path
       style="fill:url(#linearGradient16);stroke:none;stroke-width:1"
       d="m 163.27482,95.777482 c 0.63239,-0.14931 1.33573,-0.07413 1.57838,0.598691 0.40658,1.127322 -0.16393,2.479155 -0.27214,3.592188 -0.1761,1.811379 0,3.730379 0,5.551569 0,1.49973 -0.14502,3.08014 0,4.57186 0.0829,0.85265 0.60986,1.74844 0.48984,2.6125 -0.48336,3.48025 -4.21053,5.68182 -6.31354,8.16406 -1.03461,1.22118 -2.1823,2.14369 -3.32005,3.26563 -0.52881,0.52145 -1.17265,1.45111 -1.95938,1.57838 -1.15508,0.18684 -1.27426,-1.79052 -1.30624,-2.55806 -0.1265,-3.03588 0,-6.1049 0,-9.14376 v -4.08203 -4.08203 c 0,-1.01436 -0.31627,-2.67306 0.16328,-3.59219 0.52343,-1.00326 1.85654,-1.51924 2.77578,-2.06822 2.41407,-1.441742 5.39748,-3.755364 8.16407,-4.408588"
       id="path4" />
    <path
       style="fill:url(#linearGradient18);stroke:none;stroke-width:1"
       d="m 189.39984,93.437111 c 0.98485,2.339114 -0.0506,5.141525 -0.54428,7.510939 -0.18182,0.87269 -0.0237,1.7362 -0.10887,2.6125 -0.35514,3.65286 -1.17813,7.69462 -2.50365,11.10312 -0.65975,1.69645 -0.92929,4.72232 -2.72134,5.71484 -1.08476,0.60079 -3.35156,0.16328 -4.57188,0.16328 h -10.77657 c -0.88078,0 -4.30816,0.50749 -4.51746,-0.65313 -0.26539,-1.47169 2.89021,-3.37002 3.86433,-4.2453 4.27318,-3.83965 8.30934,-7.81948 12.35495,-11.8651 2.27123,-2.27123 4.47349,-4.661582 6.58569,-7.075525 1.12394,-1.284504 1.10784,-2.880104 2.93906,-3.265624"
       id="path3" />
    <path
       style="fill:url(#linearGradient20);stroke:none;stroke-width:1"
       d="m 179.60295,91.532167 5.225,-0.05443 1.30624,0.979687 -2.93906,3.592186 -9.03488,9.14375 -4.02762,4.24532 -1.63281,1.14296 -0.65313,-3.42891 v -8.164059 l 0.10887,-3.918748 3.15677,-1.741659 8.49062,-1.796094"
       id="path2" />
    <g
       id="g26"
       transform="matrix(1.1331253,0,0,1.0499013,-19.02256,-13.378358)"
       style="stroke-width:0.916826">
      <g
         id="g27">
        <g
           id="g28">
          <path
             style="fill:url(#radialGradient14-8);fill-opacity:1;stroke:none;stroke-width:0.916826"
             d="m 93.184195,82.821247 c -1.672116,4.106022 -5.2173,7.472999 -8.466522,10.449989 -1.570231,1.438681 -3.115941,3.023015 -5.221962,3.53776 -1.309067,0.319943 -2.931427,0.05443 -4.250297,0.05443 h -8.49063 -7.51094 c -0.65681,0 -2.04629,0.266388 -2.414369,-0.381001 -0.512528,-0.901436 0.767821,-1.729137 1.34703,-2.231502 2.065716,-1.791628 4.042581,-3.703866 6.059225,-5.551565 2.00004,-1.832469 3.955218,-4.649648 6.410678,-5.823681 1.708377,-0.816853 4.122431,-0.381002 5.912961,-0.381002 h 11.10314 c 1.75716,0 3.985291,-0.346232 5.521688,0.326559"
             id="path6-7"
             sodipodi:nodetypes="cssscsscscssc" />
          <path
             d="m 41.749642,109.61369 c 0.357712,0.51151 1.107662,0.55488 2.486331,0.55488 1.978574,0 3.717257,-0.19838 5.68686,-0.61953 1.987712,-0.42499 4.036915,-0.16583 6.017505,-0.61895 3.878392,-0.88726 7.520355,-2.83833 11.314156,-4.2098 2.082643,-0.75287 6.396948,-1.8426 6.711583,-4.58128 H 57.737894 c -2.544415,0 -5.389984,-0.615739 -7.532238,1.48594 -4.892416,4.79977 -7.488734,7.25916 -8.456014,7.98874 z"
             style="fill:url(#radialGradient10-0);fill-opacity:1;stroke-width:0.916826"
             id="path9-3" />
          <path
             d="m 61.281905,64.544976 c -0.833743,-0.01626 -1.615312,1.100244 -2.169869,1.621607 -2.066118,1.942453 -3.39794,4.346759 -5.114814,6.531384 -5.208565,6.627623 -8.416202,14.221087 -9.922654,22.20588 -0.340443,1.804389 -0.959792,3.35285 -1.130992,5.225003 -0.180318,1.97187 -0.682459,3.89161 -0.864123,5.87819 -0.0942,1.03016 -0.105598,1.70045 0.04498,2.13579 0.977662,-1.35701 3.790434,-5.86767 8.509349,-9.973158 3.558323,-3.095769 7.32859,-5.852463 9.223218,-9.796872 0.620117,-1.291015 0.455533,-3.196592 0.581274,-4.571635 l 0.955605,-10.450008 0.597264,-6.531384 c 0.06716,-0.734404 0.428825,-1.950942 -0.44914,-2.231388 -0.08715,-0.02784 -0.173844,-0.04173 -0.2601,-0.04341 z"
             style="fill:url(#linearGradient21);stroke-width:0.916826"
             id="path7-3"
             sodipodi:nodetypes="sssssscssscsss" />
          <path
             style="fill:url(#linearGradient22);stroke:none;stroke-width:0.916826"
             d="m 77.489774,54.464747 c 0.646044,-0.14931 1.342509,-0.07413 1.523633,0.598691 0.303492,1.127322 -0.390637,2.479155 -0.600629,3.592188 -0.341742,1.811375 -0.341125,3.730377 -0.507664,5.551565 -0.137144,1.499738 -0.426686,3.080148 -0.418076,4.571864 0.0049,0.852646 0.449973,1.748441 0.250939,2.612504 -0.801612,3.480244 -4.730106,5.681816 -7.060105,8.164056 -1.146281,1.221181 -2.37833,2.143685 -3.618677,3.265632 -0.576494,0.521447 -1.305347,1.45111 -2.103714,1.578373 -1.172166,0.186841 -1.110526,-1.790515 -1.072318,-2.558059 0.151117,-3.035877 0.558264,-6.104894 0.836154,-9.143757 l 0.373282,-4.082027 0.373282,-4.082028 c 0.09276,-1.014369 -0.07183,-2.673068 0.491769,-3.59219 0.615174,-1.003262 1.995468,-1.519241 2.96491,-2.068223 2.54591,-1.441743 5.74089,-3.755365 8.567214,-4.408589"
             id="path4-2" />
          <path
             style="fill:url(#linearGradient23);fill-opacity:1;stroke:none;stroke-width:0.916826"
             d="m 103.82881,52.124376 c 0.77095,2.339114 -0.52077,5.141525 -1.23112,7.510937 -0.26163,0.87269 -0.18247,1.736197 -0.34777,2.612504 -0.68918,3.652854 -1.88177,7.694619 -3.518979,11.103116 -0.814883,1.696454 -1.361124,4.722321 -3.243936,5.714844 -1.139699,0.600785 -3.366491,0.163279 -4.586811,0.163279 h -10.77657 c -0.88078,0 -4.354567,0.507488 -4.457734,-0.653129 -0.13081,-1.471696 3.198383,-3.370025 4.252543,-4.245307 4.624298,-3.839645 9.024395,-7.819477 13.439958,-11.865094 2.478923,-2.271233 4.89977,-4.661583 7.232709,-7.075526 1.24141,-1.284504 1.37122,-2.880104 3.23769,-3.265624"
             id="path3-1"
             sodipodi:nodetypes="csccsssscssc" />
          <path
             style="fill:url(#linearGradient24);fill-opacity:1;stroke:none;stroke-width:0.916826"
             d="m 103.12127,46.904348 0.70752,5.220024 -5.749846,1.901718 -10.289519,9.59098 -4.603045,4.452965 -1.810984,1.198871 -0.353968,-3.596625 0.778216,-8.563376 0.487029,-4.11042 3.456621,-1.826847 c 0,0 10.989339,-5.183058 11.551497,-4.26729"
             id="path2-4"
             sodipodi:nodetypes="ccccccccccc" />
          <path
             d="m 28.467124,123.04131 c 2.409023,0.0167 5.034346,0.68239 6.171679,-0.98797 1.342172,-1.9712 2.625954,-4.57677 3.986829,-6.24929 0.849553,-1.0441 1.620775,-2.80599 2.871627,-3.4289 0.817172,-0.40693 2.098522,-0.16329 2.953992,-0.16329 2.41282,0 5.110249,0.3517 7.520895,-0.10886 9.103856,-1.73924 18.717476,-4.69905 26.72418,-10.12343 12.350924,-8.367495 20.298992,-19.729237 25.460004,-33.200514 0.90287,-2.35668 0.98988,-5.078513 1.4488,-7.510939 0.61341,-3.251191 0.96676,-6.499871 1.22244,-9.796868 0.81726,-2.525847 2.62419,-4.187185 1.76351,-5.731155 -1.0221,-1.833541 -7.51288,-0.622394 -9.51259,-0.622394 -6.0573,0 -11.331744,2.750675 -17.227002,4.503018 -14.764085,4.388581 -28.457775,14.83854 -35.630628,28.955206 -2.094619,4.122339 -3.357975,8.516398 -4.974532,12.735934 -1.623097,4.236606 -1.910328,8.986562 -2.312916,13.389062 -0.150169,1.64217 0.547566,4.66145 -0.542505,5.93256 -2.500992,2.91636 -4.909792,5.33301 -6.827732,7.447 -0.928484,1.02339 -5.343112,2.92368 -3.096051,4.96083 M 96.216202,47.52435 c -3.775063,0.485037 3.489542,-1.018842 6.545538,0.03485 0.44942,1.746131 -2.109,3.585488 -2.109,3.585488 l -3.267545,3.592186 -9.871033,9.143745 -4.41583,4.24532 -1.737329,1.142966 -0.339572,-3.428911 0.746565,-8.164059 0.518677,-4.677447 3.456621,-1.826847 c 0,0 -1.72831,0.913424 3.460398,-1.571265 m 14.625118,2.523999 c 0.77095,2.339114 -0.52077,5.141525 -1.23112,7.510937 -0.26163,0.87269 -0.18247,1.736197 -0.34777,2.612504 -0.68918,3.652854 -1.88177,7.694619 -3.518984,11.103116 -0.814883,1.696454 -1.361124,4.722321 -3.243936,5.714844 -1.139699,0.600785 -3.366491,0.163279 -4.586811,0.163279 H 80.123624 c -0.88078,0 -4.354567,0.507488 -4.457734,-0.653129 -0.13081,-1.471696 3.198383,-3.370025 4.252543,-4.245307 4.624293,-3.839645 9.02439,-7.819477 13.439953,-11.865094 2.478923,-2.271233 4.89977,-4.661583 7.232714,-7.075526 1.2414,-1.284504 1.37121,-2.880104 3.23769,-3.265624 m -26.339016,2.340371 c 0.646044,-0.14931 1.342509,-0.07413 1.523633,0.598691 0.303492,1.127322 -0.390637,2.479155 -0.600629,3.592188 -0.341742,1.811375 -0.341125,3.730377 -0.507664,5.551565 -0.137144,1.499738 -0.426686,3.080148 -0.418076,4.571864 0.0049,0.852646 0.449973,1.748441 0.250939,2.612504 -0.801612,3.480244 -4.730106,5.681816 -7.060105,8.164056 -1.146281,1.221181 -2.37833,2.143685 -3.618677,3.265632 -0.576494,0.521447 -1.305347,1.45111 -2.103714,1.578373 -1.172166,0.186841 -1.110526,-1.790515 -1.072318,-2.558059 0.151117,-3.035877 0.558264,-6.104894 0.836154,-9.143757 l 0.373282,-4.082027 0.373282,-4.082028 c 0.09276,-1.014369 -0.07183,-2.673068 0.491769,-3.59219 0.615174,-1.003262 1.995468,-1.519241 2.96491,-2.068223 2.54591,-1.441743 5.74089,-3.755365 8.567214,-4.408589 m -3.522676,45.664307 c -0.283476,2.40773 -4.526788,3.3657 -6.572994,4.02759 -3.72743,1.20574 -7.299433,2.92101 -11.115004,3.70105 -1.948508,0.39836 -3.972083,0.17063 -5.92789,0.54426 -1.937989,0.37026 -3.650382,0.54428 -5.601332,0.54428 -0.76744,0 -1.6607,0.14216 -2.2511,-0.38099 -0.740408,-0.65605 -0.503604,-1.63503 -0.419197,-2.55807 0.181664,-1.98658 0.683769,-3.90625 0.864087,-5.87812 0.1712,-1.872158 0.790488,-3.420613 1.130931,-5.225002 0.370531,-1.96396 2.091469,-9.636666 4.037422,-10.492048 2.228772,-0.979701 2.618891,2.645778 2.926617,4.399886 0.121086,0.690217 0.476277,4.493215 1.066798,4.304822 1.640515,-0.523369 -1.123348,-10.452656 -0.892728,-13.733855 0.217697,-3.097339 1.894767,-5.552954 2.784469,-6.685053 1.716871,-2.184627 3.048573,-4.588787 5.114691,-6.53124 0.611928,-0.575297 1.500494,-1.87537 2.430286,-1.578384 0.877964,0.280446 0.516207,1.497097 0.44905,2.231501 l -0.597253,6.531252 -0.955603,10.450001 c -0.125742,1.375043 0.03877,3.280851 -0.581346,4.571866 -1.894628,3.944409 -6.550514,6.639045 -9.760098,9.542252 -1.921172,1.737777 -9.879071,10.854852 -11.705997,12.718432 -0.588574,0.6004 -1.918225,2.45462 -2.717589,3.1578 -2.017397,1.77468 2.64488,-0.58109 3.272479,-1.05951 1.64465,-1.25375 9.961185,-10.0595 11.60706,-11.29647 2.228369,-1.674756 4.903791,-1.30625 7.412681,-1.30625 h 16.00156 M 93.18419,82.821247 c -1.672116,4.106022 -5.2173,7.472999 -8.466522,10.449989 -1.570231,1.438681 -3.115936,3.023015 -5.221957,3.53776 -1.309067,0.319943 -2.931427,0.05443 -4.250297,0.05443 h -8.49063 -7.51094 c -0.65681,0 -2.04629,0.266388 -2.414369,-0.381001 -0.512528,-0.901436 0.767821,-1.729137 1.34703,-2.231502 2.065716,-1.791628 4.042581,-3.703866 6.059225,-5.551565 2.00004,-1.832469 3.955218,-4.649648 6.410678,-5.823681 1.708377,-0.816853 4.122431,-0.381002 5.912961,-0.381002 h 11.103135 c 1.75716,0 3.985291,-0.346232 5.521688,0.326559"
             style="fill:url(#radialGradient26);fill-opacity:1;stroke:none;stroke-width:0.916826"
             id="path1"
             sodipodi:nodetypes="csssscssccssssssssccccccccccccccscssssscssccsssscssssscsscccsscsssscsssssssscssssscssccssscsscscssc"
             inkscape:export-filename="leaf2.svg"
             inkscape:export-xdpi="100"
             inkscape:export-ydpi="100" />
        </g>
      </g>
    </g>
    <path
       d="m 130.01982,157.11699 c 0.75408,-1.0441 1.36418,-2.80599 2.55807,-3.4289 0.77996,-0.40693 2.08359,-0.16329 2.93906,-0.16329 2.41282,0 5.14241,0.3517 7.51094,-0.10886 8.94481,-1.73924 18.28777,-4.69905 25.79844,-10.12343 11.58575,-8.3675 18.49484,-19.72924 22.42396,-33.20052 0.68737,-2.35668 0.52548,-5.07851 0.76196,-7.51094 0.31611,-3.251193 0.37238,-6.499873 0.32657,-9.796863 -0.0175,-1.26476 -0.16332,-3.31412 -1.30625,-4.08203 -1.76039,-1.18278 -4.53153,-0.81641 -6.53124,-0.81641 -6.0573,0 -11.5728,1.29557 -17.30781,3.04791 -14.36277,4.38858 -27.10086,14.838543 -32.98281,28.955213 -1.71765,4.12233 -2.57919,8.51639 -3.80989,12.73593 -1.23568,4.2366 -1.08855,8.98656 -1.08855,13.38906 0,1.64217 0.56493,4.43425 0,5.93256 m 50.29062,-60.414053 5.225,-0.0544 1.30624,0.97969 -2.93906,3.59218 -9.03488,9.143753 -4.02761,4.24532 -1.63281,1.14296 -0.65313,-3.42891 v -8.164063 l 0.10887,-3.91874 3.15677,-1.74166 8.49061,-1.7961 m 9.79689,1.90494 c 0.98485,2.33912 -0.0506,5.14153 -0.54428,7.510943 -0.18182,0.87269 -0.0237,1.7362 -0.10887,2.6125 -0.35514,3.65286 -1.17813,7.69462 -2.50365,11.10312 -0.65975,1.69645 -0.92929,4.72232 -2.72134,5.71484 -1.08476,0.60079 -3.35156,0.16328 -4.57188,0.16328 H 168.1732 c -0.88078,0 -4.30816,0.50749 -4.51746,-0.65313 -0.26539,-1.47169 2.89021,-3.37002 3.86433,-4.2453 4.27317,-3.83965 8.30933,-7.81948 12.35494,-11.8651 2.27123,-2.27123 4.47349,-4.661583 6.58569,-7.075523 1.12394,-1.28451 1.10784,-2.88011 2.93906,-3.26563 m -26.12499,2.34037 c 0.63239,-0.14931 1.33573,-0.0741 1.57838,0.5987 0.40658,1.12732 -0.16393,2.47915 -0.27214,3.59218 -0.1761,1.811383 0,3.730383 0,5.551573 0,1.49974 -0.14502,3.08015 0,4.57186 0.0829,0.85265 0.60986,1.74844 0.48984,2.61251 -0.48336,3.48024 -4.21053,5.68181 -6.31354,8.16405 -1.03461,1.22118 -2.1823,2.14369 -3.32005,3.26563 -0.52881,0.52145 -1.17265,1.45111 -1.95938,1.57838 -1.15508,0.18684 -1.27426,-1.79052 -1.30624,-2.55806 -0.1265,-3.03588 0,-6.1049 0,-9.14376 v -4.08203 -4.08202 c 0,-1.01437 -0.31627,-2.67307 0.16328,-3.59219 0.52343,-1.00327 1.85654,-1.51924 2.77578,-2.06823 2.41407,-1.441743 5.39748,-3.755363 8.16407,-4.408593 m 0.65311,45.664303 c -0.0633,2.40774 -4.21901,3.36571 -6.20469,4.0276 -3.61717,1.20574 -7.03232,2.92101 -10.77656,3.70105 -1.91208,0.39836 -3.95648,0.17063 -5.87812,0.54426 -1.90413,0.37026 -3.60061,0.54428 -5.55156,0.54428 -0.76744,0 -1.6477,0.14216 -2.28594,-0.38099 -0.8004,-0.65605 -0.65312,-1.63503 -0.65312,-2.55807 0,-1.98658 0.32656,-3.90625 0.32656,-5.87813 0,-1.87215 0.47769,-3.4206 0.65313,-5.22499 0.77628,-7.98479 3.28942,-15.57863 7.89192,-22.20625 1.5171,-2.18462 2.62895,-4.58879 4.51744,-6.53124 0.55932,-0.5753 1.329,-1.87537 2.28595,-1.57838 0.90361,0.28044 0.65311,1.49709 0.65311,2.2315 v 6.53125 10.45 c 0,1.37504 0.33879,3.28085 -0.16327,4.57187 -1.53393,3.94441 -5.38324,6.89366 -8.32734,9.79687 -1.76226,1.73778 -3.5685,3.36143 -5.22501,5.22501 -0.53367,0.6004 -1.37696,1.7092 -0.8164,2.55806 0.58452,0.88513 1.53881,0.15186 2.12266,-0.32656 1.53,-1.25375 2.60369,-2.95391 4.13645,-4.19088 2.07522,-1.67475 4.78434,-1.30626 7.29323,-1.30626 h 16.00156 m 17.63437,-17.3078 c -1.29664,4.10603 -4.53393,7.473 -7.51092,10.44999 -1.43867,1.43868 -2.83949,3.02302 -4.89844,3.53776 -1.27981,0.31995 -2.92645,0.0544 -4.24532,0.0544 h -8.49063 -7.51094 c -0.65681,0 -2.02193,0.26639 -2.44921,-0.381 -0.59496,-0.90143 0.6097,-1.72913 1.14297,-2.2315 1.90188,-1.79163 3.70388,-3.70387 5.55156,-5.55157 1.83247,-1.83246 3.53003,-4.64964 5.87813,-5.82368 1.63368,-0.81685 4.08759,-0.381 5.87812,-0.381 h 11.10313 c 1.75716,0 3.95363,-0.34623 5.55155,0.32656 m 5.22501,31.67658"
       style="fill:url(#radialGradient49);stroke:none;stroke-width:1"
       id="path1-0" />
  </g>
</svg>
