<?xml version="1.0" encoding="UTF-8" standalone="no"?>
<!-- Created with Inkscape (http://www.inkscape.org/) -->

<svg
   width="71.829681mm"
   height="76.666916mm"
   viewBox="0 0 71.829681 76.666916"
   version="1.1"
   id="svg1"
   xmlns:xlink="http://www.w3.org/1999/xlink"
   xmlns="http://www.w3.org/2000/svg"
   xmlns:svg="http://www.w3.org/2000/svg">
  <defs
     id="defs1">
    <linearGradient
       id="linearGradient25">
      <stop
         style="stop-color:#6c5129;stop-opacity:1;"
         offset="0"
         id="stop25" />
      <stop
         style="stop-color:#42aa72;stop-opacity:1;"
         offset="1"
         id="stop26" />
    </linearGradient>
    <linearGradient
       id="linearGradient19">
      <stop
         style="stop-color:#84e5e0;stop-opacity:1;"
         offset="0"
         id="stop19" />
      <stop
         style="stop-color:#84e5e0;stop-opacity:0;"
         offset="1"
         id="stop20" />
    </linearGradient>
    <linearGradient
       id="linearGradient17">
      <stop
         style="stop-color:#56c7cc;stop-opacity:1;"
         offset="0"
         id="stop17" />
      <stop
         style="stop-color:#56c7cc;stop-opacity:0;"
         offset="1"
         id="stop18" />
    </linearGradient>
    <linearGradient
       id="linearGradient14">
      <stop
         style="stop-color:#e2f9e1;stop-opacity:0.96851575;"
         offset="0"
         id="stop15" />
      <stop
         style="stop-color:#428dbc;stop-opacity:0.79460269;"
         offset="1"
         id="stop16" />
    </linearGradient>
    <linearGradient
       id="linearGradient13">
      <stop
         style="stop-color:#83ea83;stop-opacity:1;"
         offset="0"
         id="stop13" />
      <stop
         style="stop-color:#b3d8f2;stop-opacity:0.994003;"
         offset="1"
         id="stop14" />
    </linearGradient>
    <linearGradient
       id="linearGradient10">
      <stop
         style="stop-color:#afe0cc;stop-opacity:1;"
         offset="0"
         id="stop11" />
      <stop
         style="stop-color:#a5d5ea;stop-opacity:0.92803597;"
         offset="1"
         id="stop12" />
    </linearGradient>
    <linearGradient
       id="linearGradient9">
      <stop
         style="stop-color:#31b963;stop-opacity:1;"
         offset="0"
         id="stop9" />
      <stop
         style="stop-color:#2b5895;stop-opacity:0.69415295;"
         offset="1"
         id="stop10" />
    </linearGradient>
    <radialGradient
       xlink:href="#linearGradient9"
       id="radialGradient10-0"
       cx="129.42676"
       cy="75.126823"
       fx="129.42676"
       fy="75.126823"
       r="15.45616"
       gradientTransform="matrix(1.2193787,-0.19622494,0.05784653,0.45218691,-107.74492,97.116395)"
       gradientUnits="userSpaceOnUse" />
    <radialGradient
       xlink:href="#linearGradient13"
       id="radialGradient14-8"
       cx="142.71924"
       cy="56.356873"
       fx="142.71924"
       fy="56.356873"
       r="17.633324"
       gradientTransform="matrix(1.3334371,-0.38082962,0.13049036,0.45689903,-129.2217,120.61749)"
       gradientUnits="userSpaceOnUse" />
    <linearGradient
       xlink:href="#linearGradient10"
       id="linearGradient21"
       gradientUnits="userSpaceOnUse"
       x1="126.38061"
       y1="60.810837"
       x2="137.31694"
       y2="47.672436"
       gradientTransform="translate(-73.811448,28.79212)" />
    <linearGradient
       xlink:href="#linearGradient14"
       id="linearGradient22"
       gradientUnits="userSpaceOnUse"
       x1="137.31694"
       y1="40.614002"
       x2="150.33617"
       y2="40.614002"
       gradientTransform="translate(-73.811448,28.79212)" />
    <linearGradient
       xlink:href="#linearGradient17"
       id="linearGradient23"
       gradientUnits="userSpaceOnUse"
       x1="148.88757"
       y1="36.961494"
       x2="175.05748"
       y2="36.961494"
       gradientTransform="translate(-73.811448,28.79212)" />
    <linearGradient
       xlink:href="#linearGradient19"
       id="linearGradient24"
       gradientUnits="userSpaceOnUse"
       x1="153.09425"
       y1="30.924833"
       x2="171.38176"
       y2="30.924833"
       gradientTransform="translate(-73.811448,28.79212)" />
    <radialGradient
       xlink:href="#linearGradient25"
       id="radialGradient26"
       cx="69.492935"
       cy="86.060059"
       fx="69.492935"
       fy="86.060059"
       r="34.296051"
       gradientTransform="matrix(1,0,0,1.1529274,0,-13.160944)"
       gradientUnits="userSpaceOnUse" />
  </defs>
  <g
     id="layer1"
     transform="translate(-31.959298,-46.519205)">
    <path
       style="fill:#010101;stroke:none;stroke-width:1"
       d="m 101.62785,169.63017 c 1.70262,-3.40526 3.97317,-6.70708 6.20468,-9.79687 0.75408,-1.0441 1.36418,-2.80599 2.55807,-3.4289 0.77996,-0.40693 2.08359,-0.16329 2.93906,-0.16329 2.41282,0 5.14241,0.3517 7.51094,-0.10886 8.94481,-1.73924 18.28777,-4.69905 25.79844,-10.12343 11.58576,-8.3675 18.49485,-19.72924 22.42397,-33.20052 0.68737,-2.35668 0.52548,-5.07851 0.76196,-7.51094 0.31611,-3.25119 0.37238,-6.499866 0.32657,-9.796863 -0.0175,-1.264752 -0.16332,-3.314119 -1.30625,-4.082031 -1.76039,-1.182772 -4.53153,-0.816405 -6.53124,-0.816405 -6.0573,0 -11.5728,1.295566 -17.30782,3.047909 -14.36277,4.388581 -27.10086,14.83854 -32.98281,28.95521 -1.71765,4.12233 -2.57919,8.51639 -3.80989,12.73593 -1.23568,4.23661 -1.08855,8.98656 -1.08855,13.38906 0,1.64217 0.97384,4.66145 0,5.93256 -5.05517,6.59834 -4.06699,5.13887 -5.55156,7.78306"
       id="path1-6" />
    <path
       style="fill:url(#radialGradient14-8);fill-opacity:1;stroke:none;stroke-width:1"
       d="m 92.998432,82.821247 c -1.29664,4.106022 -4.53393,7.472999 -7.51092,10.449989 -1.43867,1.438681 -2.8395,3.023015 -4.89845,3.53776 -1.27981,0.319943 -2.92645,0.05443 -4.24532,0.05443 h -8.49063 -7.51094 c -0.65681,0 -2.02193,0.266388 -2.44921,-0.381001 -0.59496,-0.901436 0.6097,-1.729137 1.14297,-2.231502 1.90188,-1.791628 3.70388,-3.703866 5.55156,-5.551565 1.83247,-1.832469 3.53003,-4.649648 5.87813,-5.823681 1.63368,-0.816853 4.08759,-0.381002 5.87812,-0.381002 h 11.10314 c 1.75716,0 3.95363,-0.346232 5.55155,0.326559"
       id="path6-7" />
    <path
       d="m 44.013922,109.61369 c 0.404487,0.51151 1.158403,0.55488 2.537072,0.55488 1.978574,0 3.699116,-0.19838 5.630207,-0.61953 1.948849,-0.42499 4.021751,-0.16583 5.960905,-0.61895 3.797256,-0.88726 7.260803,-2.83833 10.92919,-4.2098 2.013796,-0.75287 6.22845,-1.8426 6.292646,-4.58128 H 59.135759 c -2.544415,0 -5.44629,-0.615739 -7.396356,1.48594 -4.453499,4.79977 -6.824918,7.25916 -7.725481,7.98874 z"
       style="fill:url(#radialGradient10-0);fill-opacity:1;stroke-width:1"
       id="path9-3" />
    <path
       d="m 59.424862,64.544976 c -0.83523,-0.01626 -1.5147,1.100244 -2.02158,1.621607 -1.88849,1.942453 -3.00045,4.346759 -4.51755,6.531384 -4.6025,6.627623 -7.11575,14.221087 -7.89203,22.20588 -0.17544,1.804389 -0.65319,3.35285 -0.65319,5.225003 0,1.97187 -0.32659,3.89161 -0.32659,5.87819 0,1.03016 0.0499,1.70045 0.24029,2.13579 0.85357,-1.35701 3.253863,-5.86767 7.59735,-9.973158 3.27523,-3.095769 6.79341,-5.852463 8.32734,-9.796872 0.50206,-1.291015 0.16322,-3.196592 0.16322,-4.571635 V 73.351157 66.819773 c 0,-0.734404 0.25042,-1.950942 -0.65319,-2.231388 -0.0897,-0.02784 -0.17766,-0.04173 -0.26407,-0.04341 z"
       style="fill:url(#linearGradient21)"
       id="path7-3" />
    <path
       style="fill:url(#linearGradient22);stroke:none;stroke-width:1"
       d="m 74.710942,54.464747 c 0.63239,-0.14931 1.33573,-0.07413 1.57838,0.598691 0.40658,1.127322 -0.16393,2.479155 -0.27214,3.592188 -0.1761,1.811375 0,3.730377 0,5.551565 0,1.499738 -0.14502,3.080148 0,4.571864 0.0829,0.852646 0.60986,1.748441 0.48984,2.612504 -0.48336,3.480244 -4.21053,5.681816 -6.31354,8.164056 -1.03461,1.221181 -2.1823,2.143685 -3.32005,3.265632 -0.52881,0.521447 -1.17265,1.45111 -1.95938,1.578373 -1.15508,0.186841 -1.27426,-1.790515 -1.30624,-2.558059 -0.1265,-3.035877 0,-6.104894 0,-9.143757 v -4.082027 -4.082028 c 0,-1.014369 -0.31627,-2.673068 0.16328,-3.59219 0.52343,-1.003262 1.85654,-1.519241 2.77578,-2.068223 2.41407,-1.441743 5.39748,-3.755365 8.16407,-4.408589"
       id="path4-2" />
    <path
       style="fill:url(#linearGradient23);fill-opacity:1;stroke:none;stroke-width:1"
       d="m 100.83596,52.124376 c 0.98485,2.339114 -0.0506,5.141525 -0.54428,7.510937 -0.18182,0.87269 -0.0237,1.736197 -0.10887,2.612504 -0.355138,3.652854 -1.178128,7.694619 -2.503648,11.103116 -0.65975,1.696454 -0.92929,4.722321 -2.72134,5.714844 -1.08476,0.600785 -3.35156,0.163279 -4.57188,0.163279 h -10.77657 c -0.88078,0 -4.30816,0.507488 -4.51746,-0.653129 -0.26539,-1.471696 2.89021,-3.370025 3.86433,-4.245307 4.27318,-3.839645 8.30934,-7.819477 12.35495,-11.865094 2.27123,-2.271233 4.47349,-4.661583 6.58569,-7.075526 1.12394,-1.284504 1.10784,-2.880104 2.939058,-3.265624"
       id="path3-1" />
    <path
       style="fill:url(#linearGradient24);fill-opacity:1;stroke:none;stroke-width:1"
       d="m 91.039072,50.219432 5.225,-0.05443 1.30624,0.979687 -2.93906,3.592186 -9.03488,9.143745 -4.02762,4.24532 -1.63281,1.142966 -0.65313,-3.428911 v -8.164059 l 0.10887,-3.918748 3.15677,-1.741659 8.49062,-1.796094"
       id="path2-4" />
    <path
       d="m 31.959297,123.04131 c 2.41055,0.0167 5.096747,0.68239 6.081334,-0.98797 1.161915,-1.9712 2.20743,-4.57677 3.415361,-6.24929 0.754074,-1.0441 1.36418,-2.80599 2.55807,-3.4289 0.77996,-0.40693 2.08359,-0.16329 2.93906,-0.16329 2.41282,0 5.14241,0.3517 7.51094,-0.10886 8.94481,-1.73924 18.28777,-4.69905 25.79844,-10.12343 11.585755,-8.367495 18.494845,-19.729237 22.423968,-33.200514 0.68737,-2.35668 0.52548,-5.078513 0.76196,-7.510939 0.31611,-3.251191 0.37238,-6.499871 0.32657,-9.796868 -0.0175,-1.264752 -0.16332,-3.314119 -1.30625,-4.082031 -1.76039,-1.182772 -4.531533,-0.816405 -6.531243,-0.816405 -6.0573,0 -11.5728,1.295566 -17.307815,3.047909 -14.36277,4.388581 -27.10086,14.83854 -32.98281,28.955206 -1.71765,4.122339 -2.57919,8.516398 -3.80989,12.735934 -1.23568,4.236606 -1.08855,8.986558 -1.08855,13.389058 0,1.64217 0.973834,4.66145 0,5.93256 -2.234304,2.91636 -4.422113,5.33301 -6.146739,7.447 -0.834899,1.02339 -2.642406,4.96083 -2.642406,4.96083 m 59.07977,-72.821878 5.225,-0.05443 1.30624,0.979687 -2.93906,3.592186 -9.03488,9.143745 -4.027615,4.24532 -1.63281,1.142966 -0.65313,-3.428911 v -8.164059 l 0.10887,-3.918748 3.15677,-1.741659 8.490615,-1.796094 m 9.796893,1.904941 c 0.98485,2.339114 -0.0506,5.141525 -0.54428,7.510937 -0.18182,0.87269 -0.0237,1.736197 -0.10887,2.612504 -0.355143,3.652854 -1.178133,7.694619 -2.503653,11.103116 -0.65975,1.696454 -0.92929,4.722321 -2.72134,5.714844 -1.08476,0.600785 -3.35156,0.163279 -4.57188,0.163279 H 79.609372 c -0.88078,0 -4.30816,0.507488 -4.51746,-0.653129 -0.26539,-1.471696 2.89021,-3.370025 3.86433,-4.245307 4.273175,-3.839645 8.309335,-7.819477 12.354945,-11.865094 2.27123,-2.271233 4.47349,-4.661583 6.58569,-7.075526 1.12394,-1.284504 1.10784,-2.880104 2.939063,-3.265624 m -26.124998,2.340371 c 0.63239,-0.14931 1.33573,-0.07413 1.57838,0.598691 0.40658,1.127322 -0.16393,2.479155 -0.27214,3.592188 -0.1761,1.811375 0,3.730377 0,5.551565 0,1.499738 -0.14502,3.080148 0,4.571864 0.0829,0.852646 0.60986,1.748441 0.48984,2.612504 -0.48336,3.480244 -4.21053,5.681816 -6.31354,8.164056 -1.03461,1.221181 -2.1823,2.143685 -3.32005,3.265632 -0.52881,0.521447 -1.17265,1.45111 -1.95938,1.578373 -1.15508,0.186841 -1.27426,-1.790515 -1.30624,-2.558059 -0.1265,-3.035877 0,-6.104894 0,-9.143757 v -4.082027 -4.082028 c 0,-1.014369 -0.31627,-2.673068 0.16328,-3.59219 0.52343,-1.003262 1.85654,-1.519241 2.77578,-2.068223 2.41407,-1.441743 5.39748,-3.755365 8.16407,-4.408589 m 0.65311,45.664303 c -0.0633,2.40773 -4.21901,3.3657 -6.20469,4.02759 -3.61717,1.20574 -7.03232,2.92101 -10.77656,3.70105 -1.91208,0.39836 -3.95648,0.17063 -5.87812,0.54426 -1.90413,0.37026 -3.60061,0.54428 -5.55156,0.54428 -0.76744,0 -1.6477,0.14216 -2.28594,-0.38099 -0.8004,-0.65605 -0.65312,-1.63503 -0.65312,-2.55807 0,-1.98658 0.32656,-3.90625 0.32656,-5.87812 0,-1.872154 0.47769,-3.420609 0.65313,-5.224998 0.77628,-7.984793 3.28942,-15.578625 7.89192,-22.206248 1.5171,-2.184625 2.62895,-4.588787 4.51744,-6.53124 0.55932,-0.575297 1.329,-1.87537 2.28595,-1.578384 0.90361,0.280446 0.65311,1.497097 0.65311,2.231501 v 6.531252 10.450001 c 0,1.375043 0.33879,3.280851 -0.16327,4.571866 -1.53393,3.944409 -5.38324,6.893665 -8.32734,9.796872 -1.76226,1.737777 -9.44661,10.600228 -11.10312,12.463808 -0.53367,0.6004 -1.693761,2.45462 -2.428823,3.1578 -1.855111,1.77468 2.591742,-0.58109 3.175592,-1.05951 1.53,-1.25375 9.041291,-10.0595 10.574051,-11.29647 2.07522,-1.674752 4.78434,-1.30625 7.29323,-1.30625 h 16.00156 M 92.998427,82.821247 c -1.29664,4.106022 -4.53393,7.472999 -7.51092,10.449989 -1.43867,1.438681 -2.839495,3.023015 -4.898445,3.53776 -1.27981,0.319943 -2.92645,0.05443 -4.24532,0.05443 h -8.49063 -7.51094 c -0.65681,0 -2.02193,0.266388 -2.44921,-0.381001 -0.59496,-0.901436 0.6097,-1.729137 1.14297,-2.231502 1.90188,-1.791628 3.70388,-3.703866 5.55156,-5.551565 1.83247,-1.832469 3.53003,-4.649648 5.87813,-5.823681 1.63368,-0.816853 4.08759,-0.381002 5.87812,-0.381002 h 11.103135 c 1.75716,0 3.95363,-0.346232 5.55155,0.326559"
       style="fill:url(#radialGradient26);fill-opacity:1;stroke:none;stroke-width:1"
       id="path1" />
  </g>
</svg>
