<?xml version="1.0" encoding="UTF-8" standalone="no"?>
<!-- Created with Inkscape (http://www.inkscape.org/) -->

<svg
   width="91.761536mm"
   height="82.376068mm"
   viewBox="0 0 91.761536 82.376068"
   version="1.1"
   id="svg1"
   xmlns:xlink="http://www.w3.org/1999/xlink"
   xmlns="http://www.w3.org/2000/svg"
   xmlns:svg="http://www.w3.org/2000/svg">
  <defs
     id="defs1">
    <linearGradient
       id="linearGradient25">
      <stop
         style="stop-color:#6c5129;stop-opacity:1;"
         offset="0"
         id="stop25" />
      <stop
         style="stop-color:#42aa72;stop-opacity:1;"
         offset="1"
         id="stop26" />
    </linearGradient>
    <linearGradient
       id="linearGradient19">
      <stop
         style="stop-color:#84e5e0;stop-opacity:1;"
         offset="0"
         id="stop19" />
      <stop
         style="stop-color:#84e5e0;stop-opacity:0;"
         offset="1"
         id="stop20" />
    </linearGradient>
    <linearGradient
       id="linearGradient17">
      <stop
         style="stop-color:#56c7cc;stop-opacity:1;"
         offset="0"
         id="stop17" />
      <stop
         style="stop-color:#56c7cc;stop-opacity:0;"
         offset="1"
         id="stop18" />
    </linearGradient>
    <linearGradient
       id="linearGradient14">
      <stop
         style="stop-color:#e2f9e1;stop-opacity:0.96851575;"
         offset="0"
         id="stop15" />
      <stop
         style="stop-color:#428dbc;stop-opacity:0.79460269;"
         offset="1"
         id="stop16" />
    </linearGradient>
    <linearGradient
       id="linearGradient13">
      <stop
         style="stop-color:#83ea83;stop-opacity:1;"
         offset="0"
         id="stop13" />
      <stop
         style="stop-color:#b3d8f2;stop-opacity:0.994003;"
         offset="1"
         id="stop14" />
    </linearGradient>
    <linearGradient
       id="linearGradient10">
      <stop
         style="stop-color:#afe0cc;stop-opacity:1;"
         offset="0"
         id="stop11" />
      <stop
         style="stop-color:#a5d5ea;stop-opacity:0.92803597;"
         offset="1"
         id="stop12" />
    </linearGradient>
    <linearGradient
       id="linearGradient9">
      <stop
         style="stop-color:#31b963;stop-opacity:1;"
         offset="0"
         id="stop9" />
      <stop
         style="stop-color:#2b5895;stop-opacity:0.69415295;"
         offset="1"
         id="stop10" />
    </linearGradient>
    <radialGradient
       xlink:href="#linearGradient9"
       id="radialGradient10-0"
       cx="129.42676"
       cy="75.126823"
       fx="129.42676"
       fy="75.126823"
       r="15.45616"
       gradientTransform="matrix(1.2373226,-0.19622494,0.01649616,0.45218691,-108.86638,97.116395)"
       gradientUnits="userSpaceOnUse" />
    <radialGradient
       xlink:href="#linearGradient13"
       id="radialGradient14-8"
       cx="142.71924"
       cy="56.356873"
       fx="142.71924"
       fy="56.356873"
       r="17.633324"
       gradientTransform="matrix(1.3682622,-0.38082962,0.08870908,0.45689903,-132.49223,120.61749)"
       gradientUnits="userSpaceOnUse" />
    <linearGradient
       xlink:href="#linearGradient10"
       id="linearGradient21"
       gradientUnits="userSpaceOnUse"
       x1="126.38061"
       y1="60.810837"
       x2="137.31694"
       y2="47.672436"
       gradientTransform="matrix(1,0,-0.09144532,1,-68.684974,28.79212)" />
    <linearGradient
       xlink:href="#linearGradient14"
       id="linearGradient22"
       gradientUnits="userSpaceOnUse"
       x1="137.31694"
       y1="40.614002"
       x2="150.33617"
       y2="40.614002"
       gradientTransform="matrix(1,0,-0.09144532,1,-68.684974,28.79212)" />
    <linearGradient
       xlink:href="#linearGradient17"
       id="linearGradient23"
       gradientUnits="userSpaceOnUse"
       x1="155.46313"
       y1="39.277916"
       x2="180.33295"
       y2="30.947042"
       gradientTransform="matrix(1,0,-0.09144532,1,-68.684974,28.79212)" />
    <linearGradient
       xlink:href="#linearGradient19"
       id="linearGradient24"
       gradientUnits="userSpaceOnUse"
       x1="157.77072"
       y1="29.260126"
       x2="175.5929"
       y2="19.456848"
       gradientTransform="matrix(1.0423953,0,-0.09532217,1.0489116,-75.031825,26.812335)" />
    <radialGradient
       xlink:href="#linearGradient25"
       id="radialGradient26"
       cx="69.492935"
       cy="86.060059"
       fx="69.492935"
       fy="86.060059"
       r="34.296051"
       gradientTransform="matrix(1,0,-0.10542981,1.1529274,8.9628851,-13.160944)"
       gradientUnits="userSpaceOnUse" />
  </defs>
  <g
     id="layer1"
     transform="translate(-12.520344,-33.578838)">
    <g
       id="g26"
       transform="matrix(1.1331253,0,0,1.0499013,-19.02256,-13.378358)"
       style="stroke-width:0.916826">
      <g
         id="g27">
        <g
           id="g28">
          <path
             style="fill:url(#radialGradient14-8);fill-opacity:1;stroke:none;stroke-width:0.916826"
             d="m 93.184195,82.821247 c -1.672116,4.106022 -5.2173,7.472999 -8.466522,10.449989 -1.570231,1.438681 -3.115941,3.023015 -5.221962,3.53776 -1.309067,0.319943 -2.931427,0.05443 -4.250297,0.05443 h -8.49063 -7.51094 c -0.65681,0 -2.04629,0.266388 -2.414369,-0.381001 -0.512528,-0.901436 0.767821,-1.729137 1.34703,-2.231502 2.065716,-1.791628 4.042581,-3.703866 6.059225,-5.551565 2.00004,-1.832469 3.955218,-4.649648 6.410678,-5.823681 1.708377,-0.816853 4.122431,-0.381002 5.912961,-0.381002 h 11.10314 c 1.75716,0 3.985291,-0.346232 5.521688,0.326559"
             id="path6-7" />
          <path
             d="m 41.749642,109.61369 c 0.357712,0.51151 1.107662,0.55488 2.486331,0.55488 1.978574,0 3.717257,-0.19838 5.68686,-0.61953 1.987712,-0.42499 4.036915,-0.16583 6.017505,-0.61895 3.878392,-0.88726 7.520355,-2.83833 11.314156,-4.2098 2.082643,-0.75287 6.396948,-1.8426 6.711583,-4.58128 H 57.737894 c -2.544415,0 -5.389984,-0.615739 -7.532238,1.48594 -4.892416,4.79977 -7.488734,7.25916 -8.456014,7.98874 z"
             style="fill:url(#radialGradient10-0);fill-opacity:1;stroke-width:0.916826"
             id="path9-3" />
          <path
             d="m 61.281905,64.544976 c -0.833743,-0.01626 -1.615312,1.100244 -2.169869,1.621607 -2.066118,1.942453 -3.39794,4.346759 -5.114814,6.531384 -5.208565,6.627623 -8.416202,14.221087 -9.922654,22.20588 -0.340443,1.804389 -0.959792,3.35285 -1.130992,5.225003 -0.180318,1.97187 -0.682459,3.89161 -0.864123,5.87819 -0.0942,1.03016 -0.105598,1.70045 0.04498,2.13579 0.977662,-1.35701 3.790434,-5.86767 8.509349,-9.973158 3.558323,-3.095769 7.32859,-5.852463 9.223218,-9.796872 0.620117,-1.291015 0.455533,-3.196592 0.581274,-4.571635 l 0.955605,-10.450008 0.597264,-6.531384 c 0.06716,-0.734404 0.428825,-1.950942 -0.44914,-2.231388 -0.08715,-0.02784 -0.173844,-0.04173 -0.2601,-0.04341 z"
             style="fill:url(#linearGradient21);stroke-width:0.916826"
             id="path7-3" />
          <path
             style="fill:url(#linearGradient22);stroke:none;stroke-width:0.916826"
             d="m 77.489774,54.464747 c 0.646044,-0.14931 1.342509,-0.07413 1.523633,0.598691 0.303492,1.127322 -0.390637,2.479155 -0.600629,3.592188 -0.341742,1.811375 -0.341125,3.730377 -0.507664,5.551565 -0.137144,1.499738 -0.426686,3.080148 -0.418076,4.571864 0.0049,0.852646 0.449973,1.748441 0.250939,2.612504 -0.801612,3.480244 -4.730106,5.681816 -7.060105,8.164056 -1.146281,1.221181 -2.37833,2.143685 -3.618677,3.265632 -0.576494,0.521447 -1.305347,1.45111 -2.103714,1.578373 -1.172166,0.186841 -1.110526,-1.790515 -1.072318,-2.558059 0.151117,-3.035877 0.558264,-6.104894 0.836154,-9.143757 l 0.373282,-4.082027 0.373282,-4.082028 c 0.09276,-1.014369 -0.07183,-2.673068 0.491769,-3.59219 0.615174,-1.003262 1.995468,-1.519241 2.96491,-2.068223 2.54591,-1.441743 5.74089,-3.755365 8.567214,-4.408589"
             id="path4-2" />
          <path
             style="fill:url(#linearGradient23);fill-opacity:1;stroke:none;stroke-width:0.916826"
             d="m 103.82881,52.124376 c 0.77095,2.339114 -0.52077,5.141525 -1.23112,7.510937 -0.26163,0.87269 -0.18247,1.736197 -0.34777,2.612504 -0.68918,3.652854 -1.88177,7.694619 -3.518979,11.103116 -0.814883,1.696454 -1.361124,4.722321 -3.243936,5.714844 -1.139699,0.600785 -3.366491,0.163279 -4.586811,0.163279 h -10.77657 c -0.88078,0 -4.354567,0.507488 -4.457734,-0.653129 -0.13081,-1.471696 3.198383,-3.370025 4.252543,-4.245307 4.624298,-3.839645 9.024395,-7.819477 13.439958,-11.865094 2.478923,-2.271233 4.89977,-4.661583 7.232709,-7.075526 1.24141,-1.284504 1.37122,-2.880104 3.23769,-3.265624"
             id="path3-1" />
          <path
             style="fill:url(#linearGradient24);fill-opacity:1;stroke:none;stroke-width:0.916826"
             d="m 103.12127,46.904348 0.70752,5.220024 -5.749846,1.901718 -10.289519,9.59098 -4.603045,4.452965 -1.810984,1.198871 -0.353968,-3.596625 0.778216,-8.563376 0.487029,-4.11042 3.456621,-1.826847 c 0,0 10.989339,-5.183058 11.551497,-4.26729"
             id="path2-4" />
          <path
             d="m 28.467124,123.04131 c 2.409023,0.0167 5.034346,0.68239 6.171679,-0.98797 1.342172,-1.9712 2.625954,-4.57677 3.986829,-6.24929 0.849553,-1.0441 1.620775,-2.80599 2.871627,-3.4289 0.817172,-0.40693 2.098522,-0.16329 2.953992,-0.16329 2.41282,0 5.110249,0.3517 7.520895,-0.10886 9.103856,-1.73924 18.717476,-4.69905 26.72418,-10.12343 12.350924,-8.367495 20.298992,-19.729237 25.460004,-33.200514 0.90287,-2.35668 0.98988,-5.078513 1.4488,-7.510939 0.61341,-3.251191 0.96676,-6.499871 1.22244,-9.796868 0.81726,-2.525847 2.62419,-4.187185 1.76351,-5.731155 -1.0221,-1.833541 -7.51288,-0.622394 -9.51259,-0.622394 -6.0573,0 -11.331744,2.750675 -17.227002,4.503018 -14.764085,4.388581 -28.457775,14.83854 -35.630628,28.955206 -2.094619,4.122339 -3.357975,8.516398 -4.974532,12.735934 -1.623097,4.236606 -1.910328,8.986562 -2.312916,13.389062 -0.150169,1.64217 0.547566,4.66145 -0.542505,5.93256 -2.500992,2.91636 -4.909792,5.33301 -6.827732,7.447 -0.928484,1.02339 -5.343112,2.92368 -3.096051,4.96083 M 96.216202,47.52435 c -3.775063,0.485037 3.489542,-1.018842 6.545538,0.03485 0.44942,1.746131 -2.109,3.585488 -2.109,3.585488 l -3.267545,3.592186 -9.871033,9.143745 -4.41583,4.24532 -1.737329,1.142966 -0.339572,-3.428911 0.746565,-8.164059 0.518677,-4.677447 3.456621,-1.826847 c 0,0 -1.72831,0.913424 3.460398,-1.571265 m 14.625118,2.523999 c 0.77095,2.339114 -0.52077,5.141525 -1.23112,7.510937 -0.26163,0.87269 -0.18247,1.736197 -0.34777,2.612504 -0.68918,3.652854 -1.88177,7.694619 -3.518984,11.103116 -0.814883,1.696454 -1.361124,4.722321 -3.243936,5.714844 -1.139699,0.600785 -3.366491,0.163279 -4.586811,0.163279 H 80.123624 c -0.88078,0 -4.354567,0.507488 -4.457734,-0.653129 -0.13081,-1.471696 3.198383,-3.370025 4.252543,-4.245307 4.624293,-3.839645 9.02439,-7.819477 13.439953,-11.865094 2.478923,-2.271233 4.89977,-4.661583 7.232714,-7.075526 1.2414,-1.284504 1.37121,-2.880104 3.23769,-3.265624 m -26.339016,2.340371 c 0.646044,-0.14931 1.342509,-0.07413 1.523633,0.598691 0.303492,1.127322 -0.390637,2.479155 -0.600629,3.592188 -0.341742,1.811375 -0.341125,3.730377 -0.507664,5.551565 -0.137144,1.499738 -0.426686,3.080148 -0.418076,4.571864 0.0049,0.852646 0.449973,1.748441 0.250939,2.612504 -0.801612,3.480244 -4.730106,5.681816 -7.060105,8.164056 -1.146281,1.221181 -2.37833,2.143685 -3.618677,3.265632 -0.576494,0.521447 -1.305347,1.45111 -2.103714,1.578373 -1.172166,0.186841 -1.110526,-1.790515 -1.072318,-2.558059 0.151117,-3.035877 0.558264,-6.104894 0.836154,-9.143757 l 0.373282,-4.082027 0.373282,-4.082028 c 0.09276,-1.014369 -0.07183,-2.673068 0.491769,-3.59219 0.615174,-1.003262 1.995468,-1.519241 2.96491,-2.068223 2.54591,-1.441743 5.74089,-3.755365 8.567214,-4.408589 m -3.522676,45.664304 c -0.283476,2.40773 -4.526788,3.3657 -6.572994,4.02759 -3.72743,1.20574 -7.299433,2.92101 -11.115004,3.70105 -1.948508,0.39836 -3.972083,0.17063 -5.92789,0.54426 -1.937989,0.37026 -3.650382,0.54428 -5.601332,0.54428 -0.76744,0 -1.6607,0.14216 -2.2511,-0.38099 -0.740408,-0.65605 -0.503604,-1.63503 -0.419197,-2.55807 0.181664,-1.98658 0.683769,-3.90625 0.864087,-5.87812 0.1712,-1.872155 0.790488,-3.42061 1.130931,-5.224999 0.370531,-1.96396 2.091469,-9.636666 4.037422,-10.492048 2.228772,-0.979701 2.618891,2.645778 2.926617,4.399886 0.121086,0.690217 0.476277,4.493215 1.066798,4.304822 1.640515,-0.523369 -1.123348,-10.452656 -0.892728,-13.733855 0.217697,-3.097339 1.894767,-5.552954 2.784469,-6.685053 1.716871,-2.184627 3.048573,-4.588787 5.114691,-6.53124 0.611928,-0.575297 1.500494,-1.87537 2.430286,-1.578384 0.877964,0.280446 0.516207,1.497097 0.44905,2.231501 l -0.597253,6.531252 -0.955603,10.450001 c -0.125742,1.375043 0.03877,3.280851 -0.581346,4.571866 -1.894628,3.944409 -6.550514,6.639045 -9.760098,9.542252 -1.921172,1.737777 -9.879071,10.854849 -11.705997,12.718429 -0.588574,0.6004 -1.918225,2.45462 -2.717589,3.1578 -2.017397,1.77468 2.64488,-0.58109 3.272479,-1.05951 1.64465,-1.25375 9.961185,-10.0595 11.60706,-11.29647 2.228369,-1.674753 4.903791,-1.30625 7.412681,-1.30625 h 16.00156 M 93.18419,82.821247 c -1.672116,4.106022 -5.2173,7.472999 -8.466522,10.449989 -1.570231,1.438681 -3.115936,3.023015 -5.221957,3.53776 -1.309067,0.319943 -2.931427,0.05443 -4.250297,0.05443 h -8.49063 -7.51094 c -0.65681,0 -2.04629,0.266388 -2.414369,-0.381001 -0.512528,-0.901436 0.767821,-1.729137 1.34703,-2.231502 2.065716,-1.791628 4.042581,-3.703866 6.059225,-5.551565 2.00004,-1.832469 3.955218,-4.649648 6.410678,-5.823681 1.708377,-0.816853 4.122431,-0.381002 5.912961,-0.381002 h 11.103135 c 1.75716,0 3.985291,-0.346232 5.521688,0.326559"
             style="fill:url(#radialGradient26);fill-opacity:1;stroke:none;stroke-width:0.916826"
             id="path1" />
        </g>
      </g>
    </g>
  </g>
</svg>
