<?xml version="1.0" encoding="UTF-8" standalone="no"?>
<!-- Created with Inkscape (http://www.inkscape.org/) -->

<svg
   width="210mm"
   height="297mm"
   viewBox="0 0 210 297"
   version="1.1"
   id="svg1"
   xml:space="preserve"
   inkscape:version="1.4.2 (ebf0e940, 2025-05-08)"
   sodipodi:docname="logo.svg"
   xmlns:inkscape="http://www.inkscape.org/namespaces/inkscape"
   xmlns:sodipodi="http://sodipodi.sourceforge.net/DTD/sodipodi-0.dtd"
   xmlns="http://www.w3.org/2000/svg"
   xmlns:svg="http://www.w3.org/2000/svg"><sodipodi:namedview
     id="namedview1"
     pagecolor="#ffffff"
     bordercolor="#666666"
     borderopacity="1.0"
     inkscape:showpageshadow="2"
     inkscape:pageopacity="0.0"
     inkscape:pagecheckerboard="0"
     inkscape:deskcolor="#d1d1d1"
     inkscape:document-units="mm"
     inkscape:zoom="1.2989119"
     inkscape:cx="260.98768"
     inkscape:cy="430.36021"
     inkscape:window-width="2560"
     inkscape:window-height="1387"
     inkscape:window-x="0"
     inkscape:window-y="25"
     inkscape:window-maximized="1"
     inkscape:current-layer="layer1" /><defs
     id="defs1" /><g
     inkscape:label="Layer 1"
     inkscape:groupmode="layer"
     id="layer1"><rect
       style="fill:#ffffff;stroke:#c8beb7;stroke-width:0.499999;stroke-linecap:round;stroke-linejoin:round;stroke-miterlimit:28;paint-order:markers stroke fill"
       id="rect2"
       width="210"
       height="190.2522"
       x="0"
       y="26.073105" /><path
       style="fill:#000000"
       id="path1" /><path
       style="fill:#010101;stroke:none"
       d="m 58.460337,100.0856 c 0,-13.348398 -7.115716,-24.918648 -18.256251,-32.190978 -2.943446,-1.92143 -6.210563,-3.21477 -9.525001,-4.36562 -1.619576,-0.56236 -3.619978,-1.03216 -4.806599,0.57326 -1.115779,1.50959 -1.4986,3.23799 -1.896177,5.02709 -0.75113,3.38007 -1.499307,6.5245 -1.499307,10.05416 0,2.69067 -0.260187,5.52588 0,8.20209 0.554314,5.70149 2.976788,10.7349 5.820833,15.610408 1.736458,2.97679 3.646144,5.6712 6.35,7.84931 3.65023,2.94047 7.415625,5.25091 11.641668,7.18785 1.331257,0.61016 2.823616,1.02446 4.233333,1.4552 0.673175,0.2057 1.352154,0.27571 1.719792,0.97014 0.271277,0.51241 0.132292,1.29292 0.132292,1.85208 0,1.72399 -0.364198,3.33022 -0.529167,5.02709 -0.397352,4.08705 0.137047,8.40214 0.529167,12.43541 0.353838,3.63949 1.242882,7.41102 2.293053,10.84792 0.312658,1.02326 0.375493,2.14551 0.661458,3.175 0.467252,1.68212 1.319332,3.37123 1.94028,5.02708 2.064999,5.50666 4.568722,10.82473 8.15799,15.61042 12.08233,16.10977 30.988865,25.86373 50.711809,27.78125 3.22611,0.31364 7.09262,0.31364 10.31875,0 1.60156,-0.15571 5.83564,-0.85506 7.42715,-1.0098 8.72705,-1.77069 14.86336,-4.11881 21.9416,-9.13256 3.38514,-2.39781 6.50362,-5.58938 9.26041,-8.64306 4.01179,-4.44383 7.59219,-9.08435 10.09827,-14.55208 1.87762,-4.09658 3.43635,-8.12201 4.14536,-12.02122 0.51121,-2.8114 0.71864,-4.30538 1.22275,-7.56385 0.20733,-1.34012 0.27925,-3.06192 0.28805,-4.6877 0.007,-1.27276 0.20063,-2.74005 -1.34952,-2.83815 -1.149,-0.0727 -1.44657,0.51562 -1.65796,2.50467 -0.25048,2.3568 -0.27477,3.48849 -0.50412,5.84744 -0.0962,0.98899 -0.86411,5.39988 -1.06565,6.36725 -0.78744,3.77971 -1.4033,5.42632 -3.01922,8.95198 -5.31011,11.58569 -14.27497,21.48467 -25.62049,27.47256 -6.04462,3.19023 -13.32975,5.2059 -20.10833,5.86494 -2.15825,0.20984 -4.58872,0.50412 -6.75861,0.50412 -2.0831,0 -4.13409,-0.30268 -6.20597,-0.50412 -2.45212,-0.23841 -5.06714,-0.81646 -7.40833,-1.49931 -4.54906,-1.32681 -9.164674,-2.32133 -13.493754,-4.36563 -11.409451,-5.3878 -21.279093,-13.66124 -28.222225,-24.29756 -3.872455,-5.9323 -5.637891,-12.63974 -7.584728,-19.31459 -1.138836,-3.90457 -1.635051,-7.85961 -2.02847,-11.90625 -1.257021,-12.92943 0.542344,-26.1319 6.394095,-37.835408 1.379486,-2.75897 3.219095,-5.43413 5.027083,-7.9375 0.610961,-0.84594 1.105271,-2.27344 2.072573,-2.77812 0.631922,-0.3297 1.68814,-0.1323 2.38125,-0.1323 1.954871,0 4.16642,0.28495 6.085417,-0.0882 7.247151,-1.40915 14.816885,-3.80721 20.902085,-8.20208 9.386864,-6.77941 14.984664,-15.98478 18.168064,-26.89931 0.55691,-1.9094 0.42575,-4.11465 0.61735,-6.08542 0.25611,-2.63414 0.3017,-5.266245 0.26459,-7.937497 -0.0142,-1.024711 -0.13233,-2.685124 -1.05834,-3.307292 -1.42628,-0.958291 -3.67148,-0.661458 -5.29166,-0.661458 -4.90767,0 -9.37637,1.049678 -14.022924,2.469439 -11.636812,3.555662 -21.957315,12.022298 -26.722916,23.459728 -1.391646,3.33995 -2.089682,6.90005 -3.086803,10.31875 -1.001158,3.43253 -0.881947,7.28098 -0.881947,10.84792 0,1.3305 0.457708,3.59266 0,4.8066 -0.878443,2.3298 -3.25832,4.12906 -4.497917,6.3059 -1.048813,1.84181 -1.932182,5.20341 -3.704166,6.349998 m 48.947923,-61.603816 4.23333,-0.0441 1.05833,0.79375 -2.38125,2.910416 -7.32013,7.408332 -3.263204,3.43959 -1.32291,0.92604 -0.52917,-2.77813 V 44.52309 l 0.0882,-3.175 2.557644,-1.411105 6.87916,-1.455209 m 7.93751,1.543398 c 0.79794,1.895168 -0.041,4.165702 -0.44098,6.085418 -0.14731,0.70706 -0.0192,1.40668 -0.0882,2.11667 -0.28774,2.95957 -0.95453,6.23424 -2.02848,8.99583 -0.53453,1.37448 -0.75292,3.82606 -2.20485,4.63021 -0.87888,0.48676 -2.71546,0.13229 -3.70417,0.13229 h -8.731254 c -0.71362,0 -3.49051,0.41117 -3.66008,-0.52917 -0.21502,-1.19238 2.34167,-2.73042 3.13091,-3.43958 3.462154,-3.11091 6.732284,-6.3354 10.010064,-9.61319 1.84017,-1.84017 3.62446,-3.77685 5.33578,-5.732645 0.91062,-1.040715 0.89758,-2.333482 2.38125,-2.645833 M 94.179086,41.92136 c 0.51237,-0.120972 1.08222,-0.06006 1.27882,0.485064 0.32941,0.913365 -0.13282,2.00863 -0.22049,2.910418 -0.14268,1.46759 0,3.02238 0,4.49792 0,1.2151 -0.1175,2.49556 0,3.70416 0.0672,0.69082 0.49411,1.4166 0.39687,2.11667 -0.39162,2.81972 -3.4114,4.60345 -5.11528,6.61458 -0.838245,0.98941 -1.768106,1.73683 -2.689925,2.64584 -0.428438,0.42248 -0.950088,1.1757 -1.5875,1.27881 -0.93586,0.15138 -1.032423,-1.45069 -1.058334,-2.07256 -0.102489,-2.45969 0,-4.94623 0,-7.40834 v -6.61458 c 0,-0.82185 -0.256234,-2.16574 0.132292,-2.91042 0.424094,-0.81285 1.504196,-1.2309 2.248959,-1.67569 1.955904,-1.168111 4.373078,-3.042625 6.614588,-3.571872 m 0.52916,36.997562 c -0.0513,1.95077 -3.41828,2.72692 -5.027082,3.26319 -2.930659,0.9769 -5.697642,2.36662 -8.73125,2.99862 -1.549187,0.32275 -3.205578,0.13824 -4.7625,0.44096 -1.542744,0.29999 -2.917248,0.44098 -4.497917,0.44098 -0.621789,0 -1.33498,0.11518 -1.852084,-0.30868 -0.64849,-0.53154 -0.529166,-1.32471 -0.529166,-2.07257 0,-1.60954 0.264583,-3.16487 0.264583,-4.7625 0,-1.51683 0.387032,-2.7714 0.529167,-4.23333 0.628958,-6.46934 2.665115,-12.62192 6.394095,-17.99167 1.229164,-1.77 2.129997,-3.71787 3.660072,-5.29166 0.453154,-0.46611 1.076759,-1.51944 1.852083,-1.27882 0.73211,0.22722 0.529167,1.21296 0.529167,1.80798 v 5.29167 8.46667 c 0,1.11407 0.274483,2.65817 -0.132292,3.70416 -1.242802,3.19579 -4.361539,5.5853 -6.746875,7.9375 -1.427796,1.40796 -2.891224,2.72346 -4.233334,4.23334 -0.432394,0.48645 -1.115629,1.38481 -0.661458,2.07256 0.473582,0.71714 1.246751,0.12304 1.719792,-0.26458 1.239621,-1.0158 2.109537,-2.39328 3.351386,-3.39548 1.681358,-1.3569 3.876306,-1.05834 5.909031,-1.05834 h 12.964582 m 14.287504,-14.02291 c -1.05055,3.32673 -3.67343,6.05468 -6.08541,8.46666 -1.16562,1.16563 -2.30057,2.44927 -3.968754,2.86632 -1.03691,0.25922 -2.37103,0.0441 -3.43959,0.0441 h -6.879165 -6.085417 c -0.532162,0 -1.638191,0.21583 -1.984375,-0.30869 -0.482036,-0.73035 0.493978,-1.40096 0.926042,-1.80798 1.540918,-1.45159 3.000907,-3.0009 4.497916,-4.49792 1.484681,-1.48468 2.860049,-3.76718 4.762499,-4.71839 1.32362,-0.66182 3.3118,-0.30869 4.7625,-0.30869 h 8.995844 c 1.42366,0 3.20326,-0.28052 4.49791,0.26458 m -70.908331,17.99167 c -1.704426,-0.18427 -1.825922,-2.88463 -2.425349,-4.23333 -1.623855,-3.65367 -3.091466,-8.91522 -6.570485,-11.1125 -0.757903,2.61822 1.263542,5.35649 2.293057,7.67291 1.733668,3.90077 3.510845,7.81544 5.423959,11.64167 0.661773,1.32355 1.764774,2.50673 2.072568,3.96875 -1.212156,-0.0319 -2.082851,-0.53025 -3.175,-0.97014 -2.251058,-0.90668 -4.593236,-1.70746 -6.879167,-2.46944 -1.025862,-0.34195 -3.031445,-0.5667 -3.571875,-1.5875 -0.391098,-0.73875 -0.132292,-2.09299 -0.132292,-2.91042 0,-1.64914 -0.159474,-3.38679 0,-5.02708 0.08667,-0.89153 0.442488,-1.7543 0.529167,-2.64584 0.242879,-2.49816 0.320571,-4.76466 1.278818,-7.14375 0.281632,-0.69923 0.510922,-1.80405 1.190625,-2.24895 0.919574,-0.6019 2.51309,0.27724 3.35139,0.66145 2.340127,1.07257 4.547809,2.31524 6.879167,3.3514 1.141718,0.50743 2.489779,1.06494 2.645834,2.46944 0.125969,1.13368 -0.411555,2.11662 -0.705553,3.175 -0.264559,0.95243 -0.38159,1.97738 -0.705561,2.91041 -0.503644,1.4505 -1.376652,2.94437 -1.499303,4.49792 m 6.614584,14.02292 c -1.337532,-0.79529 -1.77968,-2.60146 -2.425345,-3.96875 -1.091826,-2.31212 -2.898721,-5.26467 -2.601739,-7.9375 0.197291,-1.7756 1.355368,-3.60713 1.940281,-5.29167 0.458579,-1.3207 0.807072,-2.66238 1.278814,-3.96875 0.163103,-0.45167 0.213173,-1.12051 0.749655,-1.27881 0.660877,-0.19502 1.157431,0.34347 1.5875,0.74964 0.968659,0.91486 1.767714,1.92255 2.645834,2.91042 0.904152,1.01717 2.03589,2.25019 2.116666,3.70417 0.0946,1.70282 -1.495362,3.69234 -2.028469,5.29166 -0.429875,1.28962 -1.009556,2.64159 -1.322917,3.96875 -0.469278,1.98753 -0.729857,4.11728 -1.94028,5.82084 m 84.137507,-19.75555 c -3.27484,0.77322 -5.10649,2.90163 -7.40834,5.20347 l -8.20208,8.20209 c -9.33231,9.33231 -18.754964,18.728658 -27.781252,28.310408 -2.90319,3.08185 -6.001798,6.0018 -8.995834,8.99583 -1.367827,1.36783 -3.304022,2.78227 -4.233334,4.49792 -0.556498,1.02738 -0.175732,2.02237 0.44097,2.91042 1.235939,1.77975 3.659192,3.98335 5.909031,4.23333 1.69405,0.18823 2.611614,-1.02411 3.704167,-2.11667 2.241061,-2.24106 4.422776,-4.55506 6.658678,-6.79097 9.6668,-9.66679 19.617924,-19.31441 29.060074,-29.19236 2.95436,-3.090708 6.09435,-6.091098 8.99583,-9.260408 0.95027,-1.03799 2.28975,-3.11477 3.96875,-2.60173 1.19657,0.36562 2.30745,1.99876 3.175,2.86631 2.37066,2.37066 4.65568,4.89757 7.14375,7.14375 10.05658,9.078838 18.90152,19.563948 29.01598,28.574998 2.67537,2.3835 5.20345,5.11981 7.67292,7.71701 1.45692,1.53227 2.46572,3.60583 4.85069,3.04271 1.08373,-0.25589 1.86473,-0.71819 2.64583,-1.49931 1.23688,-1.23688 2.56661,-3.15493 2.07257,-5.02708 -0.4087,-1.5487 -2.2394,-2.82058 -3.39548,-3.79236 -1.46915,-1.23494 -2.85937,-2.77118 -4.23334,-4.14514 -11.90974,-11.90975 -24.25364,-23.3845 -35.98333,-35.454158 -2.86087,-2.9438 -5.82181,-5.8218 -8.73125,-8.73125 -1.89139,-1.89139 -3.41423,-3.77997 -6.35,-3.08681 m -75.141674,39.070138 -1.675697,-3.175 -2.116667,-4.7625 -2.601731,-5.55625 -1.014238,-2.64583 0.573261,-1.587498 2.248958,-6.08542 2.469448,-7.67292 c 2.013653,0.43538 2.332084,3.5893 2.73403,5.29167 0.1913,0.81021 0.545881,1.56005 0.705553,2.38125 0.684261,3.51909 1.675972,7.48102 1.322917,11.112498 -0.250478,2.57639 -0.970476,5.13454 -1.499303,7.67291 -0.342962,1.64623 -0.386758,3.50756 -1.146531,5.02709 M 26.445752,89.281782 c 0.639447,-0.15724 1.562114,0.36319 2.116667,0.61736 1.229535,0.56353 2.501615,1.01362 3.704166,1.6316 2.373939,1.21995 5.514001,1.11983 7.672917,2.77813 1.282028,0.98474 1.977415,2.77376 2.645834,4.18923 0.959195,2.031218 2.054146,3.996958 2.866322,6.085408 0.211882,0.54485 0.701403,1.86098 -0.220489,2.07256 -1.211021,0.27794 -3.398678,-1.34996 -4.497917,-1.80798 -2.004956,-0.83539 -3.997442,-1.44849 -6.085417,-2.02847 -1.261361,-0.35038 -2.886516,-0.47256 -3.96875,-1.23471 -1.021397,-0.7193 -1.565154,-1.974848 -2.028473,-3.086808 -0.93775,-2.25061 -2.130822,-4.44109 -2.469444,-6.87917 -0.08657,-0.62326 -0.712747,-2.09682 0.264584,-2.33715 m 103.275698,3.52778 c -1.37447,0.85311 -2.63818,2.68228 -3.79236,3.83645 -2.76212,2.76213 -5.60623,5.464768 -8.20208,8.378478 -0.80864,0.90766 -1.81299,1.59814 -2.64584,2.46944 -5.80788,6.07593 -11.7718,12.03639 -17.727084,17.99166 -2.45003,2.45003 -4.7257,5.07809 -7.231945,7.45243 -1.665516,1.57786 -3.010793,2.95242 -4.105471,5.15207 -0.514321,1.03348 -0.304252,2.91595 -0.304252,4.06425 v 7.40834 24.34166 8.20209 c 0,1.18996 -0.27982,2.68565 0.44097,3.70416 1.099012,1.55295 2.989312,2.28788 4.586118,3.175 3.49624,1.94236 7.28946,3.42696 11.112504,4.54202 4.71838,1.3762 9.34766,2.65063 14.2875,3.1309 12.39196,1.20477 25.00144,-2.43168 35.45416,-8.81944 2.85296,-1.74348 5.03316,-4.06718 7.49653,-6.26181 5.5078,-4.90693 9.33656,-11.30642 12.21493,-17.99167 1.57121,-3.64922 1.99568,-5.43175 2.85171,-9.3371 0.51921,-2.36871 0.93183,-4.74683 1.22428,-7.26086 0.41115,-4.22885 1.3544,-6.05397 -0.97588,-9.86193 -1.24448,-2.03364 -2.88248,-4.16247 -4.99629,-6.30435 -4.03925,-4.09288 -8.1876,-8.1435 -12.25903,-12.21492 -6.76672,-6.76672 -13.43301,-13.57075 -20.37291,-20.108328 -1.6355,-1.54069 -3.16609,-3.18826 -4.7625,-4.7625 -0.56197,-0.55417 -1.40471,-1.47743 -2.29306,-0.92604 m -78.669447,23.680198 -0.264583,0.26458 c -3.536493,-0.65145 -6.768168,-2.82788 -9.789584,-4.6743 -1.635668,-0.99957 -3.272548,-1.89508 -4.718402,-3.17501 -1.237279,-1.0953 -2.743885,-2.15072 -3.219099,-3.79235 l 0.264584,-0.26459 9.260417,3.3514 5.027083,1.71979 1.631595,2.86631 1.807989,3.70417 m 49.741677,22.2691 c 1.53671,-0.49717 3.93644,-0.0441 5.55625,-0.0441 h 12.69999 c 1.40142,0 4.92262,-0.65301 5.68854,0.79375 0.30196,0.57036 0.1323,1.49188 0.1323,2.11667 v 4.49791 16.40417 16.13958 c 0,1.3683 0.62606,4.6723 -0.79375,5.42396 -1.2289,0.65059 -3.9081,0.13229 -5.29167,0.13229 h -13.22916 -3.96875 c -0.46093,0 -1.14242,0.12576 -1.45521,-0.30868 -0.335424,-0.46586 -0.132294,-1.52669 -0.132294,-2.07257 v -5.02708 -19.57917 -14.02291 c 0,-1.132 -0.54764,-4.01985 0.793754,-4.45382 m 44.71458,4.7184 v 8.99583 h -8.73125 v -8.99583 h 8.73125 m 10.84791,0 v 8.99583 h -8.99583 v -8.99583 h 8.99583 m 0,10.84792 v 8.99583 h -8.99583 v -6.08542 l 0.01,-2.9713 8.98583,0.0609 m -10.84787,1e-5 v 8.99583 h -8.73125 v -8.99583 h 8.73125 m -41.68239,4.95255 c -2.79474,0.65988 -3.36429,5.15951 -0.87143,6.82141 0.8028,0.5352 2.22075,0.5362 3.1309,0.30867 2.81077,-0.70267 3.4893,-4.80895 1.02734,-6.70276 -0.91364,-0.70282 -2.19175,-0.68588 -3.28681,-0.42732 z"
       id="path2"
       inkscape:export-filename="simplified_logo.svg"
       inkscape:export-xdpi="100"
       inkscape:export-ydpi="100"
       sodipodi:nodetypes="csssssssssssssssssssscsssssssssssssssssssssssscssscssssssssccccccccccccccscssssscssccsssccssssssssccsscssssssssscssssssssccssscsssssssccscsscsssssssscssssccssssscsssscccssssssssssssssssssscsscccccccccssssccsssssssssssccsscssssccssssssssscssssscccsscccccccssssccssscsssccsccccccccccccccccccccccsssss" /></g></svg>
