<?xml version="1.0" encoding="UTF-8" standalone="no"?>
<!-- Created with Inkscape (http://www.inkscape.org/) -->

<svg
   width="158.97653mm"
   height="141.95294mm"
   viewBox="0 0 158.97653 141.95294"
   version="1.1"
   id="svg1"
   xml:space="preserve"
   xmlns="http://www.w3.org/2000/svg"
   xmlns:svg="http://www.w3.org/2000/svg"><defs
     id="defs1" /><g
     id="layer1"
     transform="translate(375.97237,-59.354228)"><path
       style="fill:#010101;stroke:none;stroke-width:1"
       d="m -368.1461,75.297597 c 0,-16.475281 -8.78259,-30.755881 -22.5328,-39.731766 -3.63296,-2.371528 -7.66541,-3.967835 -11.75626,-5.388273 -1.99896,-0.694094 -4.46796,-1.273945 -5.93254,0.707547 -1.37716,1.863214 -1.84965,3.996494 -2.34037,6.204694 -0.92708,4.171857 -1.85052,8.052874 -1.85052,12.409363 0,3.320963 -0.32114,6.820326 0,10.123442 0.68417,7.037074 3.67411,13.249568 7.18438,19.267171 2.14321,3.674108 4.50025,6.999688 7.83748,9.688024 4.50532,3.62928 9.15276,6.480944 14.36875,8.871615 1.64311,0.753091 3.48506,1.264442 5.22501,1.796083 0.83086,0.253886 1.66889,0.340296 2.12265,1.197393 0.33483,0.63245 0.16328,1.59579 0.16328,2.28594 0,2.12783 -0.44951,4.11033 -0.65313,6.20469 -0.49043,5.04445 0.16916,10.37036 0.65313,15.34843 0.43673,4.49204 1.53403,9.14706 2.8302,13.38906 0.3859,1.26296 0.46347,2.6481 0.81641,3.91874 0.57671,2.07616 1.62839,4.16095 2.3948,6.20468 2.54872,6.79661 5.63895,13.36045 10.06901,19.26719 14.91263,19.88351 38.24806,31.92235 62.59113,34.28905 3.98183,0.38711 8.75408,0.38711 12.73593,0 1.97673,-0.19218 3.9138,-0.7887 5.87813,-0.97968 10.5936,-1.02994 21.63397,-5.35031 30.3703,-11.53854 4.17812,-2.9595 8.0271,-6.8987 11.42968,-10.66771 4.95155,-5.48481 9.37069,-11.21236 12.4638,-17.96093 3.97481,-8.6722 5.27428,-13.22504 6.46358,-23.63495 0.18999,-1.66291 0.38959,-5.34363 0.25485,-7.00897 -0.0706,-0.8728 0.13547,-3.18868 -1.90641,-3.2189 -1.99536,-0.0295 -1.40626,2.72244 -1.4894,3.57746 -0.28308,2.91154 -0.48147,5.1411 -0.76454,8.05264 -0.11874,1.22066 -0.62209,3.07782 -0.87084,4.27179 -0.9719,4.66512 -2.08758,9.36407 -4.08203,13.71562 -6.55401,14.29966 -17.61891,26.51749 -31.62213,33.90805 -7.46058,3.93755 -16.45227,6.42539 -24.81874,7.23882 -2.66382,0.25899 -5.48587,0 -8.16406,0 -2.57107,0 -5.28027,0.24862 -7.83749,0 -3.02654,-0.29426 -6.25413,-1.00772 -9.14375,-1.85053 -5.61468,-1.63762 -11.31151,-2.86511 -16.65468,-5.38829 -14.08213,-6.6499 -26.26376,-16.8614 -34.83333,-29.9893 -4.77958,-7.32195 -6.95858,-15.60062 -9.36147,-23.83906 -1.4056,-4.81922 -2.01806,-9.70073 -2.50364,-14.69531 -1.55148,-15.95817 0.6694,-32.253336 7.89193,-46.698409 1.70262,-3.405263 3.97317,-6.707084 6.20468,-9.796872 0.75408,-1.044103 1.36418,-2.805997 2.55807,-3.428899 0.77996,-0.406933 2.08359,-0.163292 2.93906,-0.163292 2.41282,0 5.14241,0.3517 7.51094,-0.108861 8.94481,-1.739245 18.28777,-4.699055 25.79844,-10.12343 11.58575,-8.367498 18.49484,-19.72924 22.42396,-33.200517 0.68737,-2.35668 0.52548,-5.078513 0.76196,-7.510939 0.31611,-3.2511907 0.37238,-6.4998707 0.32657,-9.79686772 -0.0175,-1.264752 -0.16332,-3.31411898 -1.30625,-4.08203098 -1.76039,-1.182772 -4.53153,-0.816405 -6.53124,-0.816405 -6.0573,0 -11.5728,1.295566 -17.30781,3.047909 -14.36277,4.388581 -27.10086,14.8385397 -32.98281,28.9552057 -1.71765,4.122339 -2.57919,8.516398 -3.80989,12.735934 -1.23568,4.236606 -1.08855,8.986562 -1.08855,13.389063 0,1.642172 0.56493,4.434246 0,5.932554 -1.08421,2.875559 -4.02158,5.096298 -5.55156,7.783067 -1.2945,2.273257 -2.3848,6.422317 -4.57187,7.837495 m 60.41405,-76.03460872 5.225,-0.05443 1.30624,0.979687 -2.93906,3.59218602 -9.03488,9.1437447 -4.02761,4.24532 -1.63281,1.142966 -0.65313,-3.428911 V 6.7194803 l 0.10887,-3.918748 3.15677,-1.741659 8.49061,-1.79609402 m 9.79689,1.90494102 c 0.98485,2.339114 -0.0506,5.141525 -0.54428,7.510937 -0.18182,0.87269 -0.0237,1.7361967 -0.10887,2.6125037 -0.35514,3.652854 -1.17813,7.69462 -2.50365,11.103117 -0.65975,1.696454 -0.92929,4.722321 -2.72134,5.714844 -1.08476,0.600785 -3.35156,0.163279 -4.57188,0.163279 h -10.77656 c -0.88078,0 -4.30816,0.507488 -4.51746,-0.653129 -0.26539,-1.471696 2.89021,-3.370025 3.86433,-4.245307 4.27317,-3.839645 8.30933,-7.819477 12.35494,-11.865095 2.27123,-2.2712327 4.47349,-4.6615827 6.58569,-7.0755257 1.12394,-1.284504 1.10784,-2.880104 2.93906,-3.265624 m -26.12499,2.340371 c 0.63239,-0.14931 1.33573,-0.07413 1.57838,0.598691 0.40658,1.127322 -0.16393,2.479155 -0.27214,3.592188 -0.1761,1.811375 0,3.7303767 0,5.5515647 0,1.499739 -0.14502,3.080149 0,4.571865 0.0829,0.852646 0.60986,1.748441 0.48984,2.612504 -0.48336,3.480244 -4.21053,5.681815 -6.31354,8.164056 -1.03461,1.221181 -2.1823,2.143685 -3.32005,3.265632 -0.52881,0.521447 -1.17265,1.45111 -1.95938,1.578373 -1.15508,0.186841 -1.27426,-1.790516 -1.30624,-2.55806 -0.1265,-3.035877 0,-6.104893 0,-9.143756 v -8.164056 c 0,-1.014369 -0.31627,-2.673068 0.16328,-3.5921897 0.52343,-1.003262 1.85654,-1.519241 2.77578,-2.068223 2.41407,-1.441743 5.39748,-3.755365 8.16407,-4.408589 m 0.65311,45.6642997 c -0.0633,2.407741 -4.21901,3.365705 -6.20469,4.027598 -3.61717,1.20574 -7.03232,2.921004 -10.77656,3.701051 -1.91208,0.398355 -3.95648,0.170623 -5.87812,0.544256 -1.90413,0.370263 -3.60061,0.54428 -5.55156,0.54428 -0.76744,0 -1.6477,0.142161 -2.28594,-0.380989 -0.8004,-0.656054 -0.65312,-1.635025 -0.65312,-2.558073 0,-1.986577 0.32656,-3.906245 0.32656,-5.878123 0,-1.87215 0.47769,-3.420605 0.65313,-5.224994 0.77628,-7.984793 3.28942,-15.578625 7.89192,-22.206248 1.5171,-2.184625 2.62895,-4.588787 4.51744,-6.53124 0.55932,-0.575297 1.329,-1.875371 2.28595,-1.578385 0.90361,0.280446 0.65311,1.497098 0.65311,2.231502 v 6.531252 10.450001 c 0,1.375043 0.33879,3.280851 -0.16327,4.571866 -1.53393,3.944409 -5.38324,6.893665 -8.32734,9.796872 -1.76226,1.737777 -3.5685,3.361435 -5.22501,5.225006 -0.53367,0.600402 -1.37696,1.709204 -0.8164,2.558061 0.58452,0.885131 1.53881,0.151862 2.12266,-0.326559 1.53,-1.253752 2.60369,-2.953909 4.13645,-4.190876 2.07522,-1.674756 4.78434,-1.306258 7.29323,-1.306258 h 16.00156 m 17.63437,-17.307799 c -1.29664,4.106022 -4.53393,7.472999 -7.51092,10.449989 -1.43867,1.438681 -2.83949,3.023015 -4.89844,3.53776 -1.27981,0.319943 -2.92645,0.05443 -4.24532,0.05443 h -8.49063 -7.51094 c -0.65681,0 -2.02193,0.266388 -2.44921,-0.381001 -0.59496,-0.901436 0.6097,-1.729137 1.14297,-2.231502 1.90188,-1.791628 3.70388,-3.703866 5.55156,-5.551565 1.83247,-1.832469 3.53003,-4.649648 5.87813,-5.823681 1.63368,-0.816853 4.08759,-0.381002 5.87812,-0.381002 h 11.10313 c 1.75716,0 3.95363,-0.346232 5.55155,0.326559 m -87.51872,22.206247 c -2.10369,-0.227435 -2.25364,-3.560358 -2.99349,-5.224994 -2.00425,-4.509548 -3.81565,-11.003624 -8.10962,-13.71562 -0.93546,3.231542 1.55952,6.611256 2.8302,9.470301 2.13978,4.814532 4.33327,9.646219 6.69453,14.368749 0.81679,1.633594 2.17817,3.093936 2.55807,4.898436 -1.49611,-0.03937 -2.57076,-0.654462 -3.91875,-1.197397 -2.77837,-1.119071 -5.66921,-2.107435 -8.49062,-3.04791 -1.26617,-0.422052 -3.74156,-0.69945 -4.40859,-1.959374 -0.48272,-0.911804 -0.16328,-2.583277 -0.16328,-3.592191 0,-2.035454 -0.19684,-4.18015 0,-6.204681 0.10701,-1.100372 0.54613,-2.165247 0.65312,-3.265632 0.29977,-3.083358 0.39566,-5.880789 1.57838,-8.817185 0.3476,-0.863026 0.63061,-2.226651 1.46953,-2.77577 1.13499,-0.742896 3.10179,0.342184 4.13647,0.816396 2.88829,1.323821 5.61313,2.857588 8.49061,4.136471 1.40917,0.626296 3.07302,1.314403 3.26563,3.04791 0.15548,1.399246 -0.50796,2.612441 -0.87083,3.918749 -0.32654,1.175538 -0.47098,2.440584 -0.87084,3.592178 -0.62162,1.790282 -1.69914,3.634092 -1.85052,5.551564 m 8.16406,17.307812 c -1.65085,-0.981588 -2.19657,-3.210857 -2.99348,-4.898437 -1.34759,-2.853737 -3.57775,-6.497927 -3.2112,-9.796872 0.2435,-2.191537 1.67287,-4.452106 2.39479,-6.531251 0.566,-1.630076 0.99613,-3.286047 1.57837,-4.898436 0.20132,-0.557474 0.26312,-1.382991 0.92527,-1.578373 0.8157,-0.240704 1.42856,0.423928 1.95938,0.925244 1.19557,1.129167 2.1818,2.37291 3.26562,3.592191 1.11596,1.255443 2.5128,2.7773 2.6125,4.571877 0.11676,2.101708 -1.84565,4.557276 -2.50364,6.531239 -0.53057,1.591716 -1.24605,3.260387 -1.63282,4.898436 -0.57921,2.453113 -0.90082,5.08176 -2.39479,7.184382 M -281.28049,46.99552 c -4.04198,0.954348 -6.3027,3.581341 -9.14376,6.42239 l -10.12343,10.123443 c -11.51842,11.518419 -23.14834,23.115876 -34.28905,34.942167 -3.58327,3.80378 -7.40773,7.40773 -11.10313,11.10312 -1.68824,1.68824 -4.07799,3.43402 -5.225,5.55156 -0.68686,1.26805 -0.21689,2.49612 0.54427,3.59219 1.52546,2.19666 4.51636,4.91646 7.29323,5.225 2.09088,0.23232 3.2234,-1.26401 4.57188,-2.61251 2.76603,-2.76603 5.45881,-5.62209 8.21849,-8.38176 11.93126,-11.93125 24.21344,-23.838843 35.86743,-36.030719 3.64643,-3.814711 7.52196,-7.517947 11.10312,-11.429673 1.17287,-1.281141 2.82613,-3.84441 4.89844,-3.21119 1.47686,0.451267 2.84797,2.466973 3.91875,3.537748 2.92599,2.925991 5.74628,6.044834 8.81718,8.817185 12.41235,11.20557 23.32923,24.146834 35.81302,35.268739 3.30208,2.94184 6.42237,6.31913 9.47031,9.52473 1.79821,1.89121 3.04332,4.4505 5.98698,3.75547 1.33759,-0.31583 2.30154,-0.88643 3.26562,-1.85053 1.52662,-1.52662 3.16784,-3.89397 2.55807,-6.20468 -0.50444,-1.91148 -2.76398,-3.4813 -4.19088,-4.68072 -1.8133,-1.52423 -3.52918,-3.42034 -5.225,-5.11615 -14.69962,-14.699628 -29.9351,-28.862357 -44.41249,-43.759351 -3.53103,-3.63339 -7.18558,-7.185566 -10.77656,-10.776559 -2.33445,-2.334451 -4.21402,-4.665434 -7.83749,-3.8099 m -92.74373,48.22238 -2.06824,-3.918749 -2.6125,-5.878123 -3.21119,-6.857811 -1.25183,-3.26562 0.70755,-1.959372 2.77578,-7.510939 3.04793,-9.470314 c 2.48535,0.537369 2.87837,4.430099 3.37448,6.531252 0.23611,1.000003 0.67375,1.925494 0.87082,2.939062 0.84455,4.343442 2.06858,9.233461 1.63282,13.715618 -0.30916,3.179914 -1.19782,6.337315 -1.85051,9.470302 -0.4233,2.031862 -0.47736,4.329211 -1.41511,6.204694 m -33.63594,-33.254932 c 0.78925,-0.194074 1.92805,0.448267 2.61251,0.761977 1.51755,0.695538 3.08761,1.251062 4.57187,2.013805 2.93003,1.505725 6.80567,1.382152 9.47031,3.428911 1.58234,1.215417 2.44063,3.423518 3.26563,5.170564 1.18388,2.507034 2.53532,4.933252 3.53776,7.510925 0.26151,0.672482 0.8657,2.296917 -0.27214,2.55806 -1.49471,0.343048 -4.19483,-1.66619 -5.55157,-2.231502 -2.47461,-1.031081 -4.93384,-1.787801 -7.51094,-2.503642 -1.55683,-0.432457 -3.56268,-0.583258 -4.89843,-1.523943 -1.26065,-0.887797 -1.93179,-2.437459 -2.50364,-3.809898 -1.15742,-2.777819 -2.62997,-5.481422 -3.04791,-8.490626 -0.10689,-0.76926 -0.87972,-2.588004 0.32655,-2.884631 m 127.4682,4.354168 c -1.69644,1.052952 -3.25618,3.310608 -4.68072,4.735144 -3.40916,3.409164 -6.9195,6.744899 -10.12344,10.34115 -0.99806,1.120281 -2.23768,1.972507 -3.26563,3.04791 -7.16838,7.499227 -14.52936,14.855934 -21.87967,22.20624 -3.02396,3.02395 -5.83271,6.26764 -8.92605,9.19817 -2.05566,1.94748 -4.51607,3.99958 -5.33384,6.80339 -0.39895,1.36781 -0.10886,3.15458 -0.10886,4.57187 v 9.14375 30.04373 10.12344 c 0,1.46871 -0.34537,3.31477 0.54426,4.57187 1.35646,1.91673 3.68956,2.82382 5.66043,3.91875 4.31524,2.39736 8.99703,4.22973 13.71562,5.60599 5.82367,1.69858 11.53736,3.27155 17.63437,3.86432 15.2948,1.48699 30.85807,-3.0013 43.75935,-10.88541 3.52127,-2.15189 6.21219,-5.01992 9.25261,-7.72864 6.79801,-6.05639 11.52366,-13.95497 15.07629,-22.20625 1.93927,-4.50406 3.86367,-9.46429 4.4086,-14.36874 0.10751,-0.96805 0.50036,-3.92328 0.59465,-4.89292 0.50747,-5.21946 0.89991,-10.46589 -0.54683,-13.26991 -1.35364,-2.62355 -4.72112,-5.97523 -6.79678,-7.90774 -5.19458,-4.83633 -10.10556,-10.05113 -15.13073,-15.076289 -8.35183,-8.351835 -16.57971,-16.74972 -25.14529,-24.818736 -2.01862,-1.901599 -3.90775,-3.935115 -5.87813,-5.878123 -0.69361,-0.683985 -1.73376,-1.82352 -2.83021,-1.142966 m -97.09789,29.227322 -0.32656,0.326558 c -4.36492,-0.804053 -8.35363,-3.490315 -12.08281,-5.769262 -2.01882,-1.233721 -4.03915,-2.339006 -5.8237,-3.918761 -1.52712,-1.351876 -3.38664,-2.65453 -3.97317,-4.680714 l 0.32656,-0.326571 11.42969,4.136471 6.20468,2.122653 2.01379,3.537748 2.23152,4.571878 m 61.39375,27.485672 c 1.89668,-0.61363 4.85855,-0.0544 6.85781,-0.0544 h 15.67498 c 1.7297,0 6.07575,-0.80598 7.02109,0.97969 0.37269,0.70397 0.16329,1.84135 0.16329,2.6125 v 5.55155 20.24687 19.9203 c 0,1.68883 0.77272,5.7668 -0.97969,6.69454 -1.51677,0.80299 -4.82358,0.16328 -6.53125,0.16328 h -16.32811 -4.89844 c -0.5689,0 -1.41003,0.15521 -1.79609,-0.38099 -0.414,-0.57499 -0.16328,-1.88432 -0.16328,-2.55808 v -6.20468 -24.16562 -17.3078 c 0,-1.39717 -0.67593,-4.9615 0.97969,-5.49713 m 55.18904,5.82369 v 11.10312 h -10.77656 v -11.10312 h 10.77656 m 13.38905,0 v 11.10312 h -11.10312 v -11.10312 h 11.10312 m 0,13.38906 V 153.346 h -11.10312 v -7.51094 l -0.0982,-3.83379 11.20132,0.24161 m -13.38905,0 V 153.346 h -10.77656 v -11.10312 h 10.77656 m -50.94374,5.98699 c -3.44941,0.81445 -4.6552,6.49384 -1.57838,8.54504 0.99085,0.66057 2.74096,0.66181 3.86432,0.38098 3.46919,-0.86727 4.99805,-5.93546 1.95937,-8.27289 -1.12766,-0.86746 -2.89373,-0.97226 -4.24531,-0.65313 z"
       id="path2-2" /><path
       style="fill:none;stroke:#fb8f24;stroke-width:3.9;stroke-linecap:round;stroke-dasharray:none;stroke-opacity:1"
       d="m -357.08103,61.304222 c -3.09563,4.2585 -5.54213,7.951449 -8.40902,13.233397 -1.20771,2.225085 -3.01457,6.428619 -3.82237,8.814516 -1.3485,3.983618 -2.4081,8.269091 -3.0196,12.318039 -0.5308,3.51695 -0.62389,4.476436 -1.03439,8.136326 -0.2024,1.80398 -0.52689,5.34694 -0.61608,7.22816 -0.16546,3.48996 0.24881,6.31705 0.30827,9.55156 0.42821,4.85541 1.21562,10.31991 2.1174,13.99777 0.4936,2.01268 1.0249,3.8817 1.6856,5.87906 1.9768,5.9768 3.7953,11.73016 6.9129,17.35724 0.8061,1.45499 1.5247,2.80821 2.4108,4.19933 7.8939,12.3936 20.2421,22.41962 33.18838,28.90527 3.8041,1.90579 7.4701,3.08376 11.442,4.4094 5.2418,1.74953 10.65755,2.95426 16.1861,3.71779 1.5098,0.2085 2.85906,0.15883 4.46526,0.21291 6.05879,0.20406 11.64632,0.12006 17.58161,-0.77075 6.28115,-0.94271 12.4276,-2.73047 18.1398,-5.4771 5.82801,-2.80229 11.13581,-6.30074 15.90726,-10.58765 1.3136,-1.18027 2.34159,-2.03747 3.62271,-3.33469 3.68703,-3.95372 7.52707,-8.28081 10.19229,-13.0067 5.87658,-9.8242 7.7276,-14.85066 9.05725,-22.30141 0.79788,-4.47097 1.52549,-9.34673 1.64309,-11.72224 0.0507,-1.03348 0.24284,-3.07582 0.11322,-4.05659"
       id="path4-2" /></g></svg>
