<?xml version="1.0" encoding="UTF-8" standalone="no"?>
<!-- Created with Inkscape (http://www.inkscape.org/) -->

<svg
   width="49.433739mm"
   height="33.663303mm"
   viewBox="0 0 49.433739 33.663303"
   version="1.1"
   id="svg1"
   xml:space="preserve"
   xmlns="http://www.w3.org/2000/svg"
   xmlns:svg="http://www.w3.org/2000/svg"><defs
     id="defs1" /><g
     id="layer1"
     transform="translate(-820.58198,-174.04613)"><g
       id="g39"><g
         id="g40"
         transform="rotate(-16.899635,841.09921,180.63254)"><path
           style="fill:#252e52;fill-opacity:1"
           d="m 832.25468,206.2444 c -4.15417,-2.32928 -7.7299,-7.49241 -12.46521,-6.983 -3.74891,0.4033 -6.05212,-4.24103 -2.92455,-7.25074 3.91538,-3.76785 8.56855,-6.99349 10.95234,-12.13834 1.10171,-2.37781 1.30092,-5.73278 3.62448,-6.98198 3.40742,-1.83192 6.97502,0.17978 10.24656,1.2055 6.84328,2.14556 13.11487,5.73675 20.1939,7.36503 3.2283,0.74255 4.88245,3.74298 6.02515,7.23638 1.13825,3.47976 -1.74659,6.39808 -4.29029,8.80495 -3.43759,3.25268 -7.98939,4.8184 -12.70408,5.68588 -6.18382,1.1378 -12.227,4.36307 -18.6583,3.05632 z"
           id="path2-7" /></g></g></g></svg>
